SplineFontDB: 3.0
FontName: Philosopher
FullName: Philosopher
FamilyName: Philosopher
Weight: Normal
Copyright: Copyright (c) 2008-2010 by Jovanny Lemonad. All rights reserved. SIL OFL v1.1
Version: 001.002
ItalicAngle: 0
UnderlinePosition: -150
UnderlineWidth: 50
Ascent: 800
Descent: 200
sfntRevision: 0x00010000
LayerCount: 2
Layer: 0 1 "Back"  1
Layer: 1 1 "Fore"  0
NeedsXUIDChange: 1
XUID: [1021 496 529952750 8358090]
FSType: 0
OS2Version: 2
OS2_WeightWidthSlopeOnly: 0
OS2_UseTypoMetrics: 1
CreationTime: 1290990234
ModificationTime: 1291813556
PfmFamily: 17
TTFWeight: 400
TTFWidth: 5
LineGap: 50
VLineGap: 0
Panose: 2 0 5 3 7 0 0 2 0 4
OS2TypoAscent: -140
OS2TypoAOffset: 1
OS2TypoDescent: 10
OS2TypoDOffset: 1
OS2TypoLinegap: 50
OS2WinAscent: -40
OS2WinAOffset: 1
OS2WinDescent: -2
OS2WinDOffset: 1
HheadAscent: -210
HheadAOffset: 1
HheadDescent: 22
HheadDOffset: 1
OS2SubXSize: 700
OS2SubYSize: 650
OS2SubXOff: 0
OS2SubYOff: 143
OS2SupXSize: 700
OS2SupYSize: 650
OS2SupXOff: 0
OS2SupYOff: 453
OS2StrikeYSize: 50
OS2StrikeYPos: 250
OS2Vendor: 'MONO'
OS2CodePages: 20000015.00000000
OS2UnicodeRanges: 8000022f.0000000a.00000000.00000000
Lookup: 4 0 0 "'frac' Diagonal Fractions in Latin lookup 0"  {"'frac' Diagonal Fractions in Latin lookup 0 subtable"  } ['frac' ('latn' <'dflt' > ) ]
Lookup: 258 0 0 "'kern' Horizontal Kerning in Latin lookup 0"  {"'kern' Horizontal Kerning in Latin lookup 0 per glyph data 0"  "'kern' Horizontal Kerning in Latin lookup 0 per glyph data 1"  "'kern' Horizontal Kerning in Latin lookup 0 kerning class 2"  "'kern' Horizontal Kerning in Latin lookup 0 kerning class 3"  } ['kern' ('latn' <'dflt' > ) ]
MarkAttachClasses: 1
DEI: 91125
KernClass2: 20+ 23 "'kern' Horizontal Kerning in Latin lookup 0 kerning class 2" 
 50 A Agrave Aacute Adieresis Atilde Acircumflex Aring
 50 a agrave aacute acircumflex atilde adieresis aring
 17 C Ccedilla Gbreve
 18 B Thorn germandbls
 5 D Eth
 37 E Egrave Eacute Ecircumflex Edieresis

StartChar: degree
Encoding: 176 176 1
Width: 440
Flags: HMW
HStem: 380 35<187.5 252.5 187.5 265> 645 35<187.5 252.5>
VStem: 70 40<495 565 495 575> 330 40<495 565>
LayerCount: 2
Fore
SplineSet
220 645 m 128,-1,1
 171 645 171 645 140.5 613.5 c 128,-1,2
 110 582 110 582 110 530 c 128,-1,3
 110 478 110 478 140.5 446.5 c 128,-1,4
 171 415 171 415 220 415 c 128,-1,5
 269 415 269 415 299.5 446.5 c 128,-1,6
 330 478 330 478 330 530 c 128,-1,7
 330 582 330 582 299.5 613.5 c 128,-1,0
 269 645 269 645 220 645 c 128,-1,1
220 680 m 128,-1,9
 288 680 288 680 329 639 c 128,-1,10
 370 598 370 598 370 530 c 128,-1,11
 370 462 370 462 329 421 c 128,-1,12
 288 380 288 380 220 380 c 128,-1,13
 152 380 152 380 111 421 c 128,-1,14
 70 462 70 462 70 530 c 128,-1,15
 70 598 70 598 111 639 c 128,-1,8
 152 680 152 680 220 680 c 128,-1,9
EndSplineSet
EndChar

StartChar: bullet
Encoding: 8226 8226 2
Width: 340
Flags: HMW
HStem: 210 240<135 205>
VStem: 50 240<295 365>
LayerCount: 2
Fore
SplineSet
170 450 m 128,-1,1
 222 450 222 450 256 416 c 128,-1,2
 290 382 290 382 290 330 c 128,-1,3
 290 278 290 278 256 244 c 128,-1,4
 222 210 222 210 170 210 c 128,-1,5
 118 210 118 210 84 244 c 128,-1,6
 50 278 50 278 50 330 c 128,-1,7
 50 382 50 382 84 416 c 128,-1,0
 118 450 118 450 170 450 c 128,-1,1
EndSplineSet
EndChar

StartChar: paragraph
Encoding: 182 182 3
Width: 530
Flags: HMW
HStem: -190 21G<250 250 250 290 375 375 375 415> 620 40<290 375 290 290 415 480 415 415>
VStem: 250 40<-190 290 290 290> 375 40<-190 620 -190 620>
LayerCount: 2
Fore
SplineSet
250 -190 m 1,0,-1
 250 290 l 1,1,2
 150 290 150 290 85 340.5 c 128,-1,3
 20 391 20 391 20 475 c 128,-1,4
 20 559 20 559 85 609.5 c 128,-1,5
 150 660 150 660 250 660 c 2,6,-1
 480 660 l 1,7,-1
 480 620 l 1,8,-1
 415 620 l 1,9,-1
 415 -190 l 1,10,-1
 375 -190 l 1,11,-1
 375 620 l 1,12,-1
 290 620 l 1,13,-1
 290 -190 l 1,14,-1
 250 -190 l 1,0,-1
EndSplineSet
EndChar

StartChar: trademark
Encoding: 8482 8482 4
Width: 845
Flags: HMW
HStem: 292 21G<756.5 805> 630 30<90.5 113 113 151 218 218 218 349>
VStem: 20 198<555 600 600 615> 151 67<307 630 307 630> 383 30<307 589 307 660> 678 67<420 582 582 582>
LayerCount: 2
Fore
SplineSet
151 630 m 1,0,-1
 113 630 l 2,1,2
 78 630 78 630 56.5 610.5 c 128,-1,3
 35 591 35 591 35 555 c 1,4,-1
 20 555 l 1,5,-1
 20 600 l 2,6,7
 20 660 20 660 76 660 c 2,8,-1
 349 660 l 1,9,-1
 349 630 l 1,10,-1
 218 630 l 1,11,-1
 218 307 l 1,12,-1
 151 307 l 1,13,-1
 151 630 l 1,0,-1
678 582 m 1,14,-1
 555 307 l 1,15,-1
 540 307 l 1,16,-1
 413 589 l 1,17,-1
 413 307 l 1,18,-1
 383 307 l 1,19,-1
 383 660 l 1,20,-1
 454 660 l 1,21,-1
 566 412 l 1,22,-1
 678 660 l 1,23,-1
 745 660 l 1,24,-1
 745 420 l 2,25,26
 745 375 745 375 761.5 341 c 128,-1,27
 778 307 778 307 805 307 c 1,28,-1
 805 292 l 1,29,30
 736 292 736 292 707 324.5 c 128,-1,31
 678 357 678 357 678 420 c 2,32,-1
 678 582 l 1,14,-1
EndSplineSet
EndChar

StartChar: plusminus
Encoding: 177 177 5
Width: 500
Flags: HMW
HStem: 70 40<20 230 270 480 20 230> 310 40<20 230 20 230 270 480> 540 20G<230 270 270 270>
VStem: 230 40<110 310 110 310 350 560>
LayerCount: 2
Fore
SplineSet
480 70 m 1,0,-1
 20 70 l 1,1,-1
 20 110 l 1,2,-1
 230 110 l 1,3,-1
 230 310 l 1,4,-1
 20 310 l 1,5,-1
 20 350 l 1,6,-1
 230 350 l 1,7,-1
 230 560 l 1,8,-1
 270 560 l 1,9,-1
 270 350 l 1,10,-1
 480 350 l 1,11,-1
 480 310 l 1,12,-1
 270 310 l 1,13,-1
 270 110 l 1,14,-1
 480 110 l 1,15,-1
 480 70 l 1,0,-1
EndSplineSet
EndChar

StartChar: emdash
Encoding: 8212 8212 6
Width: 780
Flags: HMW
HStem: 230 40<20 760 20 760>
LayerCount: 2
Fore
SplineSet
760 270 m 1,0,-1
 760 230 l 1,1,-1
 20 230 l 1,2,-1
 20 270 l 1,3,-1
 760 270 l 1,0,-1
EndSplineSet
EndChar

StartChar: quotedblleft
Encoding: 8220 8220 7
Width: 445
Flags: HMW
HStem: 425 115<140 152.5 320 332.5> 660 20G<180 180 360 360>
VStem: 70 40<530 537.5> 70 125<472.5 500 467.5 537.5> 250 40<530 537.5> 250 125<472.5 500 467.5 537.5>
LayerCount: 2
Fore
SplineSet
360 680 m 1,0,-1
 370 665 l 1,1,2
 290 609 290 609 290 530 c 1,3,-1
 320 540 l 1,4,5
 342 540 342 540 358.5 524 c 128,-1,6
 375 508 375 508 375 483.5 c 0,7,8
 375 459 375 459 358 442 c 128,-1,9
 341 425 341 425 313 425 c 0,10,11
 285 425 285 425 267.5 443.5 c 128,-1,12
 250 462 250 462 250 495 c 0,13,14
 250 617 250 617 360 680 c 1,0,-1
180 680 m 1,15,-1
 190 665 l 1,16,17
 110 609 110 609 110 530 c 1,18,-1
 140 540 l 1,19,20
 162 540 162 540 178.5 524 c 128,-1,21
 195 508 195 508 195 483.5 c 0,22,23
 195 459 195 459 178 442 c 128,-1,24
 161 425 161 425 133 425 c 0,25,26
 105 425 105 425 87.5 443.5 c 128,-1,27
 70 462 70 462 70 495 c 0,28,29
 70 617 70 617 180 680 c 1,15,-1
EndSplineSet
EndChar

StartChar: quotedblright
Encoding: 8221 8221 8
Width: 445
Flags: HMW
HStem: 425 21G<85 85 265 265> 565 115<112.5 125 292.5 305>
VStem: 70 125<605 632.5 567.5 637.5> 155 40<567.5 575> 250 125<605 632.5 567.5 637.5>
LayerCount: 2
Fore
SplineSet
85 425 m 1,0,-1
 75 440 l 1,1,2
 155 496 155 496 155 575 c 1,3,-1
 125 565 l 1,4,5
 102 565 102 565 86 581.5 c 128,-1,6
 70 598 70 598 70 622 c 0,7,8
 70 646 70 646 87 663 c 128,-1,9
 104 680 104 680 132 680 c 0,10,11
 160 680 160 680 177.5 661.5 c 128,-1,12
 195 643 195 643 195 610 c 0,13,14
 195 488 195 488 85 425 c 1,0,-1
265 425 m 1,15,-1
 255 440 l 1,16,17
 335 496 335 496 335 575 c 1,18,-1
 305 565 l 1,19,20
 282 565 282 565 266 581.5 c 128,-1,21
 250 598 250 598 250 622 c 0,22,23
 250 646 250 646 267 663 c 128,-1,24
 284 680 284 680 312 680 c 0,25,26
 340 680 340 680 357.5 661.5 c 128,-1,27
 375 643 375 643 375 610 c 0,28,29
 375 488 375 488 265 425 c 1,15,-1
EndSplineSet
EndChar

StartChar: guilsinglleft
Encoding: 8249 8249 9
Width: 265
Flags: HMW
HStem: 30 21G<195 195 195 235> 400 20G<195 235 235 235>
LayerCount: 2
Fore
SplineSet
195 30 m 1,0,-1
 20 225 l 1,1,-1
 195 420 l 1,2,-1
 235 420 l 1,3,-1
 125 225 l 1,4,-1
 235 30 l 1,5,-1
 195 30 l 1,0,-1
EndSplineSet
EndChar

StartChar: quotedblbase
Encoding: 8222 8222 10
Width: 445
Flags: HMW
HStem: -155 21G<85 85 265 265> -15 115<112.5 125 292.5 305>
VStem: 70 125<25 52.5 -12.5 57.5> 155 40<-12.5 -5> 250 125<25 52.5 -12.5 57.5>
LayerCount: 2
Fore
SplineSet
85 -155 m 1,0,-1
 75 -140 l 1,1,2
 155 -84 155 -84 155 -5 c 1,3,-1
 125 -15 l 1,4,5
 102 -15 102 -15 86 1.5 c 128,-1,6
 70 18 70 18 70 42 c 0,7,8
 70 66 70 66 87 83 c 128,-1,9
 104 100 104 100 132 100 c 0,10,11
 160 100 160 100 177.5 81.5 c 128,-1,12
 195 63 195 63 195 30 c 0,13,14
 195 -92 195 -92 85 -155 c 1,0,-1
265 -155 m 1,15,-1
 255 -140 l 1,16,17
 335 -84 335 -84 335 -5 c 1,18,-1
 305 -15 l 1,19,20
 282 -15 282 -15 266 1.5 c 128,-1,21
 250 18 250 18 250 42 c 0,22,23
 250 66 250 66 267 83 c 128,-1,24
 284 100 284 100 312 100 c 0,25,26
 340 100 340 100 357.5 81.5 c 128,-1,27
 375 63 375 63 375 30 c 0,28,29
 375 -92 375 -92 265 -155 c 1,15,-1
EndSplineSet
EndChar

StartChar: endash
Encoding: 8211 8211 11
Width: 510
Flags: HMW
HStem: 230 40<20 490 20 490>
LayerCount: 2
Fore
SplineSet
490 270 m 1,0,-1
 490 230 l 1,1,-1
 20 230 l 1,2,-1
 20 270 l 1,3,-1
 490 270 l 1,0,-1
EndSplineSet
EndChar

StartChar: Euro
Encoding: 8364 8364 12
Width: 675
Flags: HMW
HStem: -20 40<337 440> 255 40<10 70 10 75 0 70 174 350 174 174> 355 40<25 70 15 77 174 365> 640 40<352 435 306 465>
VStem: 70 100<295 355 295 355>
LayerCount: 2
Fore
SplineSet
360 295 m 1,0,-1
 350 255 l 1,1,-1
 174 255 l 1,2,3
 189 152 189 152 248 86 c 128,-1,4
 307 20 307 20 410 20 c 0,5,6
 549 20 549 20 635 160 c 1,7,-1
 655 145 l 1,8,9
 608 55 608 55 541.5 17.5 c 128,-1,10
 475 -20 475 -20 380 -20 c 0,11,12
 257 -20 257 -20 175 56.5 c 128,-1,13
 93 133 93 133 75 255 c 1,14,-1
 0 255 l 1,15,-1
 10 295 l 1,16,-1
 70 295 l 1,17,-1
 70 355 l 1,18,-1
 15 355 l 1,19,-1
 25 395 l 1,20,-1
 77 395 l 1,21,22
 100 518 100 518 185 599 c 128,-1,23
 270 680 270 680 380 680 c 0,24,25
 459 680 459 680 520.5 657.5 c 128,-1,26
 582 635 582 635 610 600 c 1,27,28
 630.924 575.588 630.924 575.588 634 511 c 0,29,30
 635 490 635 490 635 450 c 1,31,-1
 615 450 l 1,32,33
 578 640 578 640 410 640 c 0,34,35
 315 640 315 640 252 582 c 128,-1,36
 189 524 189 524 174 395 c 1,37,-1
 375 395 l 1,38,-1
 365 355 l 1,39,-1
 170 355 l 1,40,-1
 170 295 l 1,41,-1
 360 295 l 1,0,-1
EndSplineSet
EndChar

StartChar: percent
Encoding: 37 37 13
Width: 630
Flags: HMW
HStem: 0 30<445 485 445 507.5> 210 30<445 485> 420 30<145 185 145 207.5> 630 30<145 185>
VStem: 30 65<512.5 567.5 512.5 575> 235 65<512.5 567.5> 330 65<92.5 147.5 92.5 155> 535 65<92.5 147.5>
LayerCount: 2
Fore
SplineSet
110 0 m 1,0,-1
 65 0 l 1,1,-1
 520 660 l 1,2,-1
 565 660 l 1,3,-1
 110 0 l 1,0,-1
110 0 m 1,4,-1
 65 0 l 1,5,-1
 520 660 l 1,6,-1
 565 660 l 1,7,-1
 110 0 l 1,4,-1
600 120 m 128,-1,9
 600 66 600 66 564 33 c 128,-1,10
 528 0 528 0 465 0 c 128,-1,11
 402 0 402 0 366 33 c 128,-1,12
 330 66 330 66 330 120 c 128,-1,13
 330 174 330 174 366 207 c 128,-1,14
 402 240 402 240 465 240 c 128,-1,15
 528 240 528 240 564 207 c 128,-1,8
 600 174 600 174 600 120 c 128,-1,9
395 120 m 128,-1,17
 395 79 395 79 414.5 54.5 c 128,-1,18
 434 30 434 30 465 30 c 128,-1,19
 496 30 496 30 515.5 54.5 c 128,-1,20
 535 79 535 79 535 120 c 128,-1,21
 535 161 535 161 515.5 185.5 c 128,-1,22
 496 210 496 210 465 210 c 128,-1,23
 434 210 434 210 414.5 185.5 c 128,-1,16
 395 161 395 161 395 120 c 128,-1,17
300 540 m 128,-1,25
 300 486 300 486 264 453 c 128,-1,26
 228 420 228 420 165 420 c 128,-1,27
 102 420 102 420 66 453 c 128,-1,28
 30 486 30 486 30 540 c 128,-1,29
 30 594 30 594 66 627 c 128,-1,30
 102 660 102 660 165 660 c 128,-1,31
 228 660 228 660 264 627 c 128,-1,24
 300 594 300 594 300 540 c 128,-1,25
95 540 m 128,-1,33
 95 499 95 499 114.5 474.5 c 128,-1,34
 134 450 134 450 165 450 c 128,-1,35
 196 450 196 450 215.5 474.5 c 128,-1,36
 235 499 235 499 235 540 c 128,-1,37
 235 581 235 581 215.5 605.5 c 128,-1,38
 196 630 196 630 165 630 c 128,-1,39
 134 630 134 630 114.5 605.5 c 128,-1,32
 95 581 95 581 95 540 c 128,-1,33
EndSplineSet
EndChar

StartChar: perthousand
Encoding: 8240 8240 14
Width: 910
Flags: HMW
HStem: 0 30<425 465 425 487.5 725 765> 210 30<425 465 725 765> 420 30<145 185 145 207.5> 630 30<145 185>
VStem: 30 65<512.5 567.5 512.5 575> 235 65<512.5 567.5> 310 65<92.5 147.5 92.5 155> 515 65<92.5 147.5> 610 65<92.5 147.5 92.5 155> 815 65<92.5 147.5>
LayerCount: 2
Fore
SplineSet
110 0 m 1,0,-1
 65 0 l 1,1,-1
 520 660 l 1,2,-1
 565 660 l 1,3,-1
 110 0 l 1,0,-1
880 120 m 128,-1,5
 880 66 880 66 844 33 c 128,-1,6
 808 0 808 0 745 0 c 128,-1,7
 682 0 682 0 646 33 c 128,-1,8
 610 66 610 66 610 120 c 128,-1,9
 610 174 610 174 646 207 c 128,-1,10
 682 240 682 240 745 240 c 128,-1,11
 808 240 808 240 844 207 c 128,-1,4
 880 174 880 174 880 120 c 128,-1,5
675 120 m 128,-1,13
 675 79 675 79 694.5 54.5 c 128,-1,14
 714 30 714 30 745 30 c 128,-1,15
 776 30 776 30 795.5 54.5 c 128,-1,16
 815 79 815 79 815 120 c 128,-1,17
 815 161 815 161 795.5 185.5 c 128,-1,18
 776 210 776 210 745 210 c 128,-1,19
 714 210 714 210 694.5 185.5 c 128,-1,12
 675 161 675 161 675 120 c 128,-1,13
580 120 m 128,-1,21
 580 66 580 66 544 33 c 128,-1,22
 508 0 508 0 445 0 c 128,-1,23
 382 0 382 0 346 33 c 128,-1,24
 310 66 310 66 310 120 c 128,-1,25
 310 174 310 174 346 207 c 128,-1,26
 382 240 382 240 445 240 c 128,-1,27
 508 240 508 240 544 207 c 128,-1,20
 580 174 580 174 580 120 c 128,-1,21
375 120 m 128,-1,29
 375 79 375 79 394.5 54.5 c 128,-1,30
 414 30 414 30 445 30 c 128,-1,31
 476 30 476 30 495.5 54.5 c 128,-1,32
 515 79 515 79 515 120 c 128,-1,33
 515 161 515 161 495.5 185.5 c 128,-1,34
 476 210 476 210 445 210 c 128,-1,35
 414 210 414 210 394.5 185.5 c 128,-1,28
 375 161 375 161 375 120 c 128,-1,29
300 540 m 128,-1,37
 300 486 300 486 264 453 c 128,-1,38
 228 420 228 420 165 420 c 128,-1,39
 102 420 102 420 66 453 c 128,-1,40
 30 486 30 486 30 540 c 128,-1,41
 30 594 30 594 66 627 c 128,-1,42
 102 660 102 660 165 660 c 128,-1,43
 228 660 228 660 264 627 c 128,-1,36
 300 594 300 594 300 540 c 128,-1,37
95 540 m 128,-1,45
 95 499 95 499 114.5 474.5 c 128,-1,46
 134 450 134 450 165 450 c 128,-1,47
 196 450 196 450 215.5 474.5 c 128,-1,48
 235 499 235 499 235 540 c 128,-1,49
 235 581 235 581 215.5 605.5 c 128,-1,50
 196 630 196 630 165 630 c 128,-1,51
 134 630 134 630 114.5 605.5 c 128,-1,44
 95 581 95 581 95 540 c 128,-1,45
EndSplineSet
Ligature2: "'frac' Diagonal Fractions in Latin lookup 0 subtable" zero slash zero zero
EndChar

StartChar: ellipsis
Encoding: 8230 8230 15
Width: 628
Flags: HMW
HStem: -14 109<89.5 118.5 299.5 328.5 509.5 538.5>
VStem: 50 108<25.5 55.5> 260 108<25.5 55.5> 470 108<25.5 55.5>
CounterMasks: 1 70
LayerCount: 2
Fore
SplineSet
66 79 m 128,-1,1
 82 95 82 95 104.5 95 c 128,-1,2
 127 95 127 95 142.5 79 c 128,-1,3
 158 63 158 63 158 40.5 c 128,-1,4
 158 18 158 18 142 2 c 128,-1,5
 126 -14 126 -14 104 -14 c 128,-1,6
 82 -14 82 -14 66 2 c 128,-1,7
 50 18 50 18 50 40.5 c 128,-1,0
 50 63 50 63 66 79 c 128,-1,1
276 79 m 128,-1,9
 292 95 292 95 314.5 95 c 128,-1,10
 337 95 337 95 352.5 79 c 128,-1,11
 368 63 368 63 368 40.5 c 128,-1,12
 368 18 368 18 352 2 c 128,-1,13
 336 -14 336 -14 314 -14 c 128,-1,14
 292 -14 292 -14 276 2 c 128,-1,15
 260 18 260 18 260 40.5 c 128,-1,8
 260 63 260 63 276 79 c 128,-1,9
486 79 m 128,-1,17
 502 95 502 95 524.5 95 c 128,-1,18
 547 95 547 95 562.5 79 c 128,-1,19
 578 63 578 63 578 40.5 c 128,-1,20
 578 18 578 18 562 2 c 128,-1,21
 546 -14 546 -14 524 -14 c 128,-1,22
 502 -14 502 -14 486 2 c 128,-1,23
 470 18 470 18 470 40.5 c 128,-1,16
 470 63 470 63 486 79 c 128,-1,17
EndSplineSet
EndChar

StartChar: guilsinglright
Encoding: 8250 8250 16
Width: 265
Flags: HMW
HStem: 30 21G<30 70 30 30> 400 20G<30 70 70 70>
LayerCount: 2
Fore
SplineSet
245 225 m 1,0,-1
 70 30 l 1,1,-1
 30 30 l 1,2,-1
 140 225 l 1,3,-1
 30 420 l 1,4,-1
 70 420 l 1,5,-1
 245 225 l 1,0,-1
EndSplineSet
EndChar

StartChar: guillemotright
Encoding: 187 187 17
Width: 330
Flags: HMW
HStem: 30 21G<115 155 115 115> 400 20G<115 155 155 155>
LayerCount: 2
Fore
SplineSet
70 370 m 1,0,-1
 170 225 l 1,1,-1
 70 80 l 1,2,-1
 30 80 l 1,3,-1
 90 225 l 1,4,-1
 30 370 l 1,5,-1
 70 370 l 1,0,-1
210 225 m 1,6,-1
 115 420 l 1,7,-1
 155 420 l 1,8,-1
 310 225 l 1,9,-1
 155 30 l 1,10,-1
 115 30 l 1,11,-1
 210 225 l 1,6,-1
EndSplineSet
EndChar

StartChar: quotesinglbase
Encoding: 8218 8218 18
Width: 265
Flags: HMW
HStem: -155 21G<85 85> -15 115<112.5 125>
VStem: 70 125<25 52.5 -12.5 57.5>
LayerCount: 2
Fore
SplineSet
85 -155 m 1,0,-1
 75 -140 l 1,1,2
 155 -84 155 -84 155 -5 c 1,3,-1
 125 -15 l 1,4,5
 102 -15 102 -15 86 1.5 c 128,-1,6
 70 18 70 18 70 42 c 0,7,8
 70 66 70 66 87 83 c 128,-1,9
 104 100 104 100 132 100 c 0,10,11
 160 100 160 100 177.5 81.5 c 128,-1,12
 195 63 195 63 195 30 c 0,13,14
 195 -92 195 -92 85 -155 c 1,0,-1
EndSplineSet
EndChar

StartChar: quoteleft
Encoding: 8216 8216 19
Width: 265
Flags: HMW
HStem: 425 115<140 152.5> 660 20G<180 180>
VStem: 70 125<472.5 500 467.5 537.5>
LayerCount: 2
Fore
SplineSet
180 680 m 1,0,-1
 190 665 l 1,1,2
 110 609 110 609 110 530 c 1,3,-1
 140 540 l 1,4,5
 162 540 162 540 178.5 524 c 128,-1,6
 195 508 195 508 195 483.5 c 0,7,8
 195 459 195 459 178 442 c 128,-1,9
 161 425 161 425 133 425 c 0,10,11
 105 425 105 425 87.5 443.5 c 128,-1,12
 70 462 70 462 70 495 c 0,13,14
 70 617 70 617 180 680 c 1,0,-1
EndSplineSet
EndChar

StartChar: quoteright
Encoding: 8217 8217 20
Width: 265
Flags: HMW
HStem: 425 21G<85 85> 565 115<112.5 125>
VStem: 70 125<605 632.5 567.5 637.5>
LayerCount: 2
Fore
SplineSet
85 425 m 1,0,-1
 75 440 l 1,1,2
 155 496 155 496 155 575 c 1,3,-1
 125 565 l 1,4,5
 102 565 102 565 86 581.5 c 128,-1,6
 70 598 70 598 70 622 c 0,7,8
 70 646 70 646 87 663 c 128,-1,9
 104 680 104 680 132 680 c 0,10,11
 160 680 160 680 177.5 661.5 c 128,-1,12
 195 643 195 643 195 610 c 0,13,14
 195 488 195 488 85 425 c 1,0,-1
EndSplineSet
EndChar

StartChar: afii10101
Encoding: 1108 1108 21
Width: 455
Flags: HMW
HStem: -10 40<224 290> 210 40<125 335 125 335> 440 40<222.5 285 175 305>
VStem: 30 95<210 210 210 250 210 302.5> 400 20<315 352.5>
LayerCount: 2
Fore
SplineSet
86 411 m 128,-1,1
 142 480 142 480 251 480 c 128,-1,2
 360 480 360 480 395 445 c 0,3,4
 412 428 412 428 416 403.5 c 128,-1,5
 420 379 420 379 420 315 c 1,6,-1
 400 315 l 1,7,8
 396 376 396 376 360.5 408 c 128,-1,9
 325 440 325 440 263.5 440 c 128,-1,10
 202 440 202 440 165.5 387 c 128,-1,11
 129 334 129 334 125 250 c 1,12,-1
 335 250 l 1,13,-1
 335 210 l 1,14,-1
 125 210 l 1,15,16
 129 128 129 128 166 79 c 128,-1,17
 203 30 203 30 270 30 c 0,18,19
 320 30 320 30 353.5 50 c 128,-1,20
 387 70 387 70 415 110 c 1,21,-1
 435 95 l 1,22,23
 372 -10 372 -10 250 -10 c 0,24,25
 142 -10 142 -10 86 59 c 128,-1,26
 30 128 30 128 30 235 c 128,-1,0
 30 342 30 342 86 411 c 128,-1,1
EndSplineSet
EndChar

StartChar: afii10053
Encoding: 1028 1028 22
Width: 635
Flags: HMW
HStem: -20 40<287 400> 310 40<130 461 130 461> 640 40<308 395 255 425>
VStem: 30 100<310 310 310 350 310 420>
CounterMasks: 1 e0
LayerCount: 2
Fore
SplineSet
595 450 m 1,0,-1
 575 450 l 1,1,2
 538 640 538 640 370 640 c 0,3,4
 268 640 268 640 202.5 571 c 128,-1,5
 137 502 137 502 130 350 c 1,6,-1
 461 350 l 1,7,-1
 461 310 l 1,8,-1
 130 310 l 1,9,10
 134.093 193.361 134.093 193.361 189 111 c 0,11,12
 217 69 217 69 263.5 44.5 c 128,-1,13
 310 20 310 20 370 20 c 0,14,15
 509 20 509 20 595 160 c 1,16,-1
 615 145 l 1,17,18
 568 55 568 55 501.5 17.5 c 128,-1,19
 435 -20 435 -20 340 -20 c 0,20,21
 200 -20 200 -20 115 77 c 128,-1,22
 30 174 30 174 30 322 c 128,-1,23
 30 470 30 470 121 575 c 128,-1,24
 212 680 212 680 340 680 c 0,25,26
 419 680 419 680 480.5 657.5 c 128,-1,27
 542 635 542 635 570 600 c 1,28,29
 590.924 575.588 590.924 575.588 594 511 c 0,30,31
 595 490 595 490 595 450 c 1,0,-1
EndSplineSet
EndChar

StartChar: afii10071
Encoding: 1105 1105 23
Width: 475
Flags: HMW
HStem: -10 40<227.5 287.5> 220 40<135 345 135 433 135 345> 435 45<210 275> 535 90<137.5 162.5 307.5 332.5>
VStem: 40 95<167.5 220 260 302.5> 345 90<260 315>
LayerCount: 2
Fore
SplineSet
435 260 m 1,0,-1
 433 220 l 1,1,-1
 135 220 l 1,2,3
 135 136 135 136 171 83 c 128,-1,4
 207 30 207 30 270 30 c 0,5,6
 354 30 354 30 410 110 c 1,7,-1
 430 95 l 1,8,9
 367 -10 367 -10 250 -10 c 0,10,11
 149 -10 149 -10 94.5 59 c 128,-1,12
 40 128 40 128 40 234 c 0,13,14
 40 340 40 340 92 410 c 128,-1,15
 144 480 144 480 239.5 480 c 0,16,17
 335 480 335 480 385 423.5 c 128,-1,18
 435 367 435 367 435 260 c 1,0,-1
135 260 m 1,19,-1
 345 260 l 1,20,21
 345 344 345 344 318.5 389.5 c 128,-1,22
 292 435 292 435 243.5 435 c 0,23,24
 195 435 195 435 165 385 c 128,-1,25
 135 335 135 335 135 260 c 1,19,-1
365 580 m 128,-1,27
 365 561 365 561 352 548 c 128,-1,28
 339 535 339 535 320 535 c 128,-1,29
 301 535 301 535 288 548 c 128,-1,30
 275 561 275 561 275 580 c 128,-1,31
 275 599 275 599 288 612 c 128,-1,32
 301 625 301 625 320 625 c 128,-1,33
 339 625 339 625 352 612 c 128,-1,26
 365 599 365 599 365 580 c 128,-1,27
195 580 m 128,-1,35
 195 561 195 561 182 548 c 128,-1,36
 169 535 169 535 150 535 c 128,-1,37
 131 535 131 535 118 548 c 128,-1,38
 105 561 105 561 105 580 c 128,-1,39
 105 599 105 599 118 612 c 128,-1,40
 131 625 131 625 150 625 c 128,-1,41
 169 625 169 625 182 612 c 128,-1,34
 195 599 195 599 195 580 c 128,-1,35
EndSplineSet
EndChar

StartChar: afii10105
Encoding: 1112 1112 24
Width: 250
Flags: HMW
HStem: -190 20<-15 17.5 -15 57.5> 450 20<-10 10 -10 80> 530 109<102.5 123.5 94 132>
VStem: 62 108 80 90<25 350>
LayerCount: 2
Fore
SplineSet
80 25 m 2,0,-1
 80 350 l 2,1,2
 80 401 80 401 66 425.5 c 128,-1,3
 52 450 52 450 10 450 c 2,4,-1
 -10 450 l 1,5,-1
 -10 470 l 1,6,-1
 80 470 l 2,7,8
 134 470 134 470 152 447 c 128,-1,9
 170 424 170 424 170 350 c 2,10,-1
 170 25 l 2,11,12
 170 -91 170 -91 130.5 -140.5 c 128,-1,13
 91 -190 91 -190 -15 -190 c 1,14,-1
 -15 -170 l 1,15,16
 80 -170 80 -170 80 25 c 2,0,-1
147.5 620 m 128,-1,18
 164 601 164 601 164 577.5 c 128,-1,19
 164 554 164 554 151.5 542 c 128,-1,20
 139 530 139 530 117 530 c 128,-1,21
 95 530 95 530 78.5 549 c 128,-1,22
 62 568 62 568 62 591.5 c 128,-1,23
 62 615 62 615 74.5 627 c 128,-1,24
 87 639 87 639 109 639 c 128,-1,17
 131 639 131 639 147.5 620 c 128,-1,18
EndSplineSet
EndChar

StartChar: afii10054
Encoding: 1029 1029 25
Width: 526
Flags: HMW
HStem: -17 40<218.5 298.5 208 337.5> 638 40<209.5 288.5 180.5 295>
VStem: 45 78<508 559.5> 395 86<112 154>
LayerCount: 2
Fore
SplineSet
481 168 m 0,0,1
 481 84 481 84 425 33.5 c 128,-1,2
 369 -17 369 -17 277.5 -17 c 0,3,4
 186 -17 186 -17 115.5 17 c 128,-1,5
 45 51 45 51 45 105 c 2,6,-1
 45 212 l 1,7,-1
 63 212 l 1,8,9
 79 113 79 113 128.5 68 c 128,-1,10
 178 23 178 23 264 23 c 0,11,12
 319 23 319 23 357 50.5 c 128,-1,13
 395 78 395 78 395 122.5 c 0,14,15
 395 167 395 167 369 198 c 128,-1,16
 343 229 343 229 285 263 c 2,17,-1
 162 336 l 2,18,19
 98 373 98 373 71.5 412.5 c 128,-1,20
 45 452 45 452 45 508 c 0,21,22
 45 585 45 585 98 631.5 c 128,-1,23
 151 678 151 678 235.5 678 c 0,24,25
 320 678 320 678 387.5 644.5 c 128,-1,26
 455 611 455 611 455 558 c 2,27,-1
 455 451 l 1,28,-1
 437 451 l 1,29,30
 421 550 421 550 373 594 c 128,-1,31
 325 638 325 638 239 638 c 0,32,33
 193 638 193 638 158 610 c 128,-1,34
 123 582 123 582 123 539 c 0,35,36
 123 496 123 496 148.5 469 c 128,-1,37
 174 442 174 442 234 406 c 2,38,-1
 357 333 l 2,39,40
 424 294 424 294 452.5 257.5 c 128,-1,41
 481 221 481 221 481 168 c 0,0,1
EndSplineSet
EndChar

StartChar: afii10102
Encoding: 1109 1109 26
Width: 435
Flags: HMW
HStem: -10 40<180 237.5 157.5 270> 440 40<192.5 242.5 157.5 265>
VStem: 40 85<352.5 390 352.5 392.5> 310 85<80 120>
LayerCount: 2
Fore
SplineSet
364 201 m 128,-1,1
 395 170 395 170 395 114 c 128,-1,2
 395 58 395 58 346.5 24 c 128,-1,3
 298 -10 298 -10 220 -10 c 0,4,5
 70.3333 -10 70.3333 -10 47.5 58.5 c 0,6,7
 40 81 40 81 40 135 c 1,8,-1
 60 135 l 1,9,10
 76 30 76 30 200 30 c 0,11,12
 254 30 254 30 282 49.5 c 128,-1,13
 310 69 310 69 310 99 c 128,-1,14
 310 129 310 129 288.5 150 c 128,-1,15
 267 171 267 171 220 190 c 2,16,-1
 160 215 l 2,17,18
 100 240 100 240 70 271.5 c 128,-1,19
 40 303 40 303 40 350 c 0,20,21
 40 412 40 412 85.5 446 c 128,-1,22
 131 480 131 480 205 480 c 0,23,24
 349.667 480 349.667 480 372.5 411.5 c 0,25,26
 380 389 380 389 380 335 c 1,27,-1
 360 335 l 1,28,29
 352 385 352 385 318 412.5 c 128,-1,30
 284 440 284 440 231 440 c 128,-1,31
 178 440 178 440 151.5 420.5 c 128,-1,32
 125 401 125 401 125 370 c 0,33,34
 125 319 125 319 205 285 c 2,35,-1
 265 260 l 2,36,0
 333 232 333 232 364 201 c 128,-1,1
EndSplineSet
EndChar

StartChar: afii10057
Encoding: 1032 1032 27
Width: 290
Flags: HMW
HStem: -137 20<5 37.5 5 77.5> 640 20G<100 190 190 190>
VStem: 100 90<78 660>
LayerCount: 2
Fore
SplineSet
5 -137 m 1,0,-1
 5 -117 l 1,1,2
 100 -117 100 -117 100 78 c 2,3,-1
 100 660 l 1,4,-1
 190 660 l 1,5,-1
 190 78 l 2,6,7
 190 -38 190 -38 150.5 -87.5 c 128,-1,8
 111 -137 111 -137 5 -137 c 1,0,-1
EndSplineSet
EndChar

StartChar: afii10104
Encoding: 1111 1111 28
Width: 250
Flags: HMW
HStem: 0 21G<80 170 80 80> 450 20<-10 10 -10 80> 530 109<29.5 50.5 21 59 183.5 204.5>
VStem: 80 90<0 350 0 380>
LayerCount: 2
Fore
SplineSet
170 350 m 2,0,-1
 170 0 l 1,1,-1
 80 0 l 1,2,-1
 80 350 l 2,3,4
 80 401 80 401 66 425.5 c 128,-1,5
 52 450 52 450 10 450 c 2,6,-1
 -10 450 l 1,7,-1
 -10 470 l 1,8,-1
 80 470 l 2,9,10
 134 470 134 470 152 447 c 128,-1,11
 170 424 170 424 170 350 c 2,0,-1
74.5 620 m 128,-1,13
 91 601 91 601 91 577.5 c 128,-1,14
 91 554 91 554 78.5 542 c 128,-1,15
 66 530 66 530 44 530 c 128,-1,16
 22 530 22 530 5.5 549 c 128,-1,17
 -11 568 -11 568 -11 591.5 c 128,-1,18
 -11 615 -11 615 1.5 627 c 128,-1,19
 14 639 14 639 36 639 c 128,-1,12
 58 639 58 639 74.5 620 c 128,-1,13
228.5 620 m 128,-1,21
 245 601 245 601 245 577.5 c 128,-1,22
 245 554 245 554 232.5 542 c 128,-1,23
 220 530 220 530 198 530 c 128,-1,24
 176 530 176 530 159.5 549 c 128,-1,25
 143 568 143 568 143 591.5 c 128,-1,26
 143 615 143 615 155.5 627 c 128,-1,27
 168 639 168 639 190 639 c 128,-1,20
 212 639 212 639 228.5 620 c 128,-1,21
EndSplineSet
EndChar

StartChar: afii10103
Encoding: 1110 1110 29
Width: 250
Flags: HMW
HStem: 0 21G<80 170 80 80> 450 20<-10 10 -10 80> 530 109<102.5 123.5 94 132>
VStem: 80 90<0 350 0 380>
LayerCount: 2
Fore
SplineSet
170 350 m 2,0,-1
 170 0 l 1,1,-1
 80 0 l 1,2,-1
 80 350 l 2,3,4
 80 401 80 401 66 425.5 c 128,-1,5
 52 450 52 450 10 450 c 2,6,-1
 -10 450 l 1,7,-1
 -10 470 l 1,8,-1
 80 470 l 2,9,10
 134 470 134 470 152 447 c 128,-1,11
 170 424 170 424 170 350 c 2,0,-1
147.5 620 m 128,-1,13
 164 601 164 601 164 577.5 c 128,-1,14
 164 554 164 554 151.5 542 c 128,-1,15
 139 530 139 530 117 530 c 128,-1,16
 95 530 95 530 78.5 549 c 128,-1,17
 62 568 62 568 62 591.5 c 128,-1,18
 62 615 62 615 74.5 627 c 128,-1,19
 87 639 87 639 109 639 c 128,-1,12
 131 639 131 639 147.5 620 c 128,-1,13
EndSplineSet
EndChar

StartChar: afii10056
Encoding: 1031 1031 30
Width: 290
Flags: HMW
HStem: 0 20<260 280 260 280> 640 20G<100 190 190 190> 715 100<53 83 207 237>
VStem: 100 90<120 660>
LayerCount: 2
Fore
SplineSet
100 120 m 2,0,-1
 100 660 l 1,1,-1
 190 660 l 1,2,-1
 190 120 l 2,3,4
 190 69 190 69 204 44.5 c 128,-1,5
 218 20 218 20 260 20 c 2,6,-1
 280 20 l 1,7,-1
 280 0 l 1,8,-1
 190 0 l 2,9,10
 136 0 136 0 118 23 c 128,-1,11
 100 46 100 46 100 120 c 2,0,-1
272 765 m 128,-1,13
 272 742 272 742 258 728.5 c 128,-1,14
 244 715 244 715 222 715 c 128,-1,15
 200 715 200 715 186 728.5 c 128,-1,16
 172 742 172 742 172 765 c 128,-1,17
 172 788 172 788 186 801.5 c 128,-1,18
 200 815 200 815 222 815 c 128,-1,19
 244 815 244 815 258 801.5 c 128,-1,12
 272 788 272 788 272 765 c 128,-1,13
118 765 m 128,-1,21
 118 742 118 742 104 728.5 c 128,-1,22
 90 715 90 715 68 715 c 128,-1,23
 46 715 46 715 32 728.5 c 128,-1,24
 18 742 18 742 18 765 c 128,-1,25
 18 788 18 788 32 801.5 c 128,-1,26
 46 815 46 815 68 815 c 128,-1,27
 90 815 90 815 104 801.5 c 128,-1,20
 118 788 118 788 118 765 c 128,-1,21
EndSplineSet
EndChar

StartChar: afii10050
Encoding: 1168 1168 31
Width: 510
Flags: HMW
HStem: 0 21G<100 190 100 100> 620 40<190 365 365 405 190 190> 640 20<10 30 10 365> 755 20G<490 510 510 510>
VStem: 100 90<0 540 540 570> 490 20<735 775>
LayerCount: 2
Fore
SplineSet
465 620 m 2,0,-1
 190 620 l 1,1,-1
 190 0 l 1,2,-1
 100 0 l 1,3,-1
 100 540 l 2,4,5
 100 591 100 591 86 615.5 c 128,-1,6
 72 640 72 640 30 640 c 2,7,-1
 10 640 l 1,8,-1
 10 660 l 1,9,-1
 365 660 l 2,10,11
 490 660 490 660 490 775 c 1,12,-1
 510 775 l 1,13,-1
 510 665 l 2,14,15
 510 646 510 646 497 633 c 128,-1,16
 484 620 484 620 465 620 c 2,0,-1
EndSplineSet
EndChar

StartChar: afii10098
Encoding: 1169 1169 32
Width: 405
Flags: HMW
HStem: 0 21G<70 160 70 70> 430 40<160 270 270 300 -10 355 160 160> 450 20<-10 0 -10 270> 550 20G<375 395 395 395>
VStem: 70 90<0 350 350 380> 375 20<537.5 570>
LayerCount: 2
Fore
SplineSet
355 430 m 2,0,-1
 160 430 l 1,1,-1
 160 0 l 1,2,-1
 70 0 l 1,3,-1
 70 350 l 2,4,5
 70 401 70 401 56 425.5 c 128,-1,6
 42 450 42 450 0 450 c 2,7,-1
 -10 450 l 1,8,-1
 -10 470 l 1,9,-1
 270 470 l 2,10,11
 317 470 317 470 346 496.5 c 128,-1,12
 375 523 375 523 375 570 c 1,13,-1
 395 570 l 1,14,-1
 395 470 l 2,15,16
 395 430 395 430 355 430 c 2,0,-1
EndSplineSet
EndChar

StartChar: afii10106
Encoding: 1113 1113 33
Width: 740
Flags: HMW
HStem: -10 21G<42.5 84> 0 25 245 35<495 515 515 542.5> 430 40<170 170 170 350> 450 20<44 74.5>
VStem: 115 85 350 90<45 235 280 430 430 430> 625 95<102.5 177.5>
LayerCount: 2
Fore
SplineSet
170 430 m 1,0,-1
 170 350 l 2,1,2
 170 152 170 152 138.5 71 c 128,-1,3
 107 -10 107 -10 48 -10 c 0,4,5
 28 -10 28 -10 5 -1 c 1,6,-1
 5 24 l 1,7,8
 40 24 40 24 63 50 c 128,-1,9
 86 76 86 76 100.5 150.5 c 128,-1,10
 115 225 115 225 115 350 c 0,11,12
 115 401 115 401 100.5 425.5 c 128,-1,13
 86 450 86 450 44 450 c 1,14,-1
 44 470 l 1,15,-1
 440 470 l 1,16,-1
 440 280 l 1,17,-1
 515 280 l 2,18,19
 720 280 720 280 720 140 c 128,-1,20
 720 0 720 0 515 0 c 2,21,-1
 350 0 l 1,22,-1
 350 430 l 1,23,-1
 170 430 l 1,0,-1
440 235 m 1,24,-1
 440 45 l 1,25,26
 470 35 470 35 505 35 c 0,27,28
 625 35 625 35 625 140 c 128,-1,29
 625 245 625 245 505 245 c 0,30,31
 470 245 470 245 440 235 c 1,24,-1
EndSplineSet
EndChar

StartChar: afii10058
Encoding: 1033 1033 34
Width: 955
Flags: HMW
HStem: -10 45 0 21G<460 660 460 460> 345 35<630 660 660 700> 620 40<200 200 200 460> 640 20<65 75 65 550>
VStem: 145 85 460 90<50 330 380 620 620 620> 825 100<137.5 242.5>
LayerCount: 2
Fore
SplineSet
200 620 m 1,0,-1
 200 540 l 2,1,2
 200 212.5 200 212.5 156 95.5 c 0,3,4
 134 37 134 37 107.5 13.5 c 128,-1,5
 81 -10 81 -10 45 -10 c 0,6,7
 27 -10 27 -10 0 -1 c 1,8,-1
 0 24 l 1,9,10
 35 24 35 24 59 44 c 128,-1,11
 83 64 83 64 104 116.5 c 0,12,13
 145 219 145 219 145 540 c 0,14,15
 145 591 145 591 131 615.5 c 128,-1,16
 117 640 117 640 75 640 c 2,17,-1
 65 640 l 1,18,-1
 65 660 l 1,19,-1
 550 660 l 1,20,-1
 550 380 l 1,21,-1
 660 380 l 2,22,23
 761.077 380 761.077 380 834.5 345.5 c 0,24,25
 876 326 876 326 900.5 286.5 c 128,-1,26
 925 247 925 247 925 190 c 128,-1,27
 925 133 925 133 900.5 93.5 c 128,-1,28
 876 54 876 54 834.5 34.5 c 0,29,30
 761.077 -8.82436e-06 761.077 -8.82436e-06 660 0 c 2,31,-1
 460 0 l 1,32,-1
 460 620 l 1,33,-1
 200 620 l 1,0,-1
825 190 m 128,-1,35
 825 267 825 267 777.5 306 c 128,-1,36
 730 345 730 345 645 345 c 0,37,38
 595 345 595 345 550 330 c 1,39,-1
 550 50 l 1,40,41
 595 35 595 35 645 35 c 0,42,43
 730 35 730 35 777.5 74 c 128,-1,34
 825 113 825 113 825 190 c 128,-1,35
EndSplineSet
EndChar

StartChar: afii10107
Encoding: 1114 1114 35
Width: 750
Flags: HMW
HStem: 0 35<505 525> 220 40<170 360 170 360> 450 20<-5 10 -5 80>
VStem: 80 90<0 220 0 260 260 350> 360 90<45 215 45 220 45 220 260 470> 635 95<97.5 162.5>
LayerCount: 2
Fore
SplineSet
450 470 m 1,0,-1
 450 260 l 1,1,-1
 525 260 l 2,2,3
 730 260 730 260 730 130 c 128,-1,4
 730 0 730 0 525 0 c 2,5,-1
 360 0 l 1,6,-1
 360 220 l 1,7,-1
 170 220 l 1,8,-1
 170 0 l 1,9,-1
 80 0 l 1,10,-1
 80 350 l 2,11,12
 80 401 80 401 66 425.5 c 128,-1,13
 52 450 52 450 10 450 c 2,14,-1
 -5 450 l 1,15,-1
 -5 470 l 1,16,-1
 80 470 l 2,17,18
 134 470 134 470 152 447 c 128,-1,19
 170 424 170 424 170 350 c 2,20,-1
 170 260 l 1,21,-1
 360 260 l 1,22,-1
 360 470 l 1,23,-1
 450 470 l 1,0,-1
450 215 m 1,24,-1
 450 45 l 1,25,26
 480 35 480 35 515 35 c 0,27,28
 635 35 635 35 635 130 c 128,-1,29
 635 225 635 225 515 225 c 0,30,31
 480 225 480 225 450 215 c 1,24,-1
EndSplineSet
EndChar

StartChar: afii10059
Encoding: 1034 1034 36
Width: 975
Flags: HMW
HStem: 0 35<650 680> 320 40<190 480 190 480> 640 20<10 30 10 100>
VStem: 100 90<0 320 0 360 360 540> 480 90<50 310 50 320 50 320 360 660> 845 100<132.5 227.5>
LayerCount: 2
Fore
SplineSet
570 660 m 1,0,-1
 570 360 l 1,1,-1
 680 360 l 2,2,3
 779.351 360 779.351 360 854.5 326.5 c 0,4,5
 896 308 896 308 920.5 270.5 c 128,-1,6
 945 233 945 233 945 180 c 128,-1,7
 945 127 945 127 920.5 89.5 c 128,-1,8
 896 52 896 52 854.5 33.5 c 0,9,10
 779.351 1.25012e-05 779.351 1.25012e-05 680 0 c 2,11,-1
 480 0 l 1,12,-1
 480 320 l 1,13,-1
 190 320 l 1,14,-1
 190 0 l 1,15,-1
 100 0 l 1,16,-1
 100 540 l 2,17,18
 100 591 100 591 86 615.5 c 128,-1,19
 72 640 72 640 30 640 c 2,20,-1
 10 640 l 1,21,-1
 10 660 l 1,22,-1
 100 660 l 2,23,24
 154 660 154 660 172 637 c 128,-1,25
 190 614 190 614 190 540 c 2,26,-1
 190 360 l 1,27,-1
 480 360 l 1,28,-1
 480 660 l 1,29,-1
 570 660 l 1,0,-1
845 180 m 128,-1,31
 845 250 845 250 797 287.5 c 128,-1,32
 749 325 749 325 665 325 c 0,33,34
 615 325 615 325 570 310 c 1,35,-1
 570 50 l 1,36,37
 615 35 615 35 665 35 c 0,38,39
 749 35 749 35 797 72.5 c 128,-1,30
 845 110 845 110 845 180 c 128,-1,31
EndSplineSet
EndChar

StartChar: afii10061
Encoding: 1036 1036 37
Width: 650
Flags: HMW
HStem: -10 21G<587.5 630.5> 0 21G<100 190 100 100 680 680> 640 20<10 30 10 100> 770 20G<340 425 425 425>
VStem: 100 90<0 330 345 540>
LayerCount: 2
Fore
SplineSet
10 660 m 1,0,-1
 100 660 l 2,1,2
 154 660 154 660 172 637 c 128,-1,3
 190 614 190 614 190 540 c 2,4,-1
 190 345 l 1,5,-1
 424 579.5 l 2,6,7
 475.366 632.293 475.366 632.293 502 644.5 c 0,8,9
 535.818 660 535.818 660 570 660 c 2,10,-1
 620 660 l 1,11,-1
 620 635 l 1,12,13
 578 635 578 635 547 620.5 c 128,-1,14
 516 606 516 606 475 565 c 2,15,-1
 280 370 l 1,16,-1
 510 130 l 2,17,18
 607 28 607 28 680 19 c 1,19,-1
 680 0 l 1,20,21
 650 -10 650 -10 615 -10 c 0,22,23
 514 -10 514 -10 400 110 c 2,24,-1
 190 330 l 1,25,-1
 190 0 l 1,26,-1
 100 0 l 1,27,-1
 100 540 l 2,28,29
 100 591 100 591 86 615.5 c 128,-1,30
 72 640 72 640 30 640 c 2,31,-1
 10 640 l 1,32,-1
 10 660 l 1,0,-1
425 790 m 1,33,-1
 320 675 l 1,34,-1
 270 675 l 1,35,-1
 340 790 l 1,36,-1
 425 790 l 1,33,-1
EndSplineSet
EndChar

StartChar: afii10109
Encoding: 1116 1116 38
Width: 470
Flags: HMW
HStem: -10 21G<405 440> 0 21G<80 170 80 80 480 480> 450 20<-10 10 -10 80> 580 20G<270 355 355 355>
VStem: 80 90<0 215 230 350>
LayerCount: 2
Fore
SplineSet
170 350 m 2,0,-1
 170 230 l 1,1,-1
 295 405 l 2,2,3
 342 470 342 470 425 470 c 2,4,-1
 450 470 l 1,5,-1
 450 445 l 1,6,7
 392 445 392 445 360 400 c 2,8,-1
 250 245 l 1,9,-1
 365 100 l 2,10,11
 422 27 422 27 480 19 c 1,12,-1
 480 0 l 1,13,14
 460 -10 460 -10 430 -10 c 0,15,16
 349 -10 349 -10 285 70 c 2,17,-1
 170 215 l 1,18,-1
 170 0 l 1,19,-1
 80 0 l 1,20,-1
 80 350 l 2,21,22
 80 401 80 401 66 425.5 c 128,-1,23
 52 450 52 450 10 450 c 2,24,-1
 -10 450 l 1,25,-1
 -10 470 l 1,26,-1
 80 470 l 2,27,28
 134 470 134 470 152 447 c 128,-1,29
 170 424 170 424 170 350 c 2,0,-1
355 600 m 1,30,-1
 250 485 l 1,31,-1
 200 485 l 1,32,-1
 270 600 l 1,33,-1
 355 600 l 1,30,-1
EndSplineSet
EndChar

StartChar: afii10100
Encoding: 1107 1107 39
Width: 405
Flags: HMW
HStem: 0 21G<70 70 70 160> 430 40<160 270 160 160> 450 20<-10 0 -10 320>
VStem: 70 90<0 350 350 380> 375 20<330 362.5>
LayerCount: 2
Fore
SplineSet
70 0 m 1,0,-1
 70 350 l 2,1,2
 70 401 70 401 56 425.5 c 128,-1,3
 42 450 42 450 0 450 c 2,4,-1
 -10 450 l 1,5,-1
 -10 470 l 1,6,-1
 320 470 l 2,7,8
 395 470 395 470 395 390 c 2,9,-1
 395 330 l 1,10,-1
 375 330 l 1,11,12
 375 377 375 377 346 403.5 c 128,-1,13
 317 430 317 430 270 430 c 2,14,-1
 160 430 l 1,15,-1
 160 0 l 1,16,-1
 70 0 l 1,0,-1
325 625 m 1,17,-1
 220 510 l 1,18,-1
 170 510 l 1,19,-1
 240 625 l 1,20,-1
 325 625 l 1,17,-1
EndSplineSet
EndChar

StartChar: afii10052
Encoding: 1027 1027 40
Width: 510
Flags: HMW
HStem: 0 21G<100 100 100 190> 620 40<190 365 190 190> 640 20<10 30 10 425>
VStem: 100 90<0 540 540 570> 490 20<505 545>
LayerCount: 2
Fore
SplineSet
100 0 m 1,0,-1
 100 540 l 2,1,2
 100 591 100 591 86 615.5 c 128,-1,3
 72 640 72 640 30 640 c 2,4,-1
 10 640 l 1,5,-1
 10 660 l 1,6,-1
 425 660 l 2,7,8
 510 660 510 660 510 580 c 2,9,-1
 510 505 l 1,10,-1
 490 505 l 1,11,12
 490 620 490 620 365 620 c 2,13,-1
 190 620 l 1,14,-1
 190 0 l 1,15,-1
 100 0 l 1,0,-1
385 815 m 1,16,-1
 280 700 l 1,17,-1
 230 700 l 1,18,-1
 300 815 l 1,19,-1
 385 815 l 1,16,-1
EndSplineSet
EndChar

StartChar: afii10062
Encoding: 1038 1038 41
Width: 605
Flags: HMW
HStem: -10 30<130 160 130 180 130 160> 640 20<-30 90> 700 60<317.5 372.5 317.5 377.5> 785 20G<235 235 455 455>
LayerCount: 2
Fore
SplineSet
280 95 m 2,0,-1
 290 120 l 1,1,-1
 105 530 l 2,2,3
 92 559 92 559 85 571 c 128,-1,4
 78 583 78 583 62.5 602.5 c 0,5,6
 35.9696 635.877 35.9696 635.877 -30 640 c 1,7,-1
 -30 660 l 1,8,-1
 90 660 l 2,9,10
 134 660 134 660 160 631 c 128,-1,11
 186 602 186 602 210 550 c 2,12,-1
 345 250 l 1,13,-1
 525 660 l 1,14,-1
 585 660 l 1,15,-1
 339 95 l 2,16,17
 294 -10 294 -10 180 -10 c 2,18,-1
 130 -10 l 1,19,-1
 130 20 l 1,20,21
 250 20 250 20 280 95 c 2,0,-1
345 760 m 128,-1,23
 419 760 419 760 455 805 c 1,24,-1
 475 790 l 1,25,26
 434 700 434 700 345 700 c 128,-1,27
 256 700 256 700 215 790 c 1,28,-1
 235 805 l 1,29,22
 271 760 271 760 345 760 c 128,-1,23
EndSplineSet
EndChar

StartChar: afii10110
Encoding: 1118 1118 42
Width: 485
Flags: HMW
HStem: -200 30<80 110 80 110> 460 20G<-30 55> 510 55<252.5 307.5 252.5 312.5> 585 20G<170 170 390 390>
LayerCount: 2
Fore
SplineSet
215 -65 m 2,0,-1
 235 -10 l 1,1,-1
 80 380 l 2,2,3
 51 452 51 452 -30 460 c 1,4,-1
 -30 480 l 1,5,-1
 55 480 l 2,6,7
 143 480 143 480 175 400 c 2,8,-1
 285 125 l 1,9,-1
 415 470 l 1,10,-1
 465 470 l 1,11,-1
 265 -65 l 2,12,13
 236 -144 236 -144 201 -172 c 128,-1,14
 166 -200 166 -200 110 -200 c 2,15,-1
 80 -200 l 1,16,-1
 80 -170 l 1,17,18
 129 -170 129 -170 161 -147.5 c 128,-1,19
 193 -125 193 -125 215 -65 c 2,0,-1
280 565 m 128,-1,21
 350 565 350 565 390 605 c 1,22,-1
 410 590 l 1,23,24
 366 510 366 510 280 510 c 128,-1,25
 194 510 194 510 150 590 c 1,26,-1
 170 605 l 1,27,20
 210 565 210 565 280 565 c 128,-1,21
EndSplineSet
EndChar

StartChar: afii10145
Encoding: 1039 1039 43
Width: 680
Flags: HMW
HStem: -175 21G<315 365 315 315> 0 40<190 300 380 380 380 490 190 580> 640 20<10 30 10 100>
VStem: 100 90<40 540 40 540 40 570> 490 90<40 660 0 660>
LayerCount: 2
Fore
SplineSet
365 -175 m 1,0,-1
 315 -175 l 1,1,-1
 300 0 l 1,2,-1
 100 0 l 1,3,-1
 100 540 l 2,4,5
 100 591 100 591 86 615.5 c 128,-1,6
 72 640 72 640 30 640 c 2,7,-1
 10 640 l 1,8,-1
 10 660 l 1,9,-1
 100 660 l 2,10,11
 154 660 154 660 172 637 c 128,-1,12
 190 614 190 614 190 540 c 2,13,-1
 190 40 l 1,14,-1
 490 40 l 1,15,-1
 490 660 l 1,16,-1
 580 660 l 1,17,-1
 580 0 l 1,18,-1
 380 0 l 1,19,-1
 365 -175 l 1,0,-1
EndSplineSet
EndChar

StartChar: afii10193
Encoding: 1119 1119 44
Width: 540
Flags: HMW
HStem: -150 21G<250 290 250 250> 0 40<170 235 305 305 305 370 170 460> 450 20<-5 10 -5 80>
VStem: 80 90<40 350 40 350 40 380> 370 90<40 470 0 470>
LayerCount: 2
Fore
SplineSet
235 0 m 1,0,-1
 80 0 l 1,1,-1
 80 350 l 2,2,3
 80 401 80 401 66 425.5 c 128,-1,4
 52 450 52 450 10 450 c 2,5,-1
 -5 450 l 1,6,-1
 -5 470 l 1,7,-1
 80 470 l 2,8,9
 134 470 134 470 152 447 c 128,-1,10
 170 424 170 424 170 350 c 2,11,-1
 170 40 l 1,12,-1
 370 40 l 1,13,-1
 370 470 l 1,14,-1
 460 470 l 1,15,-1
 460 0 l 1,16,-1
 305 0 l 1,17,-1
 290 -150 l 1,18,-1
 250 -150 l 1,19,-1
 235 0 l 1,0,-1
EndSplineSet
EndChar

StartChar: afii10108
Encoding: 1115 1115 45
Width: 550
Flags: HMW
HStem: 0 21G<80 170 80 80 380 470 380 380> 385 45<270 297.5> 500 40<10 80 10 80 170 290> 640 20G<130 170 170 170>
VStem: 80 90<0 332 380 500 540 600 600 600> 380 90<0 250 0 300>
LayerCount: 2
Fore
SplineSet
290 500 m 1,0,-1
 170 500 l 1,1,-1
 170 380 l 1,2,3
 220 430 220 430 300 430 c 0,4,5
 470 430 470 430 470 250 c 2,6,-1
 470 0 l 1,7,-1
 380 0 l 1,8,-1
 380 250 l 2,9,10
 380 320 380 320 348.5 352.5 c 128,-1,11
 317 385 317 385 267 385 c 0,12,13
 217 385 217 385 170 332 c 1,14,-1
 170 0 l 1,15,-1
 80 0 l 1,16,-1
 80 500 l 1,17,-1
 10 500 l 1,18,-1
 10 540 l 1,19,-1
 80 540 l 1,20,-1
 80 600 l 1,21,-1
 130 660 l 1,22,-1
 170 660 l 1,23,-1
 170 540 l 1,24,-1
 290 540 l 1,25,-1
 290 500 l 1,0,-1
EndSplineSet
EndChar

StartChar: afii10099
Encoding: 1106 1106 46
Width: 550
Flags: HMW
HStem: -140 20<285 317.5 285 357.5> 0 21G<80 170 80 80> 385 45<270 297.5> 500 40<10 80 10 80 170 290> 640 20G<130 170 170 170>
VStem: 80 90<0 332 380 500 540 600 600 600> 380 90<75 250>
LayerCount: 2
Fore
SplineSet
80 500 m 1,0,-1
 10 500 l 1,1,-1
 10 540 l 1,2,-1
 80 540 l 1,3,-1
 80 600 l 1,4,-1
 130 660 l 1,5,-1
 170 660 l 1,6,-1
 170 540 l 1,7,-1
 290 540 l 1,8,-1
 290 500 l 1,9,-1
 170 500 l 1,10,-1
 170 380 l 1,11,12
 220 430 220 430 300 430 c 0,13,14
 470 430 470 430 470 250 c 2,15,-1
 470 75 l 2,16,17
 470 -41 470 -41 430.5 -90.5 c 128,-1,18
 391 -140 391 -140 285 -140 c 1,19,-1
 285 -120 l 1,20,21
 380 -120 380 -120 380 75 c 2,22,-1
 380 250 l 2,23,24
 380 320 380 320 348.5 352.5 c 128,-1,25
 317 385 317 385 267 385 c 0,26,27
 217 385 217 385 170 332 c 1,28,-1
 170 0 l 1,29,-1
 80 0 l 1,30,-1
 80 500 l 1,0,-1
EndSplineSet
EndChar

StartChar: afii10060
Encoding: 1035 1035 47
Width: 620
Flags: HMW
HStem: 0 21G<100 190 100 100 440 440 440 530> 385 45<305 347.5> 620 40<20 100 20 320 190 190 190 320>
VStem: 100 90<0 345 0 390 390 620> 440 90<0 250 0 300>
LayerCount: 2
Fore
SplineSet
190 345 m 1,0,-1
 190 0 l 1,1,-1
 100 0 l 1,2,-1
 100 620 l 1,3,-1
 20 620 l 1,4,-1
 20 660 l 1,5,-1
 320 660 l 1,6,-1
 320 620 l 1,7,-1
 190 620 l 1,8,-1
 190 390 l 1,9,10
 250 430 250 430 339.5 430 c 0,11,12
 429 430 429 430 479.5 390.5 c 128,-1,13
 530 351 530 351 530 250 c 2,14,-1
 530 0 l 1,15,-1
 440 0 l 1,16,-1
 440 250 l 2,17,18
 440 385 440 385 310 385 c 0,19,20
 250 385 250 385 190 345 c 1,0,-1
EndSplineSet
EndChar

StartChar: afii10051
Encoding: 1026 1026 48
Width: 620
Flags: HMW
HStem: -40 20<345 377.5 345 417.5> 0 21G<100 190 100 100> 385 45<305 347.5> 620 40<20 100 20 320 190 190 190 320>
VStem: 100 90<0 345 0 390 390 620> 440 90<127.5 275>
LayerCount: 2
Fore
SplineSet
440 200 m 0,0,1
 440 305 440 305 406.5 345 c 128,-1,2
 373 385 373 385 311.5 385 c 128,-1,3
 250 385 250 385 190 345 c 1,4,-1
 190 0 l 1,5,-1
 100 0 l 1,6,-1
 100 620 l 1,7,-1
 20 620 l 1,8,-1
 20 660 l 1,9,-1
 320 660 l 1,10,-1
 320 620 l 1,11,-1
 190 620 l 1,12,-1
 190 390 l 1,13,14
 250 430 250 430 340 430 c 0,15,16
 383 430 383 430 414.5 421 c 128,-1,17
 446 412 446 412 473.5 388.5 c 0,18,19
 530 340.218 530 340.218 530 203.109 c 128,-1,20
 530 66 530 66 491 13 c 128,-1,21
 452 -40 452 -40 345 -40 c 1,22,-1
 345 -20 l 1,23,24
 440 -20 440 -20 440 200 c 0,0,1
EndSplineSet
EndChar

StartChar: afii10017
Encoding: 1040 1040 49
Width: 620
Flags: HMW
HStem: -5 21G<597.5 627.5> 0 21G<20 65 20 20 660 660> 190 40<160 405 160 425 145 405> 640 20G<300 330 330 330>
LayerCount: 2
Fore
SplineSet
660 20 m 1,0,-1
 660 0 l 1,1,2
 643 -5 643 -5 620 -5 c 0,3,4
 500 -5 500 -5 450 125 c 2,5,-1
 425 190 l 1,6,-1
 145 190 l 1,7,-1
 65 0 l 1,8,-1
 20 0 l 1,9,-1
 300 660 l 1,10,-1
 330 660 l 1,11,-1
 550 125 l 2,12,13
 574 68 574 68 596.5 46 c 128,-1,14
 619 24 619 24 660 20 c 1,0,-1
285 520 m 1,15,-1
 160 230 l 1,16,-1
 405 230 l 1,17,-1
 285 520 l 1,15,-1
EndSplineSet
EndChar

StartChar: exclam
Encoding: 33 33 51
Width: 268
Flags: HMW
HStem: -14 108<119.5 148.5> 640 20G<87 181 181 181>
VStem: 96 76
LayerCount: 2
Fore
SplineSet
181 660 m 1,0,-1
 163 155 l 1,1,-1
 105 155 l 1,2,-1
 87 660 l 1,3,-1
 181 660 l 1,0,-1
134 94 m 128,-1,5
 156 94 156 94 172 78.5 c 128,-1,6
 188 63 188 63 188 40.5 c 0,7,8
 188 18 188 18 172 2 c 128,-1,9
 156 -14 156 -14 134 -14 c 128,-1,10
 112 -14 112 -14 96 2 c 128,-1,11
 80 18 80 18 80 40.5 c 0,12,13
 80 63 80 63 96 78.5 c 128,-1,4
 112 94 112 94 134 94 c 128,-1,5
EndSplineSet
EndChar

StartChar: quotedbl
Encoding: 34 34 52
Width: 380
Flags: HMW
HStem: 390 21G<90 130 90 90 250 290 250 250> 640 20G<60 160 160 160 220 320 320 320>
LayerCount: 2
Fore
SplineSet
290 390 m 1,0,-1
 250 390 l 1,1,-1
 220 660 l 1,2,-1
 320 660 l 1,3,-1
 290 390 l 1,0,-1
130 390 m 1,4,-1
 90 390 l 1,5,-1
 60 660 l 1,6,-1
 160 660 l 1,7,-1
 130 390 l 1,4,-1
EndSplineSet
EndChar

StartChar: numbersign
Encoding: 35 35 53
Width: 700
Flags: HMW
HStem: -15 235<155 195 155 155 365 365 365 405> 180 40<60 195 60 204 60 235 243 405 453 580> 420 40<120 245 120 253 293 455 120 285 503 640> 420 240<120 335 120 335 295 335 295 455 285 335 295 495 505 545 295 640>
LayerCount: 2
Fore
SplineSet
195 -15 m 1,0,-1
 155 -15 l 1,1,-1
 195 180 l 1,2,-1
 60 180 l 1,3,-1
 60 220 l 1,4,-1
 204 220 l 1,5,-1
 245 420 l 1,6,-1
 120 420 l 1,7,-1
 120 460 l 1,8,-1
 253 460 l 1,9,-1
 295 660 l 1,10,-1
 335 660 l 1,11,-1
 293 460 l 1,12,-1
 463 460 l 1,13,-1
 505 660 l 1,14,-1
 545 660 l 1,15,-1
 503 460 l 1,16,-1
 640 460 l 1,17,-1
 640 420 l 1,18,-1
 495 420 l 1,19,-1
 453 220 l 1,20,-1
 580 220 l 1,21,-1
 580 180 l 1,22,-1
 445 180 l 1,23,-1
 405 -15 l 1,24,-1
 365 -15 l 1,25,-1
 405 180 l 1,26,-1
 235 180 l 1,27,-1
 195 -15 l 1,0,-1
285 420 m 1,28,-1
 243 220 l 1,29,-1
 414 220 l 1,30,-1
 455 420 l 1,31,-1
 285 420 l 1,28,-1
EndSplineSet
EndChar

StartChar: dollar
Encoding: 36 36 54
Width: 526
Flags: HMW
HStem: -80 21G<232 272 232 232> -17 40<272 337> 638 40<232 232> 715 20G<232 272 272 272>
VStem: 45 78<508 558.5> 232 40<-80 -17 24 270 407 636 678 735> 232 223<24 558 294 558 451 558 451 638 451 638 451 735 451 735> 395 86<112 154>
LayerCount: 2
Fore
SplineSet
272 -80 m 1,0,-1
 232 -80 l 1,1,-1
 232 -15 l 1,2,3
 155 -7 155 -7 100 25.5 c 128,-1,4
 45 58 45 58 45 105 c 2,5,-1
 45 212 l 1,6,-1
 63 212 l 1,7,8
 78 122 78 122 119.5 77 c 128,-1,9
 161 32 161 32 232 24 c 1,10,-1
 232 294 l 1,11,-1
 162 336 l 1,12,13
 98 373 98 373 71.5 412.5 c 128,-1,14
 45 452 45 452 45 508 c 0,15,16
 45 584 45 584 96 630 c 128,-1,17
 147 676 147 676 232 678 c 1,18,-1
 232 735 l 1,19,-1
 272 735 l 1,20,-1
 272 676 l 1,21,22
 345 669 345 669 400 637 c 128,-1,23
 455 605 455 605 455 558 c 2,24,-1
 455 451 l 1,25,-1
 437 451 l 1,26,27
 422 540 422 540 381.5 584 c 128,-1,28
 341 628 341 628 272 636 c 1,29,-1
 272 383 l 1,30,-1
 357 333 l 2,31,32
 424 294 424 294 452.5 257.5 c 128,-1,33
 481 221 481 221 481 168 c 0,34,35
 481 83 481 83 425 33 c 128,-1,36
 369 -17 369 -17 272 -17 c 1,37,-1
 272 -80 l 1,0,-1
285 263 m 1,38,-1
 272 270 l 1,39,-1
 272 23 l 1,40,41
 324 25 324 25 359.5 52 c 128,-1,42
 395 79 395 79 395 123 c 128,-1,43
 395 167 395 167 369 198 c 128,-1,44
 343 229 343 229 285 263 c 1,38,-1
155 608 m 128,-1,46
 123 580 123 580 123 538 c 128,-1,47
 123 496 123 496 148 469 c 128,-1,48
 173 442 173 442 232 407 c 1,49,-1
 232 638 l 1,50,45
 187 636 187 636 155 608 c 128,-1,46
EndSplineSet
EndChar

StartChar: ampersand
Encoding: 38 38 55
Width: 565
Flags: HMW
HStem: -20 40<220 286.5> 640 40<270 310 230 335>
VStem: 30 95<130 208 130 219> 85 100<471.5 545 445 570>
LayerCount: 2
Fore
SplineSet
470 0 m 1,0,-1
 422 46 l 1,1,2
 354 -20 354 -20 249 -20 c 128,-1,3
 144 -20 144 -20 87 33 c 128,-1,4
 30 86 30 86 30 160 c 0,5,6
 30 276 30 276 140 341 c 1,7,8
 85 422 85 422 85 500 c 0,9,10
 85 612.8 85 612.8 170 657 c 0,11,12
 214.231 680 214.231 680 271.115 680 c 128,-1,13
 328 680 328 680 380 657 c 128,-1,14
 432 634 432 634 458.5 602 c 128,-1,15
 485 570 485 570 485 470 c 1,16,-1
 465 470 l 1,17,18
 451 549 451 549 403.5 594.5 c 128,-1,19
 356 640 356 640 304 640 c 128,-1,20
 252 640 252 640 218.5 602.5 c 128,-1,21
 185 565 185 565 185 494.5 c 128,-1,22
 185 424 185 424 227.5 363 c 128,-1,23
 270 302 270 302 374 201 c 2,24,-1
 433 143 l 1,25,26
 467 209 467 209 470 280 c 1,27,-1
 500 280 l 1,28,-1
 500 250 l 2,29,30
 500 173 500 173 467 110 c 1,31,-1
 580 0 l 1,32,-1
 470 0 l 1,0,-1
162.5 63.5 m 128,-1,34
 200 20 200 20 267 20 c 128,-1,35
 334 20 334 20 388 79 c 1,36,-1
 264 201 l 2,37,38
 204 259 204 259 176 294 c 1,39,40
 125 257 125 257 125 165 c 0,41,33
 125 107 125 107 162.5 63.5 c 128,-1,34
EndSplineSet
EndChar

StartChar: quotesingle
Encoding: 39 39 56
Width: 220
Flags: HMW
HStem: 390 21G<90 130 90 90> 640 20G<60 160 160 160>
LayerCount: 2
Fore
SplineSet
130 390 m 1,0,-1
 90 390 l 1,1,-1
 60 660 l 1,2,-1
 160 660 l 1,3,-1
 130 390 l 1,0,-1
EndSplineSet
EndChar

StartChar: parenleft
Encoding: 40 40 57
Width: 280
Flags: HMW
HStem: -210 21G<270 270> 670 20G<270 270>
VStem: 20 90<160 320 160 340>
LayerCount: 2
Fore
SplineSet
20 240 m 128,-1,1
 20 384 20 384 82 489.5 c 128,-1,2
 144 595 144 595 270 690 c 1,3,-1
 280 675 l 1,4,5
 110 525 110 525 110 240 c 128,-1,6
 110 -45 110 -45 280 -195 c 1,7,-1
 270 -210 l 1,8,9
 144 -115 144 -115 82 -9.5 c 128,-1,0
 20 96 20 96 20 240 c 128,-1,1
EndSplineSet
EndChar

StartChar: parenright
Encoding: 41 41 58
Width: 280
Flags: HMW
HStem: -210 21G<10 10> 670 20G<10 10>
VStem: 170 90<160 320>
LayerCount: 2
Fore
SplineSet
260 240 m 128,-1,1
 260 96 260 96 198 -9.5 c 128,-1,2
 136 -115 136 -115 10 -210 c 1,3,-1
 0 -195 l 1,4,5
 170 -45 170 -45 170 240 c 128,-1,6
 170 525 170 525 0 675 c 1,7,-1
 10 690 l 1,8,9
 136 595 136 595 198 489.5 c 128,-1,0
 260 384 260 384 260 240 c 128,-1,1
EndSplineSet
EndChar

StartChar: asterisk
Encoding: 42 42 59
Width: 450
Flags: HMW
HStem: 330 21G<185 265 185 185> 640 20G<185 265 265 265>
LayerCount: 2
Fore
SplineSet
215 510 m 1,0,-1
 185 660 l 1,1,-1
 265 660 l 1,2,-1
 235 510 l 1,3,-1
 350 615 l 1,4,-1
 390 545 l 1,5,-1
 245 495 l 1,6,-1
 390 445 l 1,7,-1
 350 375 l 1,8,-1
 235 480 l 1,9,-1
 265 330 l 1,10,-1
 185 330 l 1,11,-1
 215 480 l 1,12,-1
 100 375 l 1,13,-1
 60 445 l 1,14,-1
 205 495 l 1,15,-1
 60 545 l 1,16,-1
 100 615 l 1,17,-1
 215 510 l 1,0,-1
EndSplineSet
EndChar

StartChar: plus
Encoding: 43 43 60
Width: 500
Flags: HMW
HStem: 100 21G<230 230 230 270> 310 40<20 230 20 230 270 480> 540 20G<230 270 270 270>
VStem: 230 40<100 310 100 310 350 560>
LayerCount: 2
Fore
SplineSet
230 100 m 1,0,-1
 230 310 l 1,1,-1
 20 310 l 1,2,-1
 20 350 l 1,3,-1
 230 350 l 1,4,-1
 230 560 l 1,5,-1
 270 560 l 1,6,-1
 270 350 l 1,7,-1
 480 350 l 1,8,-1
 480 310 l 1,9,-1
 270 310 l 1,10,-1
 270 100 l 1,11,-1
 230 100 l 1,0,-1
EndSplineSet
EndChar

StartChar: comma
Encoding: 44 44 61
Width: 225
Flags: HMW
HStem: -155 21G<65 65> -15 115<92.5 105>
VStem: 50 125<25 52.5 -12.5 57.5>
LayerCount: 2
Fore
SplineSet
65 -155 m 1,0,-1
 55 -140 l 1,1,2
 135 -84 135 -84 135 -5 c 1,3,-1
 105 -15 l 1,4,5
 82 -15 82 -15 66 1.5 c 128,-1,6
 50 18 50 18 50 42 c 0,7,8
 50 66 50 66 67 83 c 128,-1,9
 84 100 84 100 112 100 c 0,10,11
 140 100 140 100 157.5 81.5 c 128,-1,12
 175 63 175 63 175 30 c 0,13,14
 175 -92 175 -92 65 -155 c 1,0,-1
EndSplineSet
EndChar

StartChar: hyphen
Encoding: 45 45 62
Width: 335
Flags: HMW
HStem: 230 70<40 295 40 295>
LayerCount: 2
Fore
SplineSet
40 230 m 1,0,-1
 40 300 l 1,1,-1
 295 300 l 1,2,-1
 295 230 l 1,3,-1
 40 230 l 1,0,-1
EndSplineSet
EndChar

StartChar: period
Encoding: 46 46 63
Width: 208
Flags: HMW
HStem: -14 109<89.5 118.5>
VStem: 50 108<25.5 55.5>
LayerCount: 2
Fore
SplineSet
66 79 m 128,-1,1
 82 95 82 95 104.5 95 c 128,-1,2
 127 95 127 95 142.5 79 c 128,-1,3
 158 63 158 63 158 40.5 c 128,-1,4
 158 18 158 18 142 2 c 128,-1,5
 126 -14 126 -14 104 -14 c 128,-1,6
 82 -14 82 -14 66 2 c 128,-1,7
 50 18 50 18 50 40.5 c 128,-1,0
 50 63 50 63 66 79 c 128,-1,1
EndSplineSet
EndChar

StartChar: slash
Encoding: 47 47 64
Width: 395
Flags: HMW
HStem: -40 21G<45 45> 695 20G<350 350>
LayerCount: 2
Fore
SplineSet
45 -40 m 1,0,-1
 10 -25 l 1,1,-1
 350 715 l 1,2,-1
 385 700 l 1,3,-1
 45 -40 l 1,0,-1
EndSplineSet
EndChar

StartChar: zero
Encoding: 48 48 65
Width: 560
Flags: HMW
HStem: -20 40<225 335 225 367.5> 640 40<225 335>
VStem: 40 100<225 435> 420 100<225 435>
LayerCount: 2
Fore
SplineSet
280 640 m 128,-1,1
 200 640 200 640 170 567 c 128,-1,2
 140 494 140 494 140 330 c 128,-1,3
 140 166 140 166 170 93 c 128,-1,4
 200 20 200 20 280 20 c 128,-1,5
 360 20 360 20 390 93 c 128,-1,6
 420 166 420 166 420 330 c 128,-1,7
 420 494 420 494 390 567 c 128,-1,0
 360 640 360 640 280 640 c 128,-1,1
280 680 m 128,-1,9
 520 680 520 680 520 330 c 128,-1,10
 520 -20 520 -20 280 -20 c 128,-1,11
 40 -20 40 -20 40 330 c 128,-1,8
 40 680 40 680 280 680 c 128,-1,9
EndSplineSet
EndChar

StartChar: one
Encoding: 49 49 66
Width: 290
Flags: HMW
HStem: 0 21G<110 200 110 110> 640 20G<150 200 200 200>
VStem: 110 90<0 560 560 560>
LayerCount: 2
Fore
SplineSet
200 660 m 1,0,-1
 200 0 l 1,1,-1
 110 0 l 1,2,-1
 110 560 l 1,3,-1
 10 500 l 1,4,-1
 -5 520 l 1,5,-1
 150 660 l 1,6,-1
 200 660 l 1,0,-1
EndSplineSet
EndChar

StartChar: two
Encoding: 50 50 67
Width: 510
Flags: HMW
HStem: 0 40<100 325 325 365> 640 40<215 260>
VStem: 355 100<415 540>
LayerCount: 2
Fore
SplineSet
100 40 m 1,0,-1
 325 40 l 2,1,2
 450 40 450 40 450 145 c 1,3,-1
 470 145 l 1,4,-1
 470 80 l 2,5,6
 470 0 470 0 385 0 c 2,7,-1
 30 0 l 1,8,-1
 30 50 l 1,9,10
 187.5 201.5 l 1,11,12
 244.5 260.5 l 2,13,14
 280 298 280 298 294.5 319.5 c 128,-1,15
 309 341 309 341 326.5 372 c 0,16,17
 355 422.486 355 422.486 355 492.243 c 128,-1,18
 355 562 355 562 318 601 c 128,-1,19
 281 640 281 640 222.5 640 c 128,-1,20
 164 640 164 640 119.5 595.5 c 128,-1,21
 75 551 75 551 60 470 c 1,22,-1
 40 470 l 1,23,24
 40 570 40 570 66 602 c 128,-1,25
 92 634 92 634 144.5 657 c 128,-1,26
 197 680 197 680 255 680 c 0,27,28
 399.457 680 399.457 680 441.5 571 c 0,29,30
 455 536 455 536 455 488.5 c 128,-1,31
 455 441 455 441 438 397 c 128,-1,32
 421 353 421 353 381 306.5 c 128,-1,33
 341 260 341 260 307 227.5 c 1,34,-1
 100 40 l 1,0,-1
EndSplineSet
EndChar

StartChar: three
Encoding: 51 51 68
Width: 500
Flags: HMW
HStem: -20 40<185 260 182.5 277.5> 340 40<254 270> 620 40<140 180 180 355 120 428>
VStem: 35 20<515 550 515 580> 370 100<127.5 237.5>
LayerCount: 2
Fore
SplineSet
428 620 m 1,0,-1
 170 370 l 1,1,2
 205 380 205 380 243 380 c 128,-1,3
 281 380 281 380 305 376 c 128,-1,4
 329 372 329 372 359.5 359 c 128,-1,5
 390 346 390 346 413.5 325.5 c 128,-1,6
 437 305 437 305 453.5 268.5 c 128,-1,7
 470 232 470 232 470 183.5 c 128,-1,8
 470 135 470 135 453.5 96.5 c 128,-1,9
 437 58 437 58 412 36.5 c 128,-1,10
 387 15 387 15 354 2 c 0,11,12
 298.154 -20 298.154 -20 231.077 -20 c 128,-1,13
 164 -20 164 -20 114 6 c 128,-1,14
 64 32 64 32 20 85 c 1,15,-1
 35 105 l 1,16,17
 112 20 112 20 220 20 c 0,18,19
 285 20 285 20 327.5 61.5 c 128,-1,20
 370 103 370 103 370 180.5 c 128,-1,21
 370 258 370 258 330 299 c 128,-1,22
 290 340 290 340 239 340 c 128,-1,23
 188 340 188 340 120 325 c 1,24,-1
 95 360 l 1,25,-1
 355 620 l 1,26,-1
 180 620 l 2,27,28
 55 620 55 620 55 515 c 1,29,-1
 35 515 l 1,30,-1
 35 580 l 2,31,32
 35 660 35 660 120 660 c 2,33,-1
 428 660 l 1,34,-1
 428 620 l 1,0,-1
EndSplineSet
EndChar

StartChar: four
Encoding: 52 52 69
Width: 520
Flags: HMW
HStem: 0 21G<330 420 330 330> 170 40<70 330 10 10 420 510> 640 20G<340 420 420 420>
VStem: 330 90<0 170 0 170 210 564 564 564>
LayerCount: 2
Fore
SplineSet
420 660 m 1,0,-1
 420 210 l 1,1,-1
 510 210 l 1,2,-1
 510 170 l 1,3,-1
 420 170 l 1,4,-1
 420 0 l 1,5,-1
 330 0 l 1,6,-1
 330 170 l 1,7,-1
 10 170 l 1,8,-1
 10 210 l 1,9,-1
 340 660 l 1,10,-1
 420 660 l 1,0,-1
70 210 m 1,11,-1
 330 210 l 1,12,-1
 330 564 l 1,13,-1
 70 210 l 1,11,-1
EndSplineSet
EndChar

StartChar: five
Encoding: 53 53 70
Width: 500
Flags: HMW
HStem: -20 40<185 260 182.5 277.5> 340 40<234 240 234 265> 620 40<135 440 135 135>
VStem: 49 81 370 100<127.5 237.5>
LayerCount: 2
Fore
SplineSet
90 300 m 1,0,-1
 44 337 l 1,1,-1
 55 660 l 1,2,-1
 440 660 l 1,3,-1
 440 620 l 1,4,-1
 135 620 l 1,5,-1
 126 363 l 1,6,7
 170 380 170 380 225 380 c 128,-1,8
 280 380 280 380 315 372 c 128,-1,9
 350 364 350 364 387.5 344.5 c 128,-1,10
 425 325 425 325 447.5 284 c 128,-1,11
 470 243 470 243 470 189 c 128,-1,12
 470 135 470 135 453.5 96.5 c 128,-1,13
 437 58 437 58 412 36.5 c 128,-1,14
 387 15 387 15 354 2 c 0,15,16
 298.154 -20 298.154 -20 231.077 -20 c 128,-1,17
 164 -20 164 -20 114 6 c 128,-1,18
 64 32 64 32 20 85 c 1,19,-1
 35 105 l 1,20,21
 112 20 112 20 220 20 c 0,22,23
 285 20 285 20 327.5 61.5 c 128,-1,24
 370 103 370 103 370 182.5 c 128,-1,25
 370 262 370 262 330 301 c 128,-1,26
 290 340 290 340 218 340 c 128,-1,27
 146 340 146 340 90 300 c 1,0,-1
EndSplineSet
EndChar

StartChar: six
Encoding: 54 54 71
Width: 520
Flags: HMW
HStem: -20 40<210 302.5 210 337.5> 390 40<250 307.5> 640 40<235 317.5 192.5 330>
VStem: 40 90<225 340 385 450> 385 95<157.5 262.5>
LayerCount: 2
Fore
SplineSet
130 340 m 1,0,1
 130 167 130 167 159 93.5 c 128,-1,2
 188 20 188 20 255 20 c 128,-1,3
 322 20 322 20 353.5 73 c 128,-1,4
 385 126 385 126 385 211 c 128,-1,5
 385 296 385 296 356.5 343 c 128,-1,6
 328 390 328 390 258 390 c 128,-1,7
 188 390 188 390 130 340 c 1,0,1
90 64 m 128,-1,9
 40 148 40 148 40 331.5 c 128,-1,10
 40 515 40 515 94.5 597.5 c 128,-1,11
 149 680 149 680 285 680 c 0,12,13
 350 680 350 680 430 650 c 1,14,-1
 425 630 l 1,15,16
 365 640 365 640 305 640 c 0,17,18
 206 640 206 640 168 575.5 c 128,-1,19
 130 511 130 511 130 385 c 1,20,21
 193 430 193 430 290 430 c 0,22,23
 480 430 480 430 480 205 c 0,24,25
 480 109 480 109 425 44.5 c 128,-1,26
 370 -20 370 -20 255 -20 c 128,-1,8
 140 -20 140 -20 90 64 c 128,-1,9
EndSplineSet
EndChar

StartChar: seven
Encoding: 55 55 72
Width: 455
Flags: HMW
HStem: 0 21G<105 195 105 105> 620 40<115 155 155 355 95 445>
VStem: 10 20<515 550 515 580>
LayerCount: 2
Fore
SplineSet
445 620 m 1,0,-1
 195 0 l 1,1,-1
 105 0 l 1,2,-1
 355 620 l 1,3,-1
 155 620 l 2,4,5
 30 620 30 620 30 515 c 1,6,-1
 10 515 l 1,7,-1
 10 580 l 2,8,9
 10 660 10 660 95 660 c 2,10,-1
 445 660 l 1,11,-1
 445 620 l 1,0,-1
EndSplineSet
EndChar

StartChar: eight
Encoding: 56 56 73
Width: 540
Flags: HMW
HStem: -20 40<235 305 235 332.5> 640 40<245 295>
VStem: 40 95<105 197.5 105 200> 65 70 380 95<482.5 567.5> 405 95<100 182.5>
LayerCount: 2
Fore
SplineSet
475 520 m 0,0,1
 475 416 475 416 350 355 c 1,2,3
 462 291 462 291 488 226 c 0,4,5
 500 196 500 196 500 160 c 0,6,7
 500 68 500 68 436 24 c 128,-1,8
 372 -20 372 -20 270.5 -20 c 128,-1,9
 169 -20 169 -20 104.5 22.5 c 128,-1,10
 40 65 40 65 40 150 c 0,11,12
 40 218 40 218 83.5 260.5 c 128,-1,13
 127 303 127 303 200 335 c 1,14,15
 136 372 136 372 100.5 411 c 128,-1,16
 65 450 65 450 65 510 c 0,17,18
 65 601 65 601 121.5 640.5 c 128,-1,19
 178 680 178 680 269.5 680 c 128,-1,20
 361 680 361 680 418 642 c 128,-1,21
 475 604 475 604 475 520 c 0,0,1
365.5 51.5 m 128,-1,23
 405 83 405 83 405 140.5 c 128,-1,24
 405 198 405 198 364 236.5 c 128,-1,25
 323 275 323 275 245 315 c 1,26,27
 193 289 193 289 164 252 c 128,-1,28
 135 215 135 215 135 150.5 c 128,-1,29
 135 86 135 86 174 53 c 128,-1,30
 213 20 213 20 269.5 20 c 128,-1,22
 326 20 326 20 365.5 51.5 c 128,-1,23
160 530 m 0,31,32
 160 448 160 448 305 380 c 1,33,34
 341 407 341 407 360.5 438 c 128,-1,35
 380 469 380 469 380 527 c 128,-1,36
 380 585 380 585 347.5 612.5 c 128,-1,37
 315 640 315 640 270 640 c 128,-1,38
 225 640 225 640 192.5 614 c 128,-1,39
 160 588 160 588 160 530 c 0,31,32
EndSplineSet
EndChar

StartChar: nine
Encoding: 57 57 74
Width: 520
Flags: HMW
HStem: -20 40<202.5 285 190 327.5> 230 40<212.5 270> 640 40<217.5 310>
VStem: 40 95<397.5 502.5 397.5 512.5> 390 90<210 275 320 435>
LayerCount: 2
Fore
SplineSet
390 320 m 1,0,1
 390 493 390 493 361 566.5 c 128,-1,2
 332 640 332 640 265 640 c 128,-1,3
 198 640 198 640 166.5 587 c 128,-1,4
 135 534 135 534 135 449 c 128,-1,5
 135 364 135 364 163.5 317 c 128,-1,6
 192 270 192 270 262 270 c 128,-1,7
 332 270 332 270 390 320 c 1,0,1
430 596 m 128,-1,9
 480 512 480 512 480 328.5 c 128,-1,10
 480 145 480 145 425.5 62.5 c 128,-1,11
 371 -20 371 -20 235 -20 c 0,12,13
 170 -20 170 -20 90 10 c 1,14,-1
 95 30 l 1,15,16
 155 20 155 20 215 20 c 0,17,18
 314 20 314 20 352 84.5 c 128,-1,19
 390 149 390 149 390 275 c 1,20,21
 327 230 327 230 230 230 c 0,22,23
 40 230 40 230 40 455 c 0,24,25
 40 551 40 551 95 615.5 c 128,-1,26
 150 680 150 680 265 680 c 128,-1,8
 380 680 380 680 430 596 c 128,-1,9
EndSplineSet
EndChar

StartChar: colon
Encoding: 58 58 75
Width: 209
Flags: HMW
HStem: -14 109<89.5 119.5> 353 108<90.5 120.5>
VStem: 51 108<391.5 421.5>
LayerCount: 2
Fore
SplineSet
67 445 m 128,-1,1
 83 461 83 461 105.5 461 c 128,-1,2
 128 461 128 461 143.5 445 c 128,-1,3
 159 429 159 429 159 406.5 c 128,-1,4
 159 384 159 384 143.5 368.5 c 128,-1,5
 128 353 128 353 105.5 353 c 128,-1,6
 83 353 83 353 67 368.5 c 128,-1,7
 51 384 51 384 51 406.5 c 128,-1,0
 51 429 51 429 67 445 c 128,-1,1
66 79 m 128,-1,9
 82 95 82 95 104.5 95 c 128,-1,10
 127 95 127 95 143 79 c 128,-1,11
 159 63 159 63 159 40.5 c 128,-1,12
 159 18 159 18 143 2 c 128,-1,13
 127 -14 127 -14 104.5 -14 c 128,-1,14
 82 -14 82 -14 66 2 c 128,-1,15
 50 18 50 18 50 40.5 c 128,-1,8
 50 63 50 63 66 79 c 128,-1,9
EndSplineSet
EndChar

StartChar: semicolon
Encoding: 59 59 76
Width: 225
Flags: HMW
HStem: -154 21G<65 65> -15 115<95 110> 354 107<99.5 129.5>
VStem: 60 115
LayerCount: 2
Fore
SplineSet
76 445.5 m 128,-1,1
 92 461 92 461 114.5 461 c 128,-1,2
 137 461 137 461 153 445.5 c 128,-1,3
 169 430 169 430 169 407.5 c 128,-1,4
 169 385 169 385 153 369.5 c 128,-1,5
 137 354 137 354 114.5 354 c 128,-1,6
 92 354 92 354 76 369.5 c 128,-1,7
 60 385 60 385 60 407.5 c 128,-1,0
 60 430 60 430 76 445.5 c 128,-1,1
65 -154 m 1,8,-1
 54 -140 l 1,9,10
 96 -107 96 -107 115.5 -76.5 c 128,-1,11
 135 -46 135 -46 135 0 c 1,12,13
 120 -15 120 -15 99 -15 c 128,-1,14
 78 -15 78 -15 64 1 c 128,-1,15
 50 17 50 17 50 40 c 128,-1,16
 50 63 50 63 68 81.5 c 128,-1,17
 86 100 86 100 114 100 c 128,-1,18
 142 100 142 100 158.5 78.5 c 128,-1,19
 175 57 175 57 175 12 c 0,20,21
 175 -79.4237 175 -79.4237 65 -154 c 1,8,-1
EndSplineSet
EndChar

StartChar: less
Encoding: 60 60 77
Width: 580
Flags: HMW
HStem: 95 21G<540 540> 555 20G<540 540>
LayerCount: 2
Fore
SplineSet
540 535 m 1,0,-1
 80 335 l 1,1,-1
 540 135 l 1,2,-1
 540 95 l 1,3,-1
 20 320 l 1,4,-1
 20 350 l 1,5,-1
 540 575 l 1,6,-1
 540 535 l 1,0,-1
EndSplineSet
EndChar

StartChar: equal
Encoding: 61 61 78
Width: 605
Flags: HMW
HStem: 230 40<40 565 40 565> 390 40<40 565 40 565>
LayerCount: 2
Fore
SplineSet
40 390 m 1,0,-1
 40 430 l 1,1,-1
 565 430 l 1,2,-1
 565 390 l 1,3,-1
 40 390 l 1,0,-1
40 230 m 1,4,-1
 40 270 l 1,5,-1
 565 270 l 1,6,-1
 565 230 l 1,7,-1
 40 230 l 1,4,-1
EndSplineSet
EndChar

StartChar: greater
Encoding: 62 62 79
Width: 580
Flags: HMW
HStem: 95 21G<40 40> 555 20G<40 40>
LayerCount: 2
Fore
SplineSet
500 335 m 1,0,-1
 40 535 l 1,1,-1
 40 575 l 1,2,-1
 560 350 l 1,3,-1
 560 320 l 1,4,-1
 40 95 l 1,5,-1
 40 135 l 1,6,-1
 500 335 l 1,0,-1
EndSplineSet
EndChar

StartChar: question
Encoding: 63 63 80
Width: 466
Flags: HMW
HStem: -13 109<190.5 220.5> 640 40<196 241>
VStem: 152 109<26.5 56.5> 336 100<415 540>
LayerCount: 2
Fore
SplineSet
206 96 m 128,-1,1
 229 96 229 96 245 80 c 128,-1,2
 261 64 261 64 261 41.5 c 128,-1,3
 261 19 261 19 244.5 3 c 128,-1,4
 228 -13 228 -13 205.5 -13 c 128,-1,5
 183 -13 183 -13 167.5 3 c 128,-1,6
 152 19 152 19 152 41.5 c 128,-1,7
 152 64 152 64 167.5 80 c 128,-1,0
 183 96 183 96 206 96 c 128,-1,1
226 156 m 1,8,-1
 186 156 l 1,9,10
 187.849 239.184 187.849 239.184 241 302 c 2,11,-1
 284.5 354 l 2,12,13
 336 416.279 336 416.279 336 489.14 c 128,-1,14
 336 562 336 562 299 601 c 128,-1,15
 262 640 262 640 203.5 640 c 128,-1,16
 145 640 145 640 100 595.5 c 128,-1,17
 55 551 55 551 40 470 c 1,18,-1
 20 470 l 1,19,20
 20 570 20 570 46.5 602 c 128,-1,21
 73 634 73 634 125.5 657 c 128,-1,22
 178 680 178 680 236 680 c 0,23,24
 380.457 680 380.457 680 422.5 571 c 0,25,26
 436 536 436 536 436 493 c 128,-1,27
 436 450 436 450 421 415.5 c 128,-1,28
 406 381 406 381 383 357.5 c 128,-1,29
 360 334 360 334 333 309.5 c 2,30,-1
 282.5 264.5 l 2,31,32
 227.965 216.927 227.965 216.927 226 156 c 1,8,-1
EndSplineSet
EndChar

StartChar: at
Encoding: 64 64 81
Width: 860
Flags: HMW
HStem: -180 40<325 495 325 502.5> 5 45<395 412.5> 245 40<435 515 485 515> 455 40<400 440> 640 40<325 535>
VStem: 40 40<120 380 120 390> 230 95<112.5 175 112.5 200> 515 90<60 105 110 245 245 245> 780 40<200 390>
LayerCount: 2
Fore
SplineSet
515 110 m 1,0,-1
 515 245 l 1,1,-1
 485 245 l 2,2,3
 411 245 411 245 368 217.5 c 128,-1,4
 325 190 325 190 325 144.5 c 128,-1,5
 325 99 325 99 352.5 74.5 c 128,-1,6
 380 50 380 50 420 50 c 0,7,8
 475 50 475 50 515 110 c 1,0,-1
760 -85 m 1,9,10
 622 -180 622 -180 437.5 -180 c 128,-1,11
 253 -180 253 -180 146.5 -67.5 c 128,-1,12
 40 45 40 45 40 250 c 128,-1,13
 40 455 40 455 146.5 567.5 c 128,-1,14
 253 680 253 680 429.5 680 c 128,-1,15
 606 680 606 680 713 571 c 128,-1,16
 820 462 820 462 820 270 c 0,17,18
 820 146 820 146 771.5 75.5 c 128,-1,19
 723 5 723 5 625 5 c 0,20,21
 544 5 544 5 520 60 c 1,22,-1
 515 60 l 1,23,24
 471 5 471 5 375 5 c 0,25,26
 327.207 5 327.207 5 282 33.5 c 0,27,28
 259 48 259 48 244.5 77 c 128,-1,29
 230 106 230 106 230 145 c 0,30,31
 230 285 230 285 485 285 c 2,32,-1
 515 285 l 1,33,34
 515 382 515 382 488 418.5 c 128,-1,35
 461 455 461 455 410 455 c 0,36,37
 320 455 320 455 300 370 c 1,38,-1
 255 370 l 1,39,40
 255 410.182 255 410.182 261.5 429.091 c 128,-1,41
 268 448 268 448 280 460 c 0,42,43
 315 495 315 495 430 495 c 0,44,45
 503.81 495 503.81 495 550.5 458 c 0,46,47
 605 414.811 605 414.811 605 285 c 2,48,-1
 605 105 l 2,49,50
 605 80 605 80 617.5 62.5 c 128,-1,51
 630 45 630 45 655 45 c 0,52,53
 706 45 706 45 743 107 c 128,-1,54
 780 169 780 169 780 270 c 0,55,56
 780 447 780 447 685.5 543.5 c 128,-1,57
 591 640 591 640 429.5 640 c 128,-1,58
 268 640 268 640 174 540 c 128,-1,59
 80 440 80 440 80 250 c 128,-1,60
 80 60 80 60 174 -40 c 128,-1,61
 268 -140 268 -140 430 -140 c 0,62,63
 616 -140 616 -140 740 -55 c 1,64,-1
 760 -85 l 1,9,10
EndSplineSet
EndChar

StartChar: A
Encoding: 65 65 82
Width: 620
Flags: HMW
HStem: -5 21G<597.5 627.5> 0 21G<20 65 20 20 660 660> 190 40<160 405 160 425 145 405> 640 20G<300 330 330 330>
LayerCount: 2
Fore
SplineSet
660 20 m 1,0,-1
 660 0 l 1,1,2
 643 -5 643 -5 620 -5 c 0,3,4
 500 -5 500 -5 450 125 c 2,5,-1
 425 190 l 1,6,-1
 145 190 l 1,7,-1
 65 0 l 1,8,-1
 20 0 l 1,9,-1
 300 660 l 1,10,-1
 330 660 l 1,11,-1
 550 125 l 2,12,13
 574 68 574 68 596.5 46 c 128,-1,14
 619 24 619 24 660 20 c 1,0,-1
285 520 m 1,15,-1
 160 230 l 1,16,-1
 405 230 l 1,17,-1
 285 520 l 1,15,-1
EndSplineSet
EndChar

StartChar: B
Encoding: 66 66 83
Width: 605
Flags: HMW
HStem: 0 35<270 300> 315 40<190 285 190 285> 625 35<252.5 270 270 305> 640 20<10 30 10 270>
VStem: 100 90<49 315 355 540 540 570> 445 95<455 537.5> 475 100<130 220>
LayerCount: 2
Fore
SplineSet
285 315 m 2,0,-1
 190 315 l 1,1,-1
 190 49 l 1,2,3
 237 35 237 35 285 35 c 0,4,5
 375 35 375 35 425 71.5 c 128,-1,6
 475 108 475 108 475 175.5 c 0,7,8
 475 243 475 243 426.5 279 c 128,-1,9
 378 315 378 315 285 315 c 2,0,-1
190 355 m 1,10,-1
 285 355 l 2,11,12
 350 355 350 355 397.5 390.5 c 128,-1,13
 445 426 445 426 445 491 c 0,14,15
 445 556 445 556 389.5 590.5 c 128,-1,16
 334 625 334 625 265 625 c 0,17,18
 230 625 230 625 190 615 c 1,19,-1
 190 355 l 1,10,-1
10 660 m 1,20,-1
 270 660 l 2,21,22
 540 660 540 660 540 485 c 0,23,24
 540 438 540 438 507.5 400 c 128,-1,25
 475 362 475 362 410 340 c 1,26,27
 502 326 502 326 538.5 285.5 c 128,-1,28
 575 245 575 245 575 180 c 0,29,30
 575 0 575 0 300 0 c 2,31,-1
 100 0 l 1,32,-1
 100 540 l 2,33,34
 100 591 100 591 86 615.5 c 128,-1,35
 72 640 72 640 30 640 c 2,36,-1
 10 640 l 1,37,-1
 10 660 l 1,20,-1
EndSplineSet
EndChar

StartChar: C
Encoding: 67 67 84
Width: 635
Flags: HMW
HStem: -20 40<285 400> 640 40<305 395 255 425>
VStem: 30 100<245 420>
LayerCount: 2
Fore
SplineSet
595 450 m 1,0,-1
 575 450 l 1,1,2
 538 640 538 640 370 640 c 0,3,4
 266.74 640 266.74 640 202 570.5 c 0,5,6
 130 493.206 130 493.206 130 320 c 0,7,8
 130 200 130 200 186 114 c 0,9,10
 214 71 214 71 261.5 45.5 c 128,-1,11
 309 20 309 20 370 20 c 0,12,13
 509 20 509 20 595 160 c 1,14,-1
 615 145 l 1,15,16
 568 55 568 55 501.5 17.5 c 128,-1,17
 435 -20 435 -20 340 -20 c 0,18,19
 200 -20 200 -20 115 77 c 128,-1,20
 30 174 30 174 30 322 c 128,-1,21
 30 470 30 470 121 575 c 128,-1,22
 212 680 212 680 340 680 c 0,23,24
 419 680 419 680 480.5 657.5 c 128,-1,25
 542 635 542 635 570 600 c 1,26,27
 590.924 575.588 590.924 575.588 594 511 c 0,28,29
 595 490 595 490 595 450 c 1,0,-1
EndSplineSet
EndChar

StartChar: D
Encoding: 68 68 85
Width: 695
Flags: HMW
HStem: 0 35<281.5 298> 625 35<278.5 369.5>
VStem: 100 93<48 540 540 570> 556 109<239.5 418.5>
LayerCount: 2
Fore
SplineSet
193 609 m 1,0,-1
 193 48 l 1,1,2
 252 35 252 35 295 35 c 0,3,4
 408 35 408 35 482 116 c 128,-1,5
 556 197 556 197 556 329.5 c 0,6,7
 556 462 556 462 482.5 543.5 c 128,-1,8
 409 625 409 625 293 625 c 0,9,10
 245 625 245 625 193 609 c 1,0,-1
10 660 m 1,11,-1
 272 660 l 2,12,13
 466 660 466 660 565.5 574 c 128,-1,14
 665 488 665 488 665 335.5 c 0,15,16
 665 183 665 183 570 91.5 c 128,-1,17
 475 0 475 0 298 0 c 2,18,-1
 100 0 l 1,19,-1
 100 540 l 2,20,21
 100 591 100 591 86 615.5 c 128,-1,22
 72 640 72 640 30 640 c 2,23,-1
 10 640 l 1,24,-1
 10 660 l 1,11,-1
EndSplineSet
EndChar

StartChar: E
Encoding: 69 69 86
Width: 585
Flags: HMW
HStem: 0 40<190 365 365 410> 320 40<190 460 190 460> 640 20<10 30 10 436>
VStem: 100 90<40 320 360 540 540 570> 501 20<505 545>
LayerCount: 2
Fore
SplineSet
10 660 m 1,0,-1
 436 660 l 2,1,2
 521 660 521 660 521 580 c 2,3,-1
 521 505 l 1,4,-1
 501 505 l 1,5,6
 501 620 501 620 376 620 c 2,7,-1
 190 620 l 1,8,-1
 190 360 l 1,9,-1
 460 360 l 1,10,-1
 460 320 l 1,11,-1
 190 320 l 1,12,-1
 190 40 l 1,13,-1
 365 40 l 2,14,15
 433 40 433 40 473 65.5 c 128,-1,16
 513 91 513 91 535 150 c 1,17,-1
 555 145 l 1,18,-1
 520 50 l 2,19,20
 502 0 502 0 445 0 c 2,21,-1
 100 0 l 1,22,-1
 100 540 l 2,23,24
 100 591 100 591 86 615.5 c 128,-1,25
 72 640 72 640 30 640 c 2,26,-1
 10 640 l 1,27,-1
 10 660 l 1,0,-1
EndSplineSet
EndChar

StartChar: F
Encoding: 70 70 87
Width: 524
Flags: HMW
HStem: 0 21G<100 190 100 100> 315 40<190 416 190 416> 640 20<10 30 10 409>
VStem: 100 90<0 315 355 540 540 570> 474 20<505 545>
LayerCount: 2
Fore
SplineSet
10 660 m 1,0,-1
 409 660 l 2,1,2
 494 660 494 660 494 580 c 2,3,-1
 494 505 l 1,4,-1
 474 505 l 1,5,6
 474 620 474 620 349 620 c 2,7,-1
 190 620 l 1,8,-1
 190 355 l 1,9,-1
 416 355 l 1,10,-1
 416 315 l 1,11,-1
 190 315 l 1,12,-1
 190 0 l 1,13,-1
 100 0 l 1,14,-1
 100 540 l 2,15,16
 100 591 100 591 86 615.5 c 128,-1,17
 72 640 72 640 30 640 c 2,18,-1
 10 640 l 1,19,-1
 10 660 l 1,0,-1
EndSplineSet
EndChar

StartChar: G
Encoding: 71 71 88
Width: 685
Flags: HMW
HStem: -20 40<305 405.5 305 418.5> 326 20<657.5 690> 640 40<285 400 245 430>
VStem: 30 100<240 415 220 435> 525 90<55 229 229 231 43 256.5>
LayerCount: 2
Fore
SplineSet
370 640 m 0,0,1
 309 640 309 640 261.5 614.5 c 128,-1,2
 214 589 214 589 186 546 c 0,3,4
 130 460 130 460 130 340 c 0,5,6
 130 166.794 130 166.794 202 89.5 c 0,7,8
 266.74 20 266.74 20 363.37 20 c 128,-1,9
 460 20 460 20 525 55 c 1,10,-1
 525 229 l 2,11,12
 525 254 525 254 530 271.5 c 128,-1,13
 535 289 535 289 550.5 307.5 c 0,14,15
 582.757 346 582.757 346 690 346 c 1,16,-1
 690 326 l 1,17,18
 645 326 645 326 630 303 c 128,-1,19
 615 280 615 280 615 231 c 2,20,-1
 615 43 l 1,21,22
 512 -20 512 -20 367 -20 c 128,-1,23
 222 -20 222 -20 126 84 c 128,-1,24
 30 188 30 188 30 337 c 128,-1,25
 30 486 30 486 115 583 c 128,-1,26
 200 680 200 680 340 680 c 0,27,28
 426 680 426 680 488.5 657.5 c 128,-1,29
 551 635 551 635 578 602.5 c 128,-1,30
 605 570 605 570 605 465 c 1,31,-1
 585 465 l 1,32,33
 547 640 547 640 370 640 c 0,0,1
EndSplineSet
EndChar

StartChar: H
Encoding: 72 72 89
Width: 680
Flags: HMW
HStem: 0 20<650 670 650 670> 320 40<190 490 190 490> 640 20<10 30 10 100>
VStem: 100 90<0 320 0 360 360 540> 490 90<120 320 320 320 360 660>
LayerCount: 2
Fore
SplineSet
580 660 m 1,0,-1
 580 120 l 2,1,2
 580 69 580 69 594 44.5 c 128,-1,3
 608 20 608 20 650 20 c 2,4,-1
 670 20 l 1,5,-1
 670 0 l 1,6,-1
 580 0 l 2,7,8
 526 0 526 0 508 23 c 128,-1,9
 490 46 490 46 490 120 c 2,10,-1
 490 320 l 1,11,-1
 190 320 l 1,12,-1
 190 0 l 1,13,-1
 100 0 l 1,14,-1
 100 540 l 2,15,16
 100 591 100 591 86 615.5 c 128,-1,17
 72 640 72 640 30 640 c 2,18,-1
 10 640 l 1,19,-1
 10 660 l 1,20,-1
 100 660 l 2,21,22
 154 660 154 660 172 637 c 128,-1,23
 190 614 190 614 190 540 c 2,24,-1
 190 360 l 1,25,-1
 490 360 l 1,26,-1
 490 660 l 1,27,-1
 580 660 l 1,0,-1
EndSplineSet
EndChar

StartChar: I
Encoding: 73 73 90
Width: 290
Flags: HMW
HStem: 0 20<260 280 260 280> 640 20G<100 190 190 190>
VStem: 100 90<120 660>
LayerCount: 2
Fore
SplineSet
100 120 m 2,0,-1
 100 660 l 1,1,-1
 190 660 l 1,2,-1
 190 120 l 2,3,4
 190 69 190 69 204 44.5 c 128,-1,5
 218 20 218 20 260 20 c 2,6,-1
 280 20 l 1,7,-1
 280 0 l 1,8,-1
 190 0 l 2,9,10
 136 0 136 0 118 23 c 128,-1,11
 100 46 100 46 100 120 c 2,0,-1
EndSplineSet
EndChar

StartChar: J
Encoding: 74 74 91
Width: 260
Flags: HMW
HStem: -137 20<5 37.5 5 77.5> 640 20G<100 190 190 190>
VStem: 100 90<78 660>
LayerCount: 2
Fore
SplineSet
5 -137 m 1,0,-1
 5 -117 l 1,1,2
 100 -117 100 -117 100 78 c 2,3,-1
 100 660 l 1,4,-1
 190 660 l 1,5,-1
 190 78 l 2,6,7
 190 -38 190 -38 150.5 -87.5 c 128,-1,8
 111 -137 111 -137 5 -137 c 1,0,-1
EndSplineSet
EndChar

StartChar: K
Encoding: 75 75 92
Width: 650
Flags: HMW
HStem: -10 21G<587.5 630.5> 0 21G<100 190 100 100 680 680> 640 20<10 30 10 100>
VStem: 100 90<0 330 345 540>
LayerCount: 2
Fore
SplineSet
10 660 m 1,0,-1
 100 660 l 2,1,2
 154 660 154 660 172 637 c 128,-1,3
 190 614 190 614 190 540 c 2,4,-1
 190 345 l 1,5,-1
 424 579.5 l 2,6,7
 475.366 632.293 475.366 632.293 502 644.5 c 0,8,9
 535.818 660 535.818 660 570 660 c 2,10,-1
 620 660 l 1,11,-1
 620 635 l 1,12,13
 578 635 578 635 547 620.5 c 128,-1,14
 516 606 516 606 475 565 c 2,15,-1
 280 370 l 1,16,-1
 510 130 l 2,17,18
 607 28 607 28 680 19 c 1,19,-1
 680 0 l 1,20,21
 650 -10 650 -10 615 -10 c 0,22,23
 514 -10 514 -10 400 110 c 2,24,-1
 190 330 l 1,25,-1
 190 0 l 1,26,-1
 100 0 l 1,27,-1
 100 540 l 2,28,29
 100 591 100 591 86 615.5 c 128,-1,30
 72 640 72 640 30 640 c 2,31,-1
 10 640 l 1,32,-1
 10 660 l 1,0,-1
EndSplineSet
EndChar

StartChar: L
Encoding: 76 76 93
Width: 535
Flags: HMW
HStem: 0 40<190 545 190 545> 640 20<10 30 10 100>
VStem: 100 90<40 540 40 540 40 570>
LayerCount: 2
Fore
SplineSet
190 540 m 2,0,-1
 190 40 l 1,1,-1
 545 40 l 1,2,-1
 545 0 l 1,3,-1
 100 0 l 1,4,-1
 100 540 l 2,5,6
 100 591 100 591 86 615.5 c 128,-1,7
 72 640 72 640 30 640 c 2,8,-1
 10 640 l 1,9,-1
 10 660 l 1,10,-1
 100 660 l 2,11,12
 154 660 154 660 172 637 c 128,-1,13
 190 614 190 614 190 540 c 2,0,-1
EndSplineSet
EndChar

StartChar: M
Encoding: 77 77 94
Width: 860
Flags: HMW
HStem: -45 20<822.5 855 822.5 855> 0 21G<100 140 100 100 400 420 400 400> 640 20G<100 195 195 195 670 760 760 760>
VStem: 100 40<0 565 0 660> 670 90<170 555 555 555>
LayerCount: 2
Fore
SplineSet
855 -25 m 1,0,-1
 855 -45 l 1,1,2
 749 -45 749 -45 709.5 4.5 c 128,-1,3
 670 54 670 54 670 170 c 2,4,-1
 670 555 l 1,5,-1
 420 0 l 1,6,-1
 400 0 l 1,7,-1
 140 565 l 1,8,-1
 140 0 l 1,9,-1
 100 0 l 1,10,-1
 100 660 l 1,11,-1
 195 660 l 1,12,-1
 435 140 l 1,13,-1
 670 660 l 1,14,-1
 760 660 l 1,15,-1
 760 170 l 2,16,17
 760 -25 760 -25 855 -25 c 1,0,-1
EndSplineSet
EndChar

StartChar: N
Encoding: 78 78 95
Width: 660
Flags: HMW
HStem: 0 21G<100 100 100 140> 640 20<0 10 0 65>
VStem: 100 40<0 525 0 540 0 570> 550 40<165 660 -10 660>
LayerCount: 2
Fore
SplineSet
100 0 m 1,0,-1
 100 540 l 2,1,2
 100 589 100 589 80 614.5 c 128,-1,3
 60 640 60 640 10 640 c 2,4,-1
 0 640 l 1,5,-1
 0 660 l 1,6,-1
 65 660 l 2,7,8
 151 660 151 660 200 600 c 2,9,-1
 550 165 l 1,10,-1
 550 660 l 1,11,-1
 590 660 l 1,12,-1
 590 -10 l 1,13,-1
 570 -10 l 1,14,-1
 140 525 l 1,15,-1
 140 0 l 1,16,-1
 100 0 l 1,0,-1
EndSplineSet
EndChar

StartChar: O
Encoding: 79 79 96
Width: 680
Flags: HMW
HStem: -20 40<275 405 275 435> 640 40<275 405>
VStem: 30 100<235 425 235 428> 550 100<235 425>
LayerCount: 2
Fore
SplineSet
550 330 m 128,-1,1
 550 473 550 473 493.5 556.5 c 128,-1,2
 437 640 437 640 340 640 c 128,-1,3
 243 640 243 640 186.5 556.5 c 128,-1,4
 130 473 130 473 130 330 c 128,-1,5
 130 187 130 187 186.5 103.5 c 128,-1,6
 243 20 243 20 340 20 c 128,-1,7
 437 20 437 20 493.5 103.5 c 128,-1,0
 550 187 550 187 550 330 c 128,-1,1
30 330 m 128,-1,9
 30 480 30 480 115 580 c 128,-1,10
 200 680 200 680 340 680 c 128,-1,11
 480 680 480 680 565 580 c 128,-1,12
 650 480 650 480 650 330 c 128,-1,13
 650 180 650 180 565 80 c 128,-1,14
 480 -20 480 -20 340 -20 c 128,-1,15
 200 -20 200 -20 115 80 c 128,-1,8
 30 180 30 180 30 330 c 128,-1,9
EndSplineSet
EndChar

StartChar: P
Encoding: 80 80 97
Width: 550
Flags: HMW
HStem: 0 21G<100 190 100 100> 270 35<252.5 292.5 252.5 300> 625 35<252.5 270 270 292.5>
VStem: 100 90<0 270 315 540 540 570> 420 100<405 525>
LayerCount: 2
Fore
SplineSet
265 305 m 0,0,1
 318 305 318 305 369 345 c 128,-1,2
 420 385 420 385 420 465 c 128,-1,3
 420 545 420 545 369 585 c 128,-1,4
 318 625 318 625 265 625 c 0,5,6
 230 625 230 625 190 615 c 1,7,-1
 190 315 l 1,8,9
 230 305 230 305 265 305 c 0,0,1
190 270 m 1,10,-1
 190 0 l 1,11,-1
 100 0 l 1,12,-1
 100 540 l 2,13,14
 100 591 100 591 86 615.5 c 128,-1,15
 72 640 72 640 30 640 c 2,16,-1
 10 640 l 1,17,-1
 10 660 l 1,18,-1
 270 660 l 2,19,20
 335.417 660 335.417 660 383.208 644.5 c 128,-1,21
 431 629 431 629 457 608.5 c 128,-1,22
 483 588 483 588 501.5 549.5 c 128,-1,23
 520 511 520 511 520 461.5 c 128,-1,24
 520 412 520 412 502 375.5 c 128,-1,25
 484 339 484 339 459 319.5 c 128,-1,26
 434 300 434 300 401 288 c 0,27,28
 351.5 270 351.5 270 300 270 c 2,29,-1
 190 270 l 1,10,-1
EndSplineSet
EndChar

StartChar: Q
Encoding: 81 81 98
Width: 680
Flags: HMW
HStem: -205 20<617.5 660 617.5 660> 640 40<275 405>
VStem: 30 100<248.5 425 235 428> 550 100<247 425>
LayerCount: 2
Fore
SplineSet
30 330 m 0,0,1
 30 480 30 480 115 580 c 128,-1,2
 200 680 200 680 340 680 c 128,-1,3
 480 680 480 680 565 580 c 128,-1,4
 650 480 650 480 650 330 c 0,5,6
 650 204 650 204 588.5 111 c 128,-1,7
 527 18 527 18 422 -9 c 1,8,9
 444 -82 444 -82 518.5 -133.5 c 128,-1,10
 593 -185 593 -185 660 -185 c 1,11,-1
 660 -205 l 1,12,13
 409 -205 409 -205 250 -7 c 1,14,15
 148 23 148 23 89 115 c 128,-1,16
 30 207 30 207 30 330 c 0,0,1
550 330 m 128,-1,18
 550 473 550 473 493.5 556.5 c 128,-1,19
 437 640 437 640 340 640 c 128,-1,20
 243 640 243 640 186.5 556.5 c 128,-1,21
 130 473 130 473 130 330 c 128,-1,22
 130 187 130 187 186.5 103.5 c 128,-1,23
 243 20 243 20 340 20 c 128,-1,24
 437 20 437 20 493.5 103.5 c 128,-1,17
 550 187 550 187 550 330 c 128,-1,18
EndSplineSet
EndChar

StartChar: R
Encoding: 82 82 99
Width: 580
Flags: HMW
HStem: -10 21G<505 552.5> 0 21G<100 190 100 100 600 600> 305 35<252.5 260> 625 35<252.5 270 270 292.5>
VStem: 100 90<0 305 350 540 540 570> 420 100<430 532.5>
LayerCount: 2
Fore
SplineSet
190 350 m 1,0,1
 230 340 230 340 273.5 340 c 128,-1,2
 317 340 317 340 368.5 376.5 c 128,-1,3
 420 413 420 413 420 480 c 0,4,5
 420 529 420 529 392 563.5 c 0,6,7
 342.087 625 342.087 625 265 625 c 0,8,9
 230 625 230 625 190 615 c 1,10,-1
 190 350 l 1,0,1
360 135 m 2,11,-1
 260 305 l 1,12,-1
 190 305 l 1,13,-1
 190 0 l 1,14,-1
 100 0 l 1,15,-1
 100 540 l 2,16,17
 100 591 100 591 86 615.5 c 128,-1,18
 72 640 72 640 30 640 c 2,19,-1
 10 640 l 1,20,-1
 10 660 l 1,21,-1
 270 660 l 2,22,23
 390.243 660 390.243 660 457 612.5 c 0,24,25
 483 594 483 594 501.5 560 c 128,-1,26
 520 526 520 526 520 480 c 0,27,28
 520 344 520 344 360 310 c 1,29,-1
 465 135 l 2,30,31
 502 73 502 73 531.5 48.5 c 128,-1,32
 561 24 561 24 600 20 c 1,33,-1
 600 0 l 1,34,35
 580 -10 580 -10 533.5 -10 c 128,-1,36
 487 -10 487 -10 447.5 21.5 c 128,-1,37
 408 53 408 53 360 135 c 2,11,-1
EndSplineSet
EndChar

StartChar: S
Encoding: 83 83 100
Width: 526
Flags: HMW
HStem: -17 40<218.5 298.5 208 337.5> 638 40<209.5 288.5 180.5 295>
VStem: 45 78<508 559.5> 395 86<112 154>
LayerCount: 2
Fore
SplineSet
481 168 m 0,0,1
 481 84 481 84 425 33.5 c 128,-1,2
 369 -17 369 -17 277.5 -17 c 0,3,4
 186 -17 186 -17 115.5 17 c 128,-1,5
 45 51 45 51 45 105 c 2,6,-1
 45 212 l 1,7,-1
 63 212 l 1,8,9
 79 113 79 113 128.5 68 c 128,-1,10
 178 23 178 23 264 23 c 0,11,12
 319 23 319 23 357 50.5 c 128,-1,13
 395 78 395 78 395 122.5 c 0,14,15
 395 167 395 167 369 198 c 128,-1,16
 343 229 343 229 285 263 c 2,17,-1
 162 336 l 2,18,19
 98 373 98 373 71.5 412.5 c 128,-1,20
 45 452 45 452 45 508 c 0,21,22
 45 585 45 585 98 631.5 c 128,-1,23
 151 678 151 678 235.5 678 c 0,24,25
 320 678 320 678 387.5 644.5 c 128,-1,26
 455 611 455 611 455 558 c 2,27,-1
 455 451 l 1,28,-1
 437 451 l 1,29,30
 421 550 421 550 373 594 c 128,-1,31
 325 638 325 638 239 638 c 0,32,33
 193 638 193 638 158 610 c 128,-1,34
 123 582 123 582 123 539 c 0,35,36
 123 496 123 496 148.5 469 c 128,-1,37
 174 442 174 442 234 406 c 2,38,-1
 357 333 l 2,39,40
 424 294 424 294 452.5 257.5 c 128,-1,41
 481 221 481 221 481 168 c 0,0,1
EndSplineSet
EndChar

StartChar: T
Encoding: 84 84 101
Width: 540
Flags: HMW
HStem: 0 21G<235 325 235 235> 620 40<105 145 145 235 325 550 325 325>
VStem: 0 20<505 545 505 580> 235 90<0 620 0 620>
LayerCount: 2
Fore
SplineSet
85 660 m 2,0,-1
 550 660 l 1,1,-1
 550 620 l 1,2,-1
 325 620 l 1,3,-1
 325 0 l 1,4,-1
 235 0 l 1,5,-1
 235 620 l 1,6,-1
 145 620 l 2,7,8
 20 620 20 620 20 505 c 1,9,-1
 0 505 l 1,10,-1
 0 580 l 2,11,12
 0 660 0 660 85 660 c 2,0,-1
EndSplineSet
EndChar

StartChar: U
Encoding: 85 85 102
Width: 680
Flags: HMW
HStem: -10 40<301 443.5 301 457.5> 640 20<10 30 10 100>
VStem: 100 90<285 540> 570 40<285 660>
LayerCount: 2
Fore
SplineSet
100 285 m 2,0,-1
 100 540 l 2,1,2
 100 591 100 591 86 615.5 c 128,-1,3
 72 640 72 640 30 640 c 2,4,-1
 10 640 l 1,5,-1
 10 660 l 1,6,-1
 100 660 l 2,7,8
 154 660 154 660 172 637 c 128,-1,9
 190 614 190 614 190 540 c 2,10,-1
 190 255 l 2,11,12
 190 144 190 144 231 87 c 128,-1,13
 272 30 272 30 375.5 30 c 0,14,15
 479 30 479 30 524.5 90 c 128,-1,16
 570 150 570 150 570 285 c 2,17,-1
 570 660 l 1,18,-1
 610 660 l 1,19,-1
 610 285 l 2,20,21
 610 130 610 130 556 60 c 128,-1,22
 502 -10 502 -10 358 -10 c 0,23,24
 214 -10 214 -10 157 61.5 c 128,-1,25
 100 133 100 133 100 285 c 2,0,-1
EndSplineSet
EndChar

StartChar: V
Encoding: 86 86 103
Width: 657
Flags: HMW
HStem: -10 21G<322 340 322 322> 648 20G<-20 -17.5> 650 20G<9.5 38.5>
LayerCount: 2
Fore
SplineSet
-20 668 m 1,0,-1
 14 670 l 1,1,2
 136 670 136 670 188 543 c 1,3,-1
 359 140 l 1,4,-1
 579 660 l 1,5,-1
 627 660 l 1,6,-1
 340 -10 l 1,7,-1
 322 -10 l 1,8,-1
 90 543 l 2,9,10
 66 600 66 600 43.5 622 c 128,-1,11
 21 644 21 644 -20 648 c 1,12,-1
 -20 668 l 1,0,-1
EndSplineSet
EndChar

StartChar: W
Encoding: 87 87 104
Width: 875
Flags: HMW
HStem: -10 21G<284 284 284 304 596 596 596 616> 640 20G<802 845 845 845> 648 20G<-20 -17.5> 650 20G<9.5 42 321.5 354>
LayerCount: 2
Fore
SplineSet
292 668 m 1,0,-1
 326 670 l 1,1,2
 361 670 361 670 387.5 663.5 c 128,-1,3
 414 657 414 657 446 627 c 128,-1,4
 478 597 478 597 497 543 c 2,5,-1
 631 157 l 1,6,-1
 802 660 l 1,7,-1
 845 660 l 1,8,-1
 616 -10 l 1,9,-1
 596 -10 l 1,10,-1
 448 411 l 1,11,-1
 304 -10 l 1,12,-1
 284 -10 l 1,13,-1
 90 543 l 2,14,15
 70 601 70 601 47.5 622.5 c 128,-1,16
 25 644 25 644 -20 648 c 1,17,-1
 -20 668 l 1,18,-1
 14 670 l 1,19,20
 49 670 49 670 75.5 663.5 c 128,-1,21
 102 657 102 657 134 627 c 128,-1,22
 166 597 166 597 185 543 c 2,23,-1
 319 157 l 1,24,-1
 426 474 l 1,25,-1
 402 543 l 2,26,27
 382 601 382 601 359.5 622.5 c 128,-1,28
 337 644 337 644 292 648 c 1,29,-1
 292 668 l 1,0,-1
EndSplineSet
EndChar

StartChar: X
Encoding: 88 88 105
Width: 640
Flags: HMW
HStem: 0 20<565 670> 640 20<-20 100>
LayerCount: 2
Fore
SplineSet
305 290 m 1,0,-1
 80 0 l 1,1,-1
 30 0 l 1,2,-1
 280 325 l 1,3,-1
 140 530 l 2,4,5
 116 565 116 565 102 582 c 128,-1,6
 88 599 88 599 55 618.5 c 128,-1,7
 22 638 22 638 -20 640 c 1,8,-1
 -20 660 l 1,9,-1
 100 660 l 2,10,11
 146.923 660 146.923 660 182.5 622.5 c 0,12,13
 211.45 591.985 211.45 591.985 240 550 c 2,14,-1
 340 400 l 1,15,-1
 540 660 l 1,16,-1
 590 660 l 1,17,-1
 365 365 l 1,18,-1
 525 130 l 2,19,20
 596 26 596 26 670 20 c 1,21,-1
 670 0 l 1,22,-1
 565 0 l 2,23,24
 535 0 535 0 506.5 19 c 128,-1,25
 478 38 478 38 462.5 57.5 c 128,-1,26
 447 77 447 77 425 110 c 2,27,-1
 305 290 l 1,0,-1
EndSplineSet
EndChar

StartChar: Y
Encoding: 89 89 106
Width: 629
Flags: HMW
HStem: 0 21G<285 375 285 285> 640 20G<-30 60>
VStem: 285 90<0 273 273 273>
LayerCount: 2
Fore
SplineSet
210 550 m 2,0,-1
 355 325 l 1,1,-1
 564 660 l 1,2,-1
 609 660 l 1,3,-1
 375 280 l 1,4,-1
 375 0 l 1,5,-1
 285 0 l 1,6,-1
 285 273 l 1,7,-1
 115 530 l 2,8,9
 79 584 79 584 48.5 610.5 c 128,-1,10
 18 637 18 637 -30 640 c 1,11,-1
 -30 660 l 1,12,-1
 60 660 l 2,13,14
 110 660 110 660 143.5 631.5 c 128,-1,15
 177 603 177 603 210 550 c 2,0,-1
EndSplineSet
EndChar

StartChar: Z
Encoding: 90 90 107
Width: 610
Flags: HMW
HStem: 0 40<155 565 155 565> 620 40<165 205 205 445>
VStem: 60 20<505 545 505 580>
LayerCount: 2
Fore
SplineSet
145 660 m 2,0,-1
 580 660 l 1,1,-1
 155 40 l 1,2,-1
 565 40 l 1,3,-1
 565 0 l 1,4,-1
 30 0 l 1,5,-1
 30 20 l 1,6,-1
 445 620 l 1,7,-1
 205 620 l 2,8,9
 80 620 80 620 80 505 c 1,10,-1
 60 505 l 1,11,-1
 60 580 l 2,12,13
 60 660 60 660 145 660 c 2,0,-1
EndSplineSet
EndChar

StartChar: bracketleft
Encoding: 91 91 108
Width: 265
Flags: HMW
HStem: -200 40<120 255 120 255> 640 40<120 255 120 120>
VStem: 40 80<-160 640 -160 680 -160 680> 40 215<-200 -160 640 680>
LayerCount: 2
Fore
SplineSet
255 -160 m 1,0,-1
 255 -200 l 1,1,-1
 40 -200 l 1,2,-1
 40 680 l 1,3,-1
 255 680 l 1,4,-1
 255 640 l 1,5,-1
 120 640 l 1,6,-1
 120 -160 l 1,7,-1
 255 -160 l 1,0,-1
EndSplineSet
EndChar

StartChar: backslash
Encoding: 92 92 109
Width: 395
Flags: HMW
HStem: -40 21G<350 350> 695 20G<45 45>
LayerCount: 2
Fore
SplineSet
385 -25 m 1,0,-1
 350 -40 l 1,1,-1
 10 700 l 1,2,-1
 45 715 l 1,3,-1
 385 -25 l 1,0,-1
EndSplineSet
EndChar

StartChar: bracketright
Encoding: 93 93 110
Width: 265
Flags: HMW
HStem: -200 40<10 145 10 145 10 225> 640 40<10 145 10 225>
VStem: 10 215<-200 -160 -160 -160 640 680 -200 680> 145 80<-160 640 640 640>
LayerCount: 2
Fore
SplineSet
10 -200 m 1,0,-1
 10 -160 l 1,1,-1
 145 -160 l 1,2,-1
 145 640 l 1,3,-1
 10 640 l 1,4,-1
 10 680 l 1,5,-1
 225 680 l 1,6,-1
 225 -200 l 1,7,-1
 10 -200 l 1,0,-1
EndSplineSet
EndChar

StartChar: asciicircum
Encoding: 94 94 111
Width: 490
Flags: HMW
HStem: 330 21G<20 20 20 65 425 425 425 470> 660 20G<235 255 255 255>
LayerCount: 2
Fore
SplineSet
20 330 m 1,0,-1
 235 680 l 1,1,-1
 255 680 l 1,2,-1
 470 330 l 1,3,-1
 425 330 l 1,4,-1
 245 620 l 1,5,-1
 65 330 l 1,6,-1
 20 330 l 1,0,-1
EndSplineSet
EndChar

StartChar: underscore
Encoding: 95 95 112
Width: 400
Flags: HMW
HStem: -210 40<0 400 0 400>
LayerCount: 2
Fore
SplineSet
400 -170 m 1,0,-1
 400 -210 l 1,1,-1
 0 -210 l 1,2,-1
 0 -170 l 1,3,-1
 400 -170 l 1,0,-1
EndSplineSet
EndChar

StartChar: grave
Encoding: 96 96 113
Width: 220
Flags: HMW
HStem: 480 21G<120 120 120 170> 660 20G<10 110 110 110>
LayerCount: 2
Fore
SplineSet
120 480 m 1,0,-1
 10 680 l 1,1,-1
 110 680 l 1,2,-1
 170 480 l 1,3,-1
 120 480 l 1,0,-1
EndSplineSet
EndChar

StartChar: a
Encoding: 97 97 114
Width: 485
Flags: HMW
HStem: -10 45<205 222.5> 0 21G<365 415 365 365> 230 40<245 325 295 325> 440 40<210 250>
VStem: 40 95<97.5 160 97.5 185> 325 90<45 45 95 230 230 230>
LayerCount: 2
Fore
SplineSet
325 95 m 1,0,-1
 325 230 l 1,1,-1
 295 230 l 2,2,3
 221 230 221 230 178 202.5 c 128,-1,4
 135 175 135 175 135 129.5 c 128,-1,5
 135 84 135 84 162.5 59.5 c 128,-1,6
 190 35 190 35 230 35 c 0,7,8
 285 35 285 35 325 95 c 1,0,-1
415 0 m 1,9,-1
 365 0 l 1,10,-1
 330 45 l 1,11,-1
 325 45 l 1,12,13
 281 -10 281 -10 185 -10 c 0,14,15
 137.207 -10 137.207 -10 92 18.5 c 0,16,17
 69 33 69 33 54.5 62 c 128,-1,18
 40 91 40 91 40 130 c 0,19,20
 40 270 40 270 295 270 c 2,21,-1
 325 270 l 1,22,23
 325 368 325 368 298 404 c 128,-1,24
 271 440 271 440 220 440 c 0,25,26
 130 440 130 440 110 355 c 1,27,-1
 65 355 l 1,28,29
 65 395.182 65 395.182 71.5 414.091 c 128,-1,30
 78 433 78 433 90 445 c 0,31,32
 125 480 125 480 240 480 c 0,33,34
 313.81 480 313.81 480 360.5 443 c 0,35,36
 415 399.811 415 399.811 415 270 c 2,37,-1
 415 0 l 1,9,-1
EndSplineSet
EndChar

StartChar: b
Encoding: 98 98 115
Width: 525
Flags: HMW
HStem: -10 40<267.5 315 247.5 365> 0 21G<80 80 80 130> 440 40<267.5 310> 640 20<-10 10 -10 80>
VStem: 80 90<45 45 90 410 450 540> 390 95<177.5 292.5>
LayerCount: 2
Fore
SplineSet
170 410 m 1,0,-1
 170 90 l 1,1,2
 210 30 210 30 271 30 c 0,3,4
 332 30 332 30 361 86.5 c 128,-1,5
 390 143 390 143 390 235.5 c 0,6,7
 390 328 390 328 359.5 384 c 128,-1,8
 329 440 329 440 265 440 c 0,9,10
 230 440 230 440 170 410 c 1,0,-1
80 0 m 1,11,-1
 80 540 l 2,12,13
 80 591 80 591 66 615.5 c 128,-1,14
 52 640 52 640 10 640 c 2,15,-1
 -10 640 l 1,16,-1
 -10 660 l 1,17,-1
 80 660 l 2,18,19
 134 660 134 660 152 637 c 128,-1,20
 170 614 170 614 170 540 c 2,21,-1
 170 450 l 1,22,23
 230 480 230 480 295 480 c 0,24,25
 388 480 388 480 436.5 411 c 128,-1,26
 485 342 485 342 485 235 c 128,-1,27
 485 128 485 128 438 59 c 128,-1,28
 391 -10 391 -10 302.5 -10 c 0,29,30
 214 -10 214 -10 170 45 c 1,31,-1
 165 45 l 1,32,-1
 130 0 l 1,33,-1
 80 0 l 1,11,-1
EndSplineSet
EndChar

StartChar: c
Encoding: 99 99 116
Width: 455
Flags: HMW
HStem: -10 40<220 290> 440 40<220 285 175 305>
VStem: 30 95<177.5 292.5 177.5 302.5> 400 20<315 352.5>
LayerCount: 2
Fore
SplineSet
86 411 m 128,-1,1
 142 480 142 480 251 480 c 128,-1,2
 360 480 360 480 395 445 c 0,3,4
 412 428 412 428 416 403.5 c 128,-1,5
 420 379 420 379 420 315 c 1,6,-1
 400 315 l 1,7,8
 396 376 396 376 360.5 408 c 128,-1,9
 325 440 325 440 270 440 c 0,10,11
 198 440 198 440 161.5 383 c 128,-1,12
 125 326 125 326 125 235 c 128,-1,13
 125 144 125 144 161.5 87 c 128,-1,14
 198 30 198 30 270 30 c 0,15,16
 320 30 320 30 353.5 50 c 128,-1,17
 387 70 387 70 415 110 c 1,18,-1
 435 95 l 1,19,20
 372 -10 372 -10 250 -10 c 0,21,22
 142 -10 142 -10 86 59 c 128,-1,23
 30 128 30 128 30 235 c 128,-1,0
 30 342 30 342 86 411 c 128,-1,1
EndSplineSet
EndChar

StartChar: d
Encoding: 100 100 117
Width: 525
Flags: HMW
HStem: -10 40<210 260> 440 40<215 257.5 165 275> 640 20<265 285 265 355>
VStem: 40 95<177.5 292.5 177.5 302.5> 355 90<45 45 90 410 410 410 450 540 0 570>
LayerCount: 2
Fore
SplineSet
355 90 m 1,0,-1
 355 410 l 1,1,2
 295 440 295 440 260 440 c 0,3,4
 196 440 196 440 165.5 384 c 128,-1,5
 135 328 135 328 135 235.5 c 0,6,7
 135 143 135 143 164 86.5 c 128,-1,8
 193 30 193 30 250 30 c 0,9,10
 290 30 290 30 313 46 c 128,-1,11
 336 62 336 62 355 90 c 1,0,-1
445 540 m 2,12,-1
 445 0 l 1,13,-1
 395 0 l 1,14,-1
 360 45 l 1,15,-1
 355 45 l 1,16,17
 311 -10 311 -10 222.5 -10 c 0,18,19
 134 -10 134 -10 87 59 c 128,-1,20
 40 128 40 128 40 235 c 128,-1,21
 40 342 40 342 88.5 411 c 128,-1,22
 137 480 137 480 230 480 c 0,23,24
 295 480 295 480 355 450 c 1,25,-1
 355 540 l 2,26,27
 355 591 355 591 341 615.5 c 128,-1,28
 327 640 327 640 285 640 c 2,29,-1
 265 640 l 1,30,-1
 265 660 l 1,31,-1
 355 660 l 2,32,33
 409 660 409 660 427 637 c 128,-1,34
 445 614 445 614 445 540 c 2,12,-1
EndSplineSet
EndChar

StartChar: e
Encoding: 101 101 118
Width: 475
Flags: HMW
HStem: -10 40<227.5 287.5> 220 40<135 345 135 433 135 345> 435 45<210 275>
VStem: 40 95<167.5 220 260 302.5> 345 90<260 315>
LayerCount: 2
Fore
SplineSet
435 260 m 1,0,-1
 433 220 l 1,1,-1
 135 220 l 1,2,3
 135 136 135 136 171 83 c 128,-1,4
 207 30 207 30 270 30 c 0,5,6
 354 30 354 30 410 110 c 1,7,-1
 430 95 l 1,8,9
 367 -10 367 -10 250 -10 c 0,10,11
 149 -10 149 -10 94.5 59 c 128,-1,12
 40 128 40 128 40 234 c 0,13,14
 40 340 40 340 92 410 c 128,-1,15
 144 480 144 480 239.5 480 c 0,16,17
 335 480 335 480 385 423.5 c 128,-1,18
 435 367 435 367 435 260 c 1,0,-1
135 260 m 1,19,-1
 345 260 l 1,20,21
 345 344 345 344 318.5 389.5 c 128,-1,22
 292 435 292 435 243.5 435 c 0,23,24
 195 435 195 435 165 385 c 128,-1,25
 135 335 135 335 135 260 c 1,19,-1
EndSplineSet
EndChar

StartChar: f
Encoding: 102 102 119
Width: 355
Flags: HMW
HStem: 0 21G<80 170 80 80> 430 40<10 80 10 80 170 310> 630 40<227.5 272.5>
VStem: 80 90<0 430 0 430 470 500 0 570>
LayerCount: 2
Fore
SplineSet
250 630 m 0,0,1
 170 630 170 630 170 500 c 2,2,-1
 170 470 l 1,3,-1
 310 470 l 1,4,-1
 310 430 l 1,5,-1
 170 430 l 1,6,-1
 170 0 l 1,7,-1
 80 0 l 1,8,-1
 80 430 l 1,9,-1
 10 430 l 1,10,-1
 10 470 l 1,11,-1
 80 470 l 1,12,-1
 80 500 l 2,13,14
 80 670 80 670 255 670 c 0,15,16
 318 670 318 670 338.5 656 c 0,17,18
 359 642 359 642 375 610 c 1,19,-1
 345 585 l 1,20,21
 315 630 315 630 250 630 c 0,0,1
EndSplineSet
EndChar

StartChar: g
Encoding: 103 103 120
Width: 480
Flags: HMW
HStem: -200 40<202.5 277.5 202.5 302.5> 180 35<212.5 267.5 212.5 292.5> 445 35<240 267.5 360 360>
VStem: 20 90<-85 -12.5 -85 -12.5> 50 90<297.5 372.5 287.5 387.5> 90 20 340 90<287.5 355 272.5 370> 370 60 370 90<-85 -12.5>
LayerCount: 2
Fore
SplineSet
50 330 m 0,0,1
 50 480 50 480 240 480 c 2,2,-1
 445 480 l 1,3,-1
 445 448 l 1,4,-1
 360 445 l 1,5,-1
 360 440 l 1,6,7
 391 424 391 424 410.5 395 c 128,-1,8
 430 366 430 366 430 330 c 0,9,10
 430 180 430 180 240 180 c 0,11,12
 135 180 135 180 135 145 c 128,-1,13
 135 110 135 110 236 110 c 128,-1,14
 337 110 337 110 398.5 71.5 c 128,-1,15
 460 33 460 33 460 -45 c 0,16,17
 460 -200 460 -200 240 -200 c 128,-1,18
 20 -200 20 -200 20 -45 c 0,19,20
 20 1 20 1 51 35 c 128,-1,21
 82 69 82 69 130 85 c 1,22,23
 90 105 90 105 90 141 c 128,-1,24
 90 177 90 177 125 200 c 1,25,26
 93 216 93 216 71.5 250 c 128,-1,27
 50 284 50 284 50 330 c 0,0,1
250 70 m 1,28,-1
 195 75 l 1,29,30
 110 41 110 41 110 -45 c 0,31,32
 110 -103 110 -103 145.5 -131.5 c 128,-1,33
 181 -160 181 -160 240 -160 c 128,-1,34
 299 -160 299 -160 334.5 -131.5 c 128,-1,35
 370 -103 370 -103 370 -45 c 0,36,37
 370 55 370 55 250 70 c 1,28,-1
312.5 242.5 m 128,-1,39
 340 270 340 270 340 328.5 c 128,-1,40
 340 387 340 387 312 416 c 128,-1,41
 284 445 284 445 239.5 445 c 128,-1,42
 195 445 195 445 167.5 417.5 c 128,-1,43
 140 390 140 390 140 330 c 128,-1,44
 140 270 140 270 167.5 242.5 c 128,-1,45
 195 215 195 215 240 215 c 128,-1,38
 285 215 285 215 312.5 242.5 c 128,-1,39
EndSplineSet
EndChar

StartChar: h
Encoding: 104 104 121
Width: 540
Flags: HMW
HStem: 0 21G<80 170 80 80 380 470 380 380> 435 45<270 297.5> 640 20<-10 10 -10 80>
VStem: 80 90<0 382 430 540> 380 90<0 300 0 350>
LayerCount: 2
Fore
SplineSet
170 540 m 2,0,-1
 170 430 l 1,1,2
 220 480 220 480 300 480 c 0,3,4
 470 480 470 480 470 300 c 2,5,-1
 470 0 l 1,6,-1
 380 0 l 1,7,-1
 380 300 l 2,8,9
 380 370 380 370 348.5 402.5 c 128,-1,10
 317 435 317 435 267 435 c 0,11,12
 217 435 217 435 170 382 c 1,13,-1
 170 0 l 1,14,-1
 80 0 l 1,15,-1
 80 540 l 2,16,17
 80 591 80 591 66 615.5 c 128,-1,18
 52 640 52 640 10 640 c 2,19,-1
 -10 640 l 1,20,-1
 -10 660 l 1,21,-1
 80 660 l 2,22,23
 134 660 134 660 152 637 c 128,-1,24
 170 614 170 614 170 540 c 2,0,-1
EndSplineSet
EndChar

StartChar: i
Encoding: 105 105 122
Width: 250
Flags: HMW
HStem: 0 21G<80 170 80 80> 450 20<-10 10 -10 80> 530 109<102.5 123.5 94 132>
VStem: 80 90<0 350 0 380>
LayerCount: 2
Fore
SplineSet
170 350 m 2,0,-1
 170 0 l 1,1,-1
 80 0 l 1,2,-1
 80 350 l 2,3,4
 80 401 80 401 66 425.5 c 128,-1,5
 52 450 52 450 10 450 c 2,6,-1
 -10 450 l 1,7,-1
 -10 470 l 1,8,-1
 80 470 l 2,9,10
 134 470 134 470 152 447 c 128,-1,11
 170 424 170 424 170 350 c 2,0,-1
147.5 620 m 128,-1,13
 164 601 164 601 164 577.5 c 128,-1,14
 164 554 164 554 151.5 542 c 128,-1,15
 139 530 139 530 117 530 c 128,-1,16
 95 530 95 530 78.5 549 c 128,-1,17
 62 568 62 568 62 591.5 c 128,-1,18
 62 615 62 615 74.5 627 c 128,-1,19
 87 639 87 639 109 639 c 128,-1,12
 131 639 131 639 147.5 620 c 128,-1,13
EndSplineSet
EndChar

StartChar: j
Encoding: 106 106 123
Width: 250
Flags: HMW
HStem: -190 20<-15 17.5 -15 57.5> 450 20<-10 10 -10 80> 530 109<102.5 123.5 94 132>
VStem: 62 108 80 90<25 350>
LayerCount: 2
Fore
SplineSet
80 25 m 2,0,-1
 80 350 l 2,1,2
 80 401 80 401 66 425.5 c 128,-1,3
 52 450 52 450 10 450 c 2,4,-1
 -10 450 l 1,5,-1
 -10 470 l 1,6,-1
 80 470 l 2,7,8
 134 470 134 470 152 447 c 128,-1,9
 170 424 170 424 170 350 c 2,10,-1
 170 25 l 2,11,12
 170 -91 170 -91 130.5 -140.5 c 128,-1,13
 91 -190 91 -190 -15 -190 c 1,14,-1
 -15 -170 l 1,15,16
 80 -170 80 -170 80 25 c 2,0,-1
147.5 620 m 128,-1,18
 164 601 164 601 164 577.5 c 128,-1,19
 164 554 164 554 151.5 542 c 128,-1,20
 139 530 139 530 117 530 c 128,-1,21
 95 530 95 530 78.5 549 c 128,-1,22
 62 568 62 568 62 591.5 c 128,-1,23
 62 615 62 615 74.5 627 c 128,-1,24
 87 639 87 639 109 639 c 128,-1,17
 131 639 131 639 147.5 620 c 128,-1,18
EndSplineSet
EndChar

StartChar: k
Encoding: 107 107 124
Width: 475
Flags: HMW
HStem: -10 21G<410 445> 0 21G<80 170 80 80 485 485> 640 20<-10 10 -10 80>
VStem: 80 90<0 230 245 540>
LayerCount: 2
Fore
SplineSet
170 540 m 2,0,-1
 170 245 l 1,1,-1
 295 405 l 2,2,3
 345 470 345 470 425 470 c 2,4,-1
 455 470 l 1,5,-1
 455 445 l 1,6,7
 396 445 396 445 360 400 c 2,8,-1
 250 260 l 1,9,-1
 375 100 l 2,10,11
 432 27 432 27 485 19 c 1,12,-1
 485 0 l 1,13,14
 465 -10 465 -10 435 -10 c 0,15,16
 350 -10 350 -10 290 70 c 2,17,-1
 170 230 l 1,18,-1
 170 0 l 1,19,-1
 80 0 l 1,20,-1
 80 540 l 2,21,22
 80 591 80 591 66 615.5 c 128,-1,23
 52 640 52 640 10 640 c 2,24,-1
 -10 640 l 1,25,-1
 -10 660 l 1,26,-1
 80 660 l 2,27,28
 134 660 134 660 152 637 c 128,-1,29
 170 614 170 614 170 540 c 2,0,-1
EndSplineSet
EndChar

StartChar: l
Encoding: 108 108 125
Width: 250
Flags: HMW
HStem: 0 21G<80 170 80 80> 640 20<-10 10 -10 80>
VStem: 80 90<0 540 0 570>
LayerCount: 2
Fore
SplineSet
170 540 m 2,0,-1
 170 0 l 1,1,-1
 80 0 l 1,2,-1
 80 540 l 2,3,4
 80 591 80 591 66 615.5 c 128,-1,5
 52 640 52 640 10 640 c 2,6,-1
 -10 640 l 1,7,-1
 -10 660 l 1,8,-1
 80 660 l 2,9,10
 134 660 134 660 152 637 c 128,-1,11
 170 614 170 614 170 540 c 2,0,-1
EndSplineSet
EndChar

StartChar: m
Encoding: 109 109 126
Width: 780
Flags: HMW
HStem: 0 21G<80 170 80 80 350 440 350 350 620 710 620 620> 450 30
VStem: 80 90<0 350 350 380 0 470> 350 90<0 300 0 350> 620 90<0 300 0 350>
CounterMasks: 1 38
LayerCount: 2
Fore
SplineSet
165 430 m 1,0,-1
 170 430 l 1,1,2
 220 480 220 480 304 480 c 0,3,4
 388 480 388 480 420 410 c 1,5,6
 446 443 446 443 487 461.5 c 128,-1,7
 528 480 528 480 570 480 c 0,8,9
 634 480 634 480 672 440 c 128,-1,10
 710 400 710 400 710 300 c 2,11,-1
 710 0 l 1,12,-1
 620 0 l 1,13,-1
 620 300 l 2,14,15
 620 435 620 435 540 435 c 0,16,17
 512 435 512 435 482 415 c 128,-1,18
 452 395 452 395 435 370 c 1,19,20
 440 355 440 355 440 300 c 2,21,-1
 440 0 l 1,22,-1
 350 0 l 1,23,-1
 350 300 l 2,24,25
 350 435 350 435 270 435 c 0,26,27
 217 435 217 435 170 382 c 1,28,-1
 170 0 l 1,29,-1
 80 0 l 1,30,-1
 80 350 l 2,31,32
 80 401 80 401 66 425.5 c 128,-1,33
 52 450 52 450 10 450 c 2,34,-1
 -10 450 l 1,35,-1
 -10 470 l 1,36,-1
 80 470 l 2,37,38
 149 470 149 470 165 430 c 1,0,-1
EndSplineSet
EndChar

StartChar: n
Encoding: 110 110 127
Width: 540
Flags: HMW
HStem: 0 21G<80 80 80 170 380 380 380 470> 435 45<270 297.5>
VStem: 80 90<0 350 350 380 0 470> 380 90<0 300 0 350>
LayerCount: 2
Fore
SplineSet
80 0 m 1,0,-1
 80 350 l 2,1,2
 80 401 80 401 66 425.5 c 128,-1,3
 52 450 52 450 10 450 c 2,4,-1
 -10 450 l 1,5,-1
 -10 470 l 1,6,-1
 80 470 l 2,7,8
 149 470 149 470 165 430 c 1,9,-1
 170 430 l 1,10,11
 220 480 220 480 300 480 c 0,12,13
 470 480 470 480 470 300 c 2,14,-1
 470 0 l 1,15,-1
 380 0 l 1,16,-1
 380 300 l 2,17,18
 380 370 380 370 348.5 402.5 c 128,-1,19
 317 435 317 435 267 435 c 0,20,21
 217 435 217 435 170 382 c 1,22,-1
 170 0 l 1,23,-1
 80 0 l 1,0,-1
EndSplineSet
EndChar

StartChar: o
Encoding: 111 111 128
Width: 500
Flags: HMW
HStem: -10 40<212.5 287.5 212.5 320> 440 40<212.5 287.5>
VStem: 30 95<177.5 292.5 177.5 302.5> 375 95<177.5 292.5>
LayerCount: 2
Fore
SplineSet
375 235 m 128,-1,1
 375 323 375 323 340 381.5 c 128,-1,2
 305 440 305 440 250 440 c 128,-1,3
 195 440 195 440 160 381.5 c 128,-1,4
 125 323 125 323 125 235 c 128,-1,5
 125 147 125 147 160 88.5 c 128,-1,6
 195 30 195 30 250 30 c 128,-1,7
 305 30 305 30 340 88.5 c 128,-1,0
 375 147 375 147 375 235 c 128,-1,1
30 235 m 128,-1,9
 30 340 30 340 89 410 c 128,-1,10
 148 480 148 480 250 480 c 128,-1,11
 352 480 352 480 411 410 c 128,-1,12
 470 340 470 340 470 235 c 128,-1,13
 470 130 470 130 411 60 c 128,-1,14
 352 -10 352 -10 250 -10 c 128,-1,15
 148 -10 148 -10 89 60 c 128,-1,8
 30 130 30 130 30 235 c 128,-1,9
EndSplineSet
EndChar

StartChar: p
Encoding: 112 112 129
Width: 525
Flags: HMW
HStem: -190 21G<80 80 80 170> -10 40<267.5 310 250 360> 440 40<267.5 315>
VStem: 80 90<-190 20 60 350 350 380> 390 95<177.5 292.5>
LayerCount: 2
Fore
SplineSet
170 380 m 1,0,-1
 170 60 l 1,1,2
 230 30 230 30 265 30 c 0,3,4
 329 30 329 30 359.5 86 c 128,-1,5
 390 142 390 142 390 234.5 c 0,6,7
 390 327 390 327 361 383.5 c 128,-1,8
 332 440 332 440 271 440 c 0,9,10
 210 440 210 440 170 380 c 1,0,-1
80 -190 m 1,11,-1
 80 350 l 2,12,13
 80 401 80 401 66 425.5 c 128,-1,14
 52 450 52 450 10 450 c 2,15,-1
 -10 450 l 1,16,-1
 -10 470 l 1,17,-1
 80 470 l 2,18,19
 150 470 150 470 165 425 c 1,20,-1
 170 425 l 1,21,22
 214 480 214 480 302.5 480 c 0,23,24
 391 480 391 480 438 411 c 128,-1,25
 485 342 485 342 485 235 c 128,-1,26
 485 128 485 128 436.5 59 c 128,-1,27
 388 -10 388 -10 295 -10 c 0,28,29
 230 -10 230 -10 170 20 c 1,30,-1
 170 -190 l 1,31,-1
 80 -190 l 1,11,-1
EndSplineSet
EndChar

StartChar: q
Encoding: 113 113 130
Width: 525
Flags: HMW
HStem: -190 21G<355 355 355 445> -10 40<215 257.5> 440 40<210 257.5 160 277.5>
VStem: 40 95<177.5 292.5 177.5 302.5> 355 90<-190 20 20 20 60 380 380 380 425 425>
LayerCount: 2
Fore
SplineSet
355 60 m 1,0,-1
 355 380 l 1,1,2
 315 440 315 440 254 440 c 0,3,4
 193 440 193 440 164 383.5 c 128,-1,5
 135 327 135 327 135 234.5 c 0,6,7
 135 142 135 142 165.5 86 c 128,-1,8
 196 30 196 30 260 30 c 0,9,10
 295 30 295 30 355 60 c 1,0,-1
355 -190 m 1,11,-1
 355 20 l 1,12,13
 295 -10 295 -10 230 -10 c 0,14,15
 137 -10 137 -10 88.5 59 c 128,-1,16
 40 128 40 128 40 235 c 128,-1,17
 40 342 40 342 87 411 c 128,-1,18
 134 480 134 480 222.5 480 c 0,19,20
 311 480 311 480 355 425 c 1,21,-1
 360 425 l 1,22,-1
 395 470 l 1,23,-1
 445 470 l 1,24,-1
 445 -190 l 1,25,-1
 355 -190 l 1,11,-1
EndSplineSet
EndChar

StartChar: r
Encoding: 114 114 131
Width: 405
Flags: HMW
HStem: 0 21G<80 80 80 170> 420 60<260 282.5>
VStem: 80 90<0 350 350 370 0 380>
LayerCount: 2
Fore
SplineSet
80 0 m 1,0,-1
 80 350 l 2,1,2
 80 401 80 401 66 425.5 c 128,-1,3
 52 450 52 450 10 450 c 2,4,-1
 0 450 l 1,5,-1
 0 470 l 1,6,-1
 80 470 l 2,7,8
 150 470 150 470 165 425 c 1,9,-1
 170 425 l 1,10,11
 214 480 214 480 290 480 c 0,12,13
 328 480 328 480 348.5 466 c 0,14,15
 369 452 369 452 385 420 c 1,16,-1
 345 390 l 1,17,18
 322 420 322 420 262.5 420 c 0,19,20
 203 420 203 420 170 370 c 1,21,-1
 170 0 l 1,22,-1
 80 0 l 1,0,-1
EndSplineSet
EndChar

StartChar: s
Encoding: 115 115 132
Width: 435
Flags: HMW
HStem: -10 40<180 237.5 157.5 270> 440 40<192.5 242.5 157.5 265>
VStem: 40 85<352.5 390 352.5 392.5> 310 85<80 120>
LayerCount: 2
Fore
SplineSet
364 201 m 128,-1,1
 395 170 395 170 395 114 c 128,-1,2
 395 58 395 58 346.5 24 c 128,-1,3
 298 -10 298 -10 220 -10 c 0,4,5
 70.3333 -10 70.3333 -10 47.5 58.5 c 0,6,7
 40 81 40 81 40 135 c 1,8,-1
 60 135 l 1,9,10
 76 30 76 30 200 30 c 0,11,12
 254 30 254 30 282 49.5 c 128,-1,13
 310 69 310 69 310 99 c 128,-1,14
 310 129 310 129 288.5 150 c 128,-1,15
 267 171 267 171 220 190 c 2,16,-1
 160 215 l 2,17,18
 100 240 100 240 70 271.5 c 128,-1,19
 40 303 40 303 40 350 c 0,20,21
 40 412 40 412 85.5 446 c 128,-1,22
 131 480 131 480 205 480 c 0,23,24
 349.667 480 349.667 480 372.5 411.5 c 0,25,26
 380 389 380 389 380 335 c 1,27,-1
 360 335 l 1,28,29
 352 385 352 385 318 412.5 c 128,-1,30
 284 440 284 440 231 440 c 128,-1,31
 178 440 178 440 151.5 420.5 c 128,-1,32
 125 401 125 401 125 370 c 0,33,34
 125 319 125 319 205 285 c 2,35,-1
 265 260 l 2,36,0
 333 232 333 232 364 201 c 128,-1,1
EndSplineSet
EndChar

StartChar: t
Encoding: 116 116 133
Width: 335
Flags: HMW
HStem: -10 40<217.5 235> 430 40<10 80 10 80 170 290> 600 20G<130 170 170 170>
VStem: 80 90<120 430 470 560 560 560>
LayerCount: 2
Fore
SplineSet
80 120 m 2,0,-1
 80 430 l 1,1,-1
 10 430 l 1,2,-1
 10 470 l 1,3,-1
 80 470 l 1,4,-1
 80 560 l 1,5,-1
 130 620 l 1,6,-1
 170 620 l 1,7,-1
 170 470 l 1,8,-1
 290 470 l 1,9,-1
 290 430 l 1,10,-1
 170 430 l 1,11,-1
 170 120 l 2,12,13
 170 30 170 30 240 30 c 0,14,15
 275 30 275 30 315 50 c 1,16,-1
 325 30 l 1,17,18
 272 -10 272 -10 208.5 -10 c 0,19,20
 80 -10 80 -10 80 120 c 2,0,-1
EndSplineSet
EndChar

StartChar: u
Encoding: 117 117 134
Width: 540
Flags: HMW
HStem: -10 45<242.5 270> 450 20<-10 0 -10 70>
VStem: 70 90<170 350> 370 90<40 40 88 470 0 470>
LayerCount: 2
Fore
SplineSet
460 470 m 1,0,-1
 460 0 l 1,1,-1
 410 0 l 1,2,-1
 375 40 l 1,3,-1
 370 40 l 1,4,5
 320 -10 320 -10 240 -10 c 0,6,7
 70 -10 70 -10 70 170 c 2,8,-1
 70 350 l 2,9,10
 70 401 70 401 56 425.5 c 128,-1,11
 42 450 42 450 0 450 c 2,12,-1
 -10 450 l 1,13,-1
 -10 470 l 1,14,-1
 70 470 l 2,15,16
 124 470 124 470 142 447 c 128,-1,17
 160 424 160 424 160 350 c 2,18,-1
 160 170 l 2,19,20
 160 100 160 100 191.5 67.5 c 128,-1,21
 223 35 223 35 273 35 c 0,22,23
 323 35 323 35 370 88 c 1,24,-1
 370 470 l 1,25,-1
 460 470 l 1,0,-1
EndSplineSet
EndChar

StartChar: v
Encoding: 118 118 135
Width: 474
Flags: HMW
HStem: -10 21G<229 249 229 229> 458 22
LayerCount: 2
Fore
SplineSet
-30 478 m 1,0,-1
 4 480 l 1,1,2
 120 480 120 480 174 355 c 1,3,-1
 264 140 l 1,4,-1
 404 470 l 1,5,-1
 454 470 l 1,6,-1
 249 -10 l 1,7,-1
 229 -10 l 1,8,-1
 74 355 l 2,9,10
 50 412 50 412 28 434 c 128,-1,11
 6 456 6 456 -30 458 c 1,12,-1
 -30 478 l 1,0,-1
EndSplineSet
EndChar

StartChar: w
Encoding: 119 119 136
Width: 725
Flags: HMW
HStem: -10 21G<220 240 220 220 490 510 490 490> 458 22
LayerCount: 2
Fore
SplineSet
240 478 m 1,0,-1
 275 480 l 1,1,2
 390 480 390 480 440 355 c 2,3,-1
 525 145 l 1,4,-1
 655 470 l 1,5,-1
 705 470 l 1,6,-1
 510 -10 l 1,7,-1
 490 -10 l 1,8,-1
 365 300 l 1,9,-1
 240 -10 l 1,10,-1
 220 -10 l 1,11,-1
 75 355 l 2,12,13
 53 411 53 411 30 433.5 c 128,-1,14
 7 456 7 456 -30 458 c 1,15,-1
 -30 478 l 1,16,-1
 5 480 l 1,17,18
 120 480 120 480 170 355 c 2,19,-1
 255 145 l 1,20,-1
 340 360 l 1,21,22
 317 413 317 413 295.5 434.5 c 128,-1,23
 274 456 274 456 240 458 c 1,24,-1
 240 478 l 1,0,-1
EndSplineSet
EndChar

StartChar: x
Encoding: 120 120 137
Width: 450
Flags: HMW
HStem: 0 21G<20 70 20 20 352.5 375 375 465> 450 20G<-10 75>
LayerCount: 2
Fore
SplineSet
262 80 m 2,0,-1
 200 185 l 1,1,-1
 70 0 l 1,2,-1
 20 0 l 1,3,-1
 180 225 l 1,4,-1
 93 370 l 1,5,6
 51 442 51 442 -10 450 c 1,7,-1
 -10 470 l 1,8,-1
 75 470 l 2,9,10
 141 470 141 470 188 390 c 2,11,-1
 250 285 l 1,12,-1
 380 470 l 1,13,-1
 430 470 l 1,14,-1
 270 245 l 1,15,-1
 357 100 l 1,16,17
 399 27 399 27 465 20 c 1,18,-1
 465 0 l 1,19,-1
 375 0 l 2,20,21
 309 0 309 0 262 80 c 2,0,-1
EndSplineSet
EndChar

StartChar: y
Encoding: 121 121 138
Width: 485
Flags: HMW
HStem: -200 30<80 110 80 110> 460 20G<-30 55>
LayerCount: 2
Fore
SplineSet
215 -65 m 2,0,-1
 235 -10 l 1,1,-1
 80 380 l 2,2,3
 51 452 51 452 -30 460 c 1,4,-1
 -30 480 l 1,5,-1
 55 480 l 2,6,7
 143 480 143 480 175 400 c 2,8,-1
 285 125 l 1,9,-1
 415 470 l 1,10,-1
 465 470 l 1,11,-1
 265 -65 l 2,12,13
 236 -144 236 -144 201 -172 c 128,-1,14
 166 -200 166 -200 110 -200 c 2,15,-1
 80 -200 l 1,16,-1
 80 -170 l 1,17,18
 129 -170 129 -170 161 -147.5 c 128,-1,19
 193 -125 193 -125 215 -65 c 2,0,-1
EndSplineSet
EndChar

StartChar: z
Encoding: 122 122 139
Width: 450
Flags: HMW
HStem: 0 40<150 420 150 420> 430 40<132.5 175 175 290>
VStem: 30 20<340 367.5 340 390>
LayerCount: 2
Fore
SplineSet
115 470 m 2,0,-1
 420 470 l 1,1,-1
 150 40 l 1,2,-1
 420 40 l 1,3,-1
 420 0 l 1,4,-1
 30 0 l 1,5,-1
 30 19 l 1,6,-1
 290 430 l 1,7,-1
 175 430 l 2,8,9
 113 430 113 430 81.5 406 c 128,-1,10
 50 382 50 382 50 340 c 1,11,-1
 30 340 l 1,12,-1
 30 390 l 2,13,14
 30 470 30 470 115 470 c 2,0,-1
EndSplineSet
EndChar

StartChar: braceleft
Encoding: 123 123 140
Width: 305
Flags: HMW
HStem: -210 21G<285 285> 670 20G<285 285>
VStem: 120 80<-30 100 370 380 380 510 510 550>
LayerCount: 2
Fore
SplineSet
20 225 m 1,0,-1
 20 255 l 1,1,2
 120 268 120 268 120 370 c 2,3,-1
 120 510 l 2,4,5
 120 580 120 580 158.5 624 c 128,-1,6
 197 668 197 668 285 690 c 1,7,-1
 285 660 l 1,8,9
 235 646 235 646 217.5 621.5 c 128,-1,10
 200 597 200 597 200 550 c 2,11,-1
 200 380 l 2,12,13
 200 321 200 321 174.5 288 c 128,-1,14
 149 255 149 255 95 240 c 1,15,16
 149 225 149 225 174.5 192 c 128,-1,17
 200 159 200 159 200 100 c 2,18,-1
 200 -70 l 2,19,20
 200 -117 200 -117 217.5 -141.5 c 128,-1,21
 235 -166 235 -166 285 -180 c 1,22,-1
 285 -210 l 1,23,24
 197 -188 197 -188 158.5 -144 c 128,-1,25
 120 -100 120 -100 120 -30 c 2,26,-1
 120 110 l 2,27,28
 120 212 120 212 20 225 c 1,0,-1
EndSplineSet
EndChar

StartChar: bar
Encoding: 124 124 141
Width: 240
Flags: HMW
HStem: -190 21G<100 140 100 100> 660 20G<100 140 140 140>
VStem: 100 40<-190 680 -190 680>
LayerCount: 2
Fore
SplineSet
100 680 m 1,0,-1
 140 680 l 1,1,-1
 140 -190 l 1,2,-1
 100 -190 l 1,3,-1
 100 680 l 1,0,-1
EndSplineSet
EndChar

StartChar: braceright
Encoding: 125 125 142
Width: 285
Flags: HMW
HStem: -210 21G<0 0> 670 20G<0 0>
VStem: 85 80<-70 -30 -30 100 100 110 380 510>
LayerCount: 2
Fore
SplineSet
265 255 m 1,0,-1
 265 225 l 1,1,2
 165 212 165 212 165 110 c 2,3,-1
 165 -30 l 2,4,5
 165 -100 165 -100 126.5 -144 c 128,-1,6
 88 -188 88 -188 0 -210 c 1,7,-1
 0 -180 l 1,8,9
 50 -166 50 -166 67.5 -141.5 c 128,-1,10
 85 -117 85 -117 85 -70 c 2,11,-1
 85 100 l 2,12,13
 85 159 85 159 110.5 192 c 128,-1,14
 136 225 136 225 190 240 c 1,15,16
 136 255 136 255 110.5 288 c 128,-1,17
 85 321 85 321 85 380 c 2,18,-1
 85 550 l 2,19,20
 85 597 85 597 67.5 621.5 c 128,-1,21
 50 646 50 646 0 660 c 1,22,-1
 0 690 l 1,23,24
 88 668 88 668 126.5 624 c 128,-1,25
 165 580 165 580 165 510 c 2,26,-1
 165 370 l 2,27,28
 165 268 165 268 265 255 c 1,0,-1
EndSplineSet
EndChar

StartChar: asciitilde
Encoding: 126 126 143
Width: 590
Flags: HMW
HStem: 180 70<390 455 390 460> 260 70<135 200>
LayerCount: 2
Fore
SplineSet
515 215 m 128,-1,1
 480 180 480 180 429 180 c 128,-1,2
 378 180 378 180 288 220 c 128,-1,3
 198 260 198 260 160.5 260 c 128,-1,4
 123 260 123 260 101.5 240.5 c 128,-1,5
 80 221 80 221 80 190 c 1,6,-1
 40 190 l 1,7,8
 40 260 40 260 75 295 c 128,-1,9
 110 330 110 330 161 330 c 128,-1,10
 212 330 212 330 302 290 c 128,-1,11
 392 250 392 250 429.5 250 c 128,-1,12
 467 250 467 250 488.5 269.5 c 128,-1,13
 510 289 510 289 510 320 c 1,14,-1
 550 320 l 1,15,0
 550 250 550 250 515 215 c 128,-1,1
EndSplineSet
EndChar

StartChar: exclamdown
Encoding: 161 161 144
Width: 268
Flags: HMW
HStem: -194 21G<87 181 87 87> 372 108<119.5 148.5>
VStem: 96 76
LayerCount: 2
Fore
SplineSet
163 311 m 1,0,-1
 181 -194 l 1,1,-1
 87 -194 l 1,2,-1
 105 311 l 1,3,-1
 163 311 l 1,0,-1
134 372 m 128,-1,5
 112 372 112 372 96 387.5 c 128,-1,6
 80 403 80 403 80 425.5 c 0,7,8
 80 448 80 448 96 464 c 128,-1,9
 112 480 112 480 134 480 c 128,-1,10
 156 480 156 480 172 464 c 128,-1,11
 188 448 188 448 188 425.5 c 0,12,13
 188 403 188 403 172 387.5 c 128,-1,4
 156 372 156 372 134 372 c 128,-1,5
EndSplineSet
EndChar

StartChar: cent
Encoding: 162 162 145
Width: 455
Flags: HMW
HStem: -50 21G<230 270 230 230> -10 40<270 305> 440 40<270 297.5> 500 20G<230 270 270 270>
VStem: 30 95<185.5 284 185.5 299.5> 230 40<-50 -10 -50 -10 35 435 435 435 480 520> 400 20<315 352.5>
LayerCount: 2
Fore
SplineSet
230 520 m 1,0,-1
 270 520 l 1,1,-1
 270 480 l 1,2,3
 403.51 480 403.51 480 416 403.5 c 0,4,5
 420 379 420 379 420 315 c 1,6,-1
 400 315 l 1,7,8
 396 376 396 376 360.5 408 c 128,-1,9
 325 440 325 440 270 440 c 1,10,-1
 270 30 l 1,11,12
 320 30 320 30 353.5 50 c 128,-1,13
 387 70 387 70 415 110 c 1,14,-1
 435 95 l 1,15,16
 377 -2 377 -2 270 -10 c 1,17,-1
 270 -50 l 1,18,-1
 230 -50 l 1,19,-1
 230 -10 l 1,20,21
 133 -3 133 -3 81.5 65 c 128,-1,22
 30 133 30 133 30 235 c 128,-1,23
 30 337 30 337 81.5 405 c 128,-1,24
 133 473 133 473 230 480 c 1,25,-1
 230 520 l 1,0,-1
152 365.5 m 128,-1,27
 125 311 125 311 125 234.5 c 128,-1,28
 125 158 125 158 152 104 c 128,-1,29
 179 50 179 50 230 35 c 1,30,-1
 230 435 l 1,31,26
 179 420 179 420 152 365.5 c 128,-1,27
EndSplineSet
EndChar

StartChar: sterling
Encoding: 163 163 146
Width: 475
Flags: HMW
HStem: 0 40<115 300 300 340> 320 40<10 80 10 80 170 310> 630 40<245 285 210 302.5>
VStem: 80 90<220 320 360 460> 425 20<115 155>
LayerCount: 2
Fore
SplineSet
80 360 m 1,0,-1
 80 460 l 2,1,2
 80 589.811 80 589.811 134.5 633 c 0,3,4
 181.19 670 181.19 670 255 670 c 0,5,6
 370 670 370 670 405 635 c 0,7,8
 426 614 426 614 429 579.5 c 0,9,10
 430 568 430 568 430 545 c 1,11,-1
 385 545 l 1,12,13
 365 630 365 630 275 630 c 0,14,15
 224 630 224 630 197 594 c 128,-1,16
 170 558 170 558 170 460 c 2,17,-1
 170 360 l 1,18,-1
 310 360 l 1,19,-1
 310 320 l 1,20,-1
 170 320 l 1,21,-1
 170 220 l 2,22,23
 170 87 170 87 115 40 c 1,24,-1
 300 40 l 2,25,26
 425 40 425 40 425 155 c 1,27,-1
 445 155 l 1,28,-1
 445 80 l 2,29,30
 445 0 445 0 360 0 c 2,31,-1
 -5 0 l 1,32,-1
 -5 25 l 1,33,34
 38 37 38 37 59 81.5 c 128,-1,35
 80 126 80 126 80 220 c 2,36,-1
 80 320 l 1,37,-1
 10 320 l 1,38,-1
 10 360 l 1,39,-1
 80 360 l 1,0,-1
EndSplineSet
EndChar

StartChar: currency
Encoding: 164 164 147
Width: 570
Flags: HMW
HStem: -10 21G<500.5 548> 0 21G<100 190 100 100 590 590> 240 40<40 100 40 100 190 240> 310 40<40 100 40 100 190 270> 625 35<252.5 270 270 307.5> 640 20<10 30 10 270>
VStem: 100 90<0 240 0 240 280 310 0 310 350 540 540 570> 420 100<438.5 540>
LayerCount: 2
Fore
SplineSet
270 350 m 1,0,1
 420 354 420 354 420 490 c 0,2,3
 420 561 420 561 377.5 593 c 128,-1,4
 335 625 335 625 265 625 c 0,5,6
 230 625 230 625 190 615 c 1,7,-1
 190 350 l 1,8,-1
 270 350 l 1,0,1
445 190 m 2,9,-1
 485 105 l 2,10,11
 521 29 521 29 590 20 c 1,12,-1
 590 0 l 1,13,14
 570 -10 570 -10 536 -10 c 0,15,16
 434 -10 434 -10 390 85 c 2,17,-1
 350 170 l 2,18,19
 317 240 317 240 240 240 c 2,20,-1
 190 240 l 1,21,-1
 190 0 l 1,22,-1
 100 0 l 1,23,-1
 100 240 l 1,24,-1
 40 240 l 1,25,-1
 40 280 l 1,26,-1
 100 280 l 1,27,-1
 100 310 l 1,28,-1
 40 310 l 1,29,-1
 40 350 l 1,30,-1
 100 350 l 1,31,-1
 100 540 l 2,32,33
 100 591 100 591 86 615.5 c 128,-1,34
 72 640 72 640 30 640 c 2,35,-1
 10 640 l 1,36,-1
 10 660 l 1,37,-1
 270 660 l 2,38,39
 520 660 520 660 520 490 c 0,40,41
 520 310 520 310 270 310 c 2,42,-1
 190 310 l 1,43,-1
 190 280 l 1,44,-1
 270 280 l 2,45,46
 339 280 339 280 381 259 c 128,-1,47
 423 238 423 238 445 190 c 2,9,-1
EndSplineSet
EndChar

StartChar: yen
Encoding: 165 165 148
Width: 629
Flags: HMW
HStem: 0 21G<285 375 285 285> 145 40<190 285 190 285 375 470> 225 40<190 285 190 285 375 470> 640 20G<-30 60>
VStem: 285 90<0 145 0 145 185 225 0 225 265 273 273 273>
LayerCount: 2
Fore
SplineSet
210 550 m 2,0,-1
 355 325 l 1,1,-1
 564 660 l 1,2,-1
 609 660 l 1,3,-1
 375 280 l 1,4,-1
 375 265 l 1,5,-1
 470 265 l 1,6,-1
 470 225 l 1,7,-1
 375 225 l 1,8,-1
 375 185 l 1,9,-1
 470 185 l 1,10,-1
 470 145 l 1,11,-1
 375 145 l 1,12,-1
 375 0 l 1,13,-1
 285 0 l 1,14,-1
 285 145 l 1,15,-1
 190 145 l 1,16,-1
 190 185 l 1,17,-1
 285 185 l 1,18,-1
 285 225 l 1,19,-1
 190 225 l 1,20,-1
 190 265 l 1,21,-1
 285 265 l 1,22,-1
 285 273 l 1,23,-1
 115 530 l 2,24,25
 79 584 79 584 48.5 610.5 c 128,-1,26
 18 637 18 637 -30 640 c 1,27,-1
 -30 660 l 1,28,-1
 60 660 l 2,29,30
 110 660 110 660 143.5 631.5 c 128,-1,31
 177 603 177 603 210 550 c 2,0,-1
EndSplineSet
EndChar

StartChar: brokenbar
Encoding: 166 166 149
Width: 240
Flags: HMW
HStem: -190 21G<100 140 100 100> 660 20G<100 140 140 140>
VStem: 100 40<-190 160 -190 160 330 680>
LayerCount: 2
Fore
SplineSet
100 680 m 1,0,-1
 140 680 l 1,1,-1
 140 330 l 1,2,-1
 100 330 l 1,3,-1
 100 680 l 1,0,-1
100 160 m 1,4,-1
 140 160 l 1,5,-1
 140 -190 l 1,6,-1
 100 -190 l 1,7,-1
 100 160 l 1,4,-1
EndSplineSet
EndChar

StartChar: section
Encoding: 167 167 150
Width: 450
Flags: HMW
HStem: -200 40<192.5 220 162.5 262.5> 630 40<230 257.5 187.5 287.5>
VStem: 60 75<227.5 262.5> 75 85<485.5 570 470 572.5> 290 85<-100 -15.5 -102.5 0> 315 75<206.5 242.5>
LayerCount: 2
Fore
SplineSet
187 607 m 128,-1,1
 160 584 160 584 160 543 c 128,-1,2
 160 502 160 502 183.5 471.5 c 128,-1,3
 207 441 207 441 241 419.5 c 2,4,-1
 309 376 l 2,5,6
 343 354 343 354 366.5 321 c 128,-1,7
 390 288 390 288 390 245 c 0,8,9
 390 140 390 140 284 100 c 1,10,11
 375 39 375 39 375 -50 c 0,12,13
 375 -125 375 -125 331.5 -162.5 c 128,-1,14
 288 -200 288 -200 209 -200 c 128,-1,15
 130 -200 130 -200 90 -160 c 0,16,17
 68.6296 -138.63 68.6296 -138.63 66 -100.5 c 0,18,19
 65 -86 65 -86 65 -55 c 1,20,-1
 85 -55 l 1,21,22
 92 -104 92 -104 120.5 -132 c 128,-1,23
 149 -160 149 -160 192.5 -160 c 128,-1,24
 236 -160 236 -160 263 -137 c 128,-1,25
 290 -114 290 -114 290 -73 c 128,-1,26
 290 -32 290 -32 266.5 -1.5 c 128,-1,27
 243 29 243 29 209 50.5 c 2,28,29
 141 94 l 2,30,31
 107 116 107 116 83.5 149 c 128,-1,32
 60 182 60 182 60 225 c 0,33,34
 60 330 60 330 165 370 c 1,35,36
 75 429 75 429 75 520 c 0,37,38
 75 595 75 595 118.5 632.5 c 128,-1,39
 162 670 162 670 241 670 c 128,-1,40
 320 670 320 670 360 630 c 0,41,42
 381.37 608.63 381.37 608.63 384 570.5 c 0,43,44
 385 556 385 556 385 525 c 1,45,-1
 365 525 l 1,46,47
 358 574 358 574 329.5 602 c 128,-1,48
 301 630 301 630 257.5 630 c 128,-1,0
 214 630 214 630 187 607 c 128,-1,1
204 347 m 1,49,50
 135 326 135 326 135 255.5 c 128,-1,51
 135 185 135 185 246 123 c 1,52,53
 315 145 315 145 315 215 c 128,-1,54
 315 285 315 285 204 347 c 1,49,50
EndSplineSet
EndChar

StartChar: copyright
Encoding: 169 169 151
Width: 790
Flags: HMW
HStem: -25 40<302.5 487.5 302.5 497.5> 105 27<360 434> 536 26<373 431 340 450.5> 645 40<302.5 487.5>
VStem: 40 40<237.5 422.5 237.5 432.5> 195 64<278 392.5> 710 40<237.5 422.5>
LayerCount: 2
Fore
SplineSet
395 685 m 128,-1,1
 549 685 549 685 649.5 584.5 c 128,-1,2
 750 484 750 484 750 330 c 128,-1,3
 750 176 750 176 649.5 75.5 c 128,-1,4
 549 -25 549 -25 395 -25 c 128,-1,5
 241 -25 241 -25 140.5 75.5 c 128,-1,6
 40 176 40 176 40 330 c 128,-1,7
 40 484 40 484 140.5 584.5 c 128,-1,0
 241 685 241 685 395 685 c 128,-1,1
395 15 m 128,-1,9
 534 15 534 15 622 103 c 128,-1,10
 710 191 710 191 710 330 c 128,-1,11
 710 469 710 469 622 557 c 128,-1,12
 534 645 534 645 395 645 c 128,-1,13
 256 645 256 645 168 557 c 128,-1,14
 80 469 80 469 80 330 c 128,-1,15
 80 191 80 191 168 103 c 128,-1,8
 256 15 256 15 395 15 c 128,-1,9
561 412 m 1,16,-1
 548 412 l 1,17,18
 525 536 525 536 415 536 c 0,19,20
 345 536 345 536 302 486.5 c 128,-1,21
 259 437 259 437 259 327 c 0,22,23
 259 246 259 246 298.5 189 c 128,-1,24
 338 132 338 132 415 132 c 0,25,26
 505 132 505 132 561 223 c 1,27,-1
 574 213 l 1,28,29
 518 105 518 105 395 105 c 0,30,31
 305 105 305 105 250 168.5 c 128,-1,32
 195 232 195 232 195 328.5 c 0,33,34
 195 425 195 425 253.5 493.5 c 128,-1,35
 312 562 312 562 395 562 c 0,36,37
 446 562 446 562 486 547 c 128,-1,38
 526 532 526 532 543.5 511 c 0,39,40
 561 490 561 490 561 412 c 1,16,-1
EndSplineSet
EndChar

StartChar: guillemotleft
Encoding: 171 171 152
Width: 330
Flags: HMW
HStem: 30 21G<175 215 175 175> 400 20G<175 215 215 215>
LayerCount: 2
Fore
SplineSet
160 225 m 1,0,-1
 260 370 l 1,1,-1
 300 370 l 1,2,-1
 240 225 l 1,3,-1
 300 80 l 1,4,-1
 260 80 l 1,5,-1
 160 225 l 1,0,-1
215 420 m 1,6,-1
 120 225 l 1,7,-1
 215 30 l 1,8,-1
 175 30 l 1,9,-1
 20 225 l 1,10,-1
 175 420 l 1,11,-1
 215 420 l 1,6,-1
EndSplineSet
EndChar

StartChar: logicalnot
Encoding: 172 172 153
Width: 585
Flags: HMW
HStem: 230 21G<505 545 505 505> 390 40<20 545 20 505>
VStem: 505 40<230 390 390 390>
LayerCount: 2
Fore
SplineSet
20 390 m 1,0,-1
 20 430 l 1,1,-1
 545 430 l 1,2,-1
 545 230 l 1,3,-1
 505 230 l 1,4,-1
 505 390 l 1,5,-1
 20 390 l 1,0,-1
EndSplineSet
EndChar

StartChar: uni00AD
Encoding: 173 173 154
Width: 335
Flags: HMW
HStem: 230 70<40 295 40 295>
LayerCount: 2
Fore
SplineSet
40 230 m 1,0,-1
 40 300 l 1,1,-1
 295 300 l 1,2,-1
 295 230 l 1,3,-1
 40 230 l 1,0,-1
EndSplineSet
EndChar

StartChar: registered
Encoding: 174 174 155
Width: 790
Flags: HMW
HStem: -25 40<302.5 487.5 302.5 497.5> 530 22<368 379 379 394> 645 40<302.5 487.5>
VStem: 40 40<237.5 422.5 237.5 432.5> 269 58<125 323 352 474 474 493.5> 476 65<404.5 471> 710 40<237.5 422.5>
LayerCount: 2
Fore
SplineSet
395 685 m 128,-1,1
 549 685 549 685 649.5 584.5 c 128,-1,2
 750 484 750 484 750 330 c 128,-1,3
 750 176 750 176 649.5 75.5 c 128,-1,4
 549 -25 549 -25 395 -25 c 128,-1,5
 241 -25 241 -25 140.5 75.5 c 128,-1,6
 40 176 40 176 40 330 c 128,-1,7
 40 484 40 484 140.5 584.5 c 128,-1,0
 241 685 241 685 395 685 c 128,-1,1
395 15 m 128,-1,9
 534 15 534 15 622 103 c 128,-1,10
 710 191 710 191 710 330 c 128,-1,11
 710 469 710 469 622 557 c 128,-1,12
 534 645 534 645 395 645 c 128,-1,13
 256 645 256 645 168 557 c 128,-1,14
 80 469 80 469 80 330 c 128,-1,15
 80 191 80 191 168 103 c 128,-1,8
 256 15 256 15 395 15 c 128,-1,9
327 352 m 1,16,17
 357 345 357 345 383.5 345 c 128,-1,18
 410 345 410 345 443 369 c 128,-1,19
 476 393 476 393 476 437.5 c 128,-1,20
 476 482 476 482 443 506 c 128,-1,21
 410 530 410 530 383.5 530 c 128,-1,22
 357 530 357 530 327 523 c 1,23,-1
 327 352 l 1,16,17
442 211 m 1,24,-1
 375 323 l 1,25,-1
 327 323 l 1,26,-1
 327 125 l 1,27,-1
 269 125 l 1,28,-1
 269 474 l 2,29,30
 269 507 269 507 260 523 c 128,-1,31
 251 539 251 539 224 539 c 2,32,-1
 211 539 l 1,33,-1
 211 552 l 1,34,-1
 379 552 l 2,35,36
 494.067 552 494.067 552 529 486.5 c 0,37,38
 541 464 541 464 541 434 c 0,39,40
 541 345 541 345 438 327 c 1,41,-1
 510 211 l 2,42,43
 536 171 536 171 553.5 155.5 c 128,-1,44
 571 140 571 140 595 137 c 1,45,-1
 595 125 l 1,46,47
 584 118 584 118 553 118 c 128,-1,48
 522 118 522 118 498.5 138 c 128,-1,49
 475 158 475 158 442 211 c 1,24,-1
EndSplineSet
EndChar

StartChar: afii10097
Encoding: 1103 1103 156
Width: 485
Flags: HMW
HStem: -10 245<45 260> 0 21G<0 0 315 405 315 315> 200 35<237 260 215 315 237 237> 435 35<240 260> 450 20<445 475>
VStem: 40 95<300 370 300 387.5> 315 90<0 200 200 200 245 350 0 425 0 425>
LayerCount: 2
Fore
SplineSet
405 350 m 2,0,-1
 405 0 l 1,1,-1
 315 0 l 1,2,-1
 315 200 l 1,3,-1
 237 200 l 1,4,-1
 177 80 l 2,5,6
 154 34 154 34 125.5 12 c 128,-1,7
 97 -10 97 -10 63.5 -10 c 0,8,9
 30 -10 30 -10 0 0 c 1,10,-1
 0 20 l 1,11,12
 53 26 53 26 95 100 c 2,13,-1
 155 205 l 1,14,15
 107 213 107 213 73.5 247.5 c 128,-1,16
 40 282 40 282 40 335 c 0,17,18
 40 470 40 470 240 470 c 2,19,-1
 475 470 l 1,20,-1
 475 450 l 1,21,22
 433 450 433 450 419 425.5 c 128,-1,23
 405 401 405 401 405 350 c 2,0,-1
315 245 m 1,24,-1
 315 425 l 1,25,26
 285 435 285 435 250 435 c 0,27,28
 135 435 135 435 135 335 c 128,-1,29
 135 235 135 235 250 235 c 0,30,31
 285 235 285 235 315 245 c 1,24,-1
EndSplineSet
EndChar

StartChar: afii10065
Encoding: 1072 1072 157
Width: 485
Flags: HMW
HStem: -10 45<205 222.5> 0 21G<365 415 365 365> 230 40<245 325 295 325> 440 40<210 250>
VStem: 40 95<97.5 160 97.5 185> 325 90<45 45 95 230 230 230>
LayerCount: 2
Fore
SplineSet
325 95 m 1,0,-1
 325 230 l 1,1,-1
 295 230 l 2,2,3
 221 230 221 230 178 202.5 c 128,-1,4
 135 175 135 175 135 129.5 c 128,-1,5
 135 84 135 84 162.5 59.5 c 128,-1,6
 190 35 190 35 230 35 c 0,7,8
 285 35 285 35 325 95 c 1,0,-1
415 0 m 1,9,-1
 365 0 l 1,10,-1
 330 45 l 1,11,-1
 325 45 l 1,12,13
 281 -10 281 -10 185 -10 c 0,14,15
 137.207 -10 137.207 -10 92 18.5 c 0,16,17
 69 33 69 33 54.5 62 c 128,-1,18
 40 91 40 91 40 130 c 0,19,20
 40 270 40 270 295 270 c 2,21,-1
 325 270 l 1,22,23
 325 368 325 368 298 404 c 128,-1,24
 271 440 271 440 220 440 c 0,25,26
 130 440 130 440 110 355 c 1,27,-1
 65 355 l 1,28,29
 65 395.182 65 395.182 71.5 414.091 c 128,-1,30
 78 433 78 433 90 445 c 0,31,32
 125 480 125 480 240 480 c 0,33,34
 313.81 480 313.81 480 360.5 443 c 0,35,36
 415 399.811 415 399.811 415 270 c 2,37,-1
 415 0 l 1,9,-1
EndSplineSet
EndChar

StartChar: afii10066
Encoding: 1073 1073 158
Width: 485
Flags: HMW
HStem: -10 40<215 275 215 305> 400 40<215 275> 660 20G<405 425 425 425>
VStem: 35 95<230 270 270 285 142.5 392.5> 360 95<142.5 285>
LayerCount: 2
Fore
SplineSet
245 400 m 128,-1,1
 195 400 195 400 162.5 356.5 c 128,-1,2
 130 313 130 313 130 215 c 0,3,4
 130 30 130 30 245 30 c 128,-1,5
 360 30 360 30 360 215 c 0,6,7
 360 313 360 313 327.5 356.5 c 128,-1,0
 295 400 295 400 245 400 c 128,-1,1
395 570 m 2,8,-1
 220 530 l 2,9,10
 151 514 151 514 119 466 c 128,-1,11
 87 418 87 418 80 300 c 1,12,-1
 85 300 l 1,13,14
 104 374 104 374 146.5 407 c 128,-1,15
 189 440 189 440 267.5 440 c 128,-1,16
 346 440 346 440 400.5 382.5 c 128,-1,17
 455 325 455 325 455 214 c 128,-1,18
 455 103 455 103 397.5 46.5 c 128,-1,19
 340 -10 340 -10 244.5 -10 c 128,-1,20
 149 -10 149 -10 92 49 c 128,-1,21
 35 108 35 108 35 230 c 2,22,-1
 35 270 l 2,23,24
 35 497 35 497 95 557 c 0,25,26
 125 587 125 587 180 600 c 2,27,-1
 330 635 l 2,28,29
 367 643 367 643 384 652.5 c 128,-1,30
 401 662 401 662 405 680 c 1,31,-1
 425 680 l 1,32,-1
 425 615 l 2,33,34
 425 577.5 425 577.5 395 570 c 2,8,-1
EndSplineSet
EndChar

StartChar: afii10067
Encoding: 1074 1074 159
Width: 485
Flags: HMW
HStem: 0 35<215 235> 225 40<160 215 160 215> 435 35<215 235 235 255> 450 20<-10 0 -10 235>
VStem: 70 90<45 225 45 265 265 350 350 380> 330 95<322.5 377.5> 350 95<97.5 160 80 162.5>
LayerCount: 2
Fore
SplineSet
215 225 m 2,0,-1
 160 225 l 1,1,-1
 160 45 l 1,2,3
 190 35 190 35 225 35 c 0,4,5
 350 35 350 35 350 130 c 128,-1,6
 350 225 350 225 215 225 c 2,0,-1
160 425 m 1,7,-1
 160 265 l 1,8,-1
 215 265 l 2,9,10
 268 265 268 265 299 287 c 128,-1,11
 330 309 330 309 330 349.5 c 0,12,13
 330 390 330 390 300.5 412.5 c 128,-1,14
 271 435 271 435 230.5 435 c 0,15,16
 190 435 190 435 160 425 c 1,7,-1
-10 470 m 1,17,-1
 235 470 l 2,18,19
 318 470 318 470 371.5 441.5 c 128,-1,20
 425 413 425 413 425 350 c 0,21,22
 425 266 425 266 325 245 c 1,23,24
 382 234 382 234 413.5 204 c 128,-1,25
 445 174 445 174 445 130 c 0,26,27
 445 0 445 0 235 0 c 2,28,-1
 70 0 l 1,29,-1
 70 350 l 2,30,31
 70 401 70 401 56 425.5 c 128,-1,32
 42 450 42 450 0 450 c 2,33,-1
 -10 450 l 1,34,-1
 -10 470 l 1,17,-1
EndSplineSet
EndChar

StartChar: afii10068
Encoding: 1075 1075 160
Width: 405
Flags: HMW
HStem: 0 21G<70 70 70 160> 430 40<160 270 160 160>
VStem: 70 90<0 350 350 380> 375 20<330 362.5>
LayerCount: 2
Fore
SplineSet
70 0 m 1,0,-1
 70 350 l 2,1,2
 70 401 70 401 56 425.5 c 128,-1,3
 42 450 42 450 0 450 c 2,4,-1
 -10 450 l 1,5,-1
 -10 470 l 1,6,-1
 320 470 l 2,7,8
 395 470 395 470 395 390 c 2,9,-1
 395 330 l 1,10,-1
 375 330 l 1,11,12
 375 377 375 377 346 403.5 c 128,-1,13
 317 430 317 430 270 430 c 2,14,-1
 160 430 l 1,15,-1
 160 0 l 1,16,-1
 70 0 l 1,0,-1
EndSplineSet
EndChar

StartChar: afii10069
Encoding: 1076 1076 161
Width: 540
Flags: HMW
HStem: -155 195<35 40 0 65 490 495 495 505 490 490> 0 40<135 145 145 365> 430 40<190 365 190 190> 450 20<55 85>
VStem: 125 55 365 90<40 430 430 430>
LayerCount: 2
Fore
SplineSet
125 350 m 0,0,1
 125 401 125 401 111 425.5 c 128,-1,2
 97 450 97 450 55 450 c 1,3,-1
 55 470 l 1,4,-1
 455 470 l 1,5,-1
 455 40 l 1,6,-1
 495 40 l 2,7,8
 510 40 510 40 520 30 c 128,-1,9
 530 20 530 20 530 5 c 2,10,-1
 530 -155 l 1,11,-1
 490 -155 l 1,12,13
 482 -72 482 -72 458 -36 c 128,-1,14
 434 0 434 0 385 0 c 2,15,-1
 145 0 l 2,16,17
 96 0 96 0 72 -36 c 128,-1,18
 48 -72 48 -72 40 -155 c 1,19,-1
 0 -155 l 1,20,-1
 0 5 l 2,21,22
 0 20 0 20 10 30 c 128,-1,23
 20 40 20 40 35 40 c 2,24,-1
 65 40 l 1,25,26
 125 173 125 173 125 350 c 0,0,1
135 40 m 1,27,-1
 365 40 l 1,28,-1
 365 430 l 1,29,-1
 190 430 l 1,30,31
 190 178 190 178 135 40 c 1,27,-1
EndSplineSet
EndChar

StartChar: afii10070
Encoding: 1077 1077 162
Width: 475
Flags: HMW
HStem: -10 40<227.5 287.5> 220 40<135 345 135 433 135 345> 435 45<210 275>
VStem: 40 95<167.5 220 260 302.5> 345 90<260 315>
LayerCount: 2
Fore
SplineSet
435 260 m 1,0,-1
 433 220 l 1,1,-1
 135 220 l 1,2,3
 135 136 135 136 171 83 c 128,-1,4
 207 30 207 30 270 30 c 0,5,6
 354 30 354 30 410 110 c 1,7,-1
 430 95 l 1,8,9
 367 -10 367 -10 250 -10 c 0,10,11
 149 -10 149 -10 94.5 59 c 128,-1,12
 40 128 40 128 40 234 c 0,13,14
 40 340 40 340 92 410 c 128,-1,15
 144 480 144 480 239.5 480 c 0,16,17
 335 480 335 480 385 423.5 c 128,-1,18
 435 367 435 367 435 260 c 1,0,-1
135 260 m 1,19,-1
 345 260 l 1,20,21
 345 344 345 344 318.5 389.5 c 128,-1,22
 292 435 292 435 243.5 435 c 0,23,24
 195 435 195 435 165 385 c 128,-1,25
 135 335 135 335 135 260 c 1,19,-1
EndSplineSet
EndChar

StartChar: afii10072
Encoding: 1078 1078 163
Width: 650
Flags: HMW
HStem: -10 21G<30 65 585 620> 0 21G<-10 -10 280 370 280 280 660 660> 445 25<20 40 610 630>
VStem: 280 90<0 215 0 215 230 470>
LayerCount: 2
Fore
SplineSet
280 230 m 1,0,-1
 280 470 l 1,1,-1
 370 470 l 1,2,-1
 370 230 l 1,3,-1
 475 405 l 2,4,5
 515 470 515 470 605 470 c 2,6,-1
 630 470 l 1,7,-1
 630 445 l 1,8,9
 564 445 564 445 535 400 c 1,10,-1
 440 245 l 1,11,-1
 545 100 l 2,12,13
 597 27 597 27 660 19 c 1,14,-1
 660 0 l 1,15,16
 640 -10 640 -10 610 -10 c 0,17,18
 533 -10 533 -10 475 70 c 2,19,-1
 370 215 l 1,20,-1
 370 0 l 1,21,-1
 280 0 l 1,22,-1
 280 215 l 1,23,-1
 175 70 l 2,24,25
 117 -10 117 -10 40 -10 c 0,26,27
 10 -10 10 -10 -10 0 c 1,28,-1
 -10 19 l 1,29,30
 53 27 53 27 105 100 c 2,31,-1
 210 245 l 1,32,-1
 115 400 l 1,33,34
 86 445 86 445 20 445 c 1,35,-1
 20 470 l 1,36,-1
 45 470 l 2,37,38
 135 470 135 470 175 405 c 2,39,-1
 280 230 l 1,0,-1
EndSplineSet
EndChar

StartChar: afii10073
Encoding: 1079 1079 164
Width: 435
Flags: HMW
HStem: -10 40<150 215 137.5 250> 220 40<105 160 105 160> 440 40<167.5 212.5>
VStem: 35 20<335 362.5> 300 95<92.5 155 72.5 157.5>
LayerCount: 2
Fore
SplineSet
105 220 m 1,0,-1
 105 260 l 1,1,-1
 160 260 l 2,2,3
 285 260 285 260 285 350 c 0,4,5
 285 393 285 393 256.5 416.5 c 128,-1,6
 228 440 228 440 179.5 440 c 128,-1,7
 131 440 131 440 94.5 411.5 c 128,-1,8
 58 383 58 383 55 335 c 1,9,-1
 35 335 l 1,10,11
 35 392.818 35 392.818 41.5 412.909 c 128,-1,12
 48 433 48 433 60 445 c 0,13,14
 95 480 95 480 186 480 c 128,-1,15
 277 480 277 480 328.5 449.5 c 128,-1,16
 380 419 380 419 380 350 c 0,17,18
 380 265 380 265 280 240 c 1,19,20
 334 228 334 228 364.5 198.5 c 128,-1,21
 395 169 395 169 395 125 c 0,22,23
 395 -10 395 -10 195 -10 c 0,24,25
 82 -10 82 -10 20 70 c 1,26,-1
 40 85 l 1,27,28
 95 30 95 30 175 30 c 0,29,30
 300 30 300 30 300 125 c 128,-1,31
 300 220 300 220 160 220 c 2,32,-1
 105 220 l 1,0,-1
EndSplineSet
EndChar

StartChar: afii10074
Encoding: 1080 1080 165
Width: 550
Flags: HMW
HStem: 0 21G<80 170 80 80 380 470 380 380> 450 20<-5 10 -5 80>
VStem: 80 90<90 350> 380 90<0 380 380 380 0 470>
LayerCount: 2
Fore
SplineSet
380 0 m 1,0,-1
 380 380 l 1,1,-1
 170 0 l 1,2,-1
 80 0 l 1,3,-1
 80 350 l 2,4,5
 80 401 80 401 66 425.5 c 128,-1,6
 52 450 52 450 10 450 c 2,7,-1
 -5 450 l 1,8,-1
 -5 470 l 1,9,-1
 80 470 l 2,10,11
 134 470 134 470 152 447 c 128,-1,12
 170 424 170 424 170 350 c 2,13,-1
 170 90 l 1,14,-1
 380 470 l 1,15,-1
 470 470 l 1,16,-1
 470 0 l 1,17,-1
 380 0 l 1,0,-1
EndSplineSet
EndChar

StartChar: afii10075
Encoding: 1081 1081 166
Width: 550
Flags: HMW
HStem: 0 21G<80 170 80 80 380 470 380 380> 450 20<-5 10 -5 80> 510 55<247.5 302.5 247.5 307.5> 585 20G<165 165 385 385>
VStem: 80 90<90 350> 380 90<0 380 380 380 0 470>
LayerCount: 2
Fore
SplineSet
380 0 m 1,0,-1
 380 380 l 1,1,-1
 170 0 l 1,2,-1
 80 0 l 1,3,-1
 80 350 l 2,4,5
 80 401 80 401 66 425.5 c 128,-1,6
 52 450 52 450 10 450 c 2,7,-1
 -5 450 l 1,8,-1
 -5 470 l 1,9,-1
 80 470 l 2,10,11
 134 470 134 470 152 447 c 128,-1,12
 170 424 170 424 170 350 c 2,13,-1
 170 90 l 1,14,-1
 380 470 l 1,15,-1
 470 470 l 1,16,-1
 470 0 l 1,17,-1
 380 0 l 1,0,-1
275 565 m 128,-1,19
 345 565 345 565 385 605 c 1,20,-1
 405 590 l 1,21,22
 361 510 361 510 275 510 c 128,-1,23
 189 510 189 510 145 590 c 1,24,-1
 165 605 l 1,25,18
 205 565 205 565 275 565 c 128,-1,19
EndSplineSet
EndChar

StartChar: afii10076
Encoding: 1082 1082 167
Width: 470
Flags: HMW
HStem: -10 21G<405 440> 0 21G<80 170 80 80 480 480> 450 20<-10 10 -10 80>
VStem: 80 90<0 215 230 350>
LayerCount: 2
Fore
SplineSet
170 350 m 2,0,-1
 170 230 l 1,1,-1
 295 405 l 2,2,3
 342 470 342 470 425 470 c 2,4,-1
 450 470 l 1,5,-1
 450 445 l 1,6,7
 392 445 392 445 360 400 c 2,8,-1
 250 245 l 1,9,-1
 365 100 l 2,10,11
 422 27 422 27 480 19 c 1,12,-1
 480 0 l 1,13,14
 460 -10 460 -10 430 -10 c 0,15,16
 349 -10 349 -10 285 70 c 2,17,-1
 170 215 l 1,18,-1
 170 0 l 1,19,-1
 80 0 l 1,20,-1
 80 350 l 2,21,22
 80 401 80 401 66 425.5 c 128,-1,23
 52 450 52 450 10 450 c 2,24,-1
 -10 450 l 1,25,-1
 -10 470 l 1,26,-1
 80 470 l 2,27,28
 134 470 134 470 152 447 c 128,-1,29
 170 424 170 424 170 350 c 2,0,-1
EndSplineSet
EndChar

StartChar: afii10077
Encoding: 1083 1083 168
Width: 530
Flags: HMW
HStem: -10 35 0 21G<360 450 360 360> 430 40<180 180 180 360> 450 20<44 74.5>
VStem: 115 55 360 90<0 430 430 430>
LayerCount: 2
Fore
SplineSet
180 430 m 1,0,-1
 180 350 l 2,1,2
 180 150 180 150 147 70 c 128,-1,3
 114 -10 114 -10 48 -10 c 0,4,5
 28 -10 28 -10 5 -1 c 1,6,-1
 5 24 l 1,7,8
 40 24 40 24 63 50 c 128,-1,9
 86 76 86 76 100.5 150.5 c 128,-1,10
 115 225 115 225 115 350 c 0,11,12
 115 401 115 401 100.5 425.5 c 128,-1,13
 86 450 86 450 44 450 c 1,14,-1
 44 470 l 1,15,-1
 450 470 l 1,16,-1
 450 0 l 1,17,-1
 360 0 l 1,18,-1
 360 430 l 1,19,-1
 180 430 l 1,0,-1
EndSplineSet
EndChar

StartChar: afii10078
Encoding: 1084 1084 169
Width: 635
Flags: HMW
HStem: -20 21G<567.5 630> 450 20G<70 165 165 165 465 555 555 555>
VStem: 70 40<0 375 0 470> 465 90<150 365 365 365>
LayerCount: 2
Fore
SplineSet
465 365 m 1,0,-1
 300 0 l 1,1,-1
 280 0 l 1,2,-1
 110 375 l 1,3,-1
 110 0 l 1,4,-1
 70 0 l 1,5,-1
 70 470 l 1,6,-1
 165 470 l 1,7,-1
 315 140 l 1,8,-1
 465 470 l 1,9,-1
 555 470 l 1,10,-1
 555 150 l 2,11,12
 555 91 555 91 576.5 45.5 c 128,-1,13
 598 0 598 0 630 0 c 1,14,-1
 630 -20 l 1,15,16
 540 -20 540 -20 502.5 23 c 128,-1,17
 465 66 465 66 465 150 c 2,18,-1
 465 365 l 1,0,-1
EndSplineSet
EndChar

StartChar: afii10079
Encoding: 1085 1085 170
Width: 540
Flags: HMW
HStem: 0 20<530 545 530 545> 215 40<170 370 170 370> 450 20<-5 10 -5 80>
VStem: 80 90<0 215 0 255 255 350> 370 90<120 215 215 215 255 470>
CounterMasks: 1 e0
LayerCount: 2
Fore
SplineSet
370 120 m 2,0,-1
 370 215 l 1,1,-1
 170 215 l 1,2,-1
 170 0 l 1,3,-1
 80 0 l 1,4,-1
 80 350 l 2,5,6
 80 401 80 401 66 425.5 c 128,-1,7
 52 450 52 450 10 450 c 2,8,-1
 -5 450 l 1,9,-1
 -5 470 l 1,10,-1
 80 470 l 2,11,12
 134 470 134 470 152 447 c 128,-1,13
 170 424 170 424 170 350 c 2,14,-1
 170 255 l 1,15,-1
 370 255 l 1,16,-1
 370 470 l 1,17,-1
 460 470 l 1,18,-1
 460 120 l 2,19,20
 460 69 460 69 474 44.5 c 128,-1,21
 488 20 488 20 530 20 c 2,22,-1
 545 20 l 1,23,-1
 545 0 l 1,24,-1
 460 0 l 2,25,26
 406 0 406 0 388 23 c 128,-1,27
 370 46 370 46 370 120 c 2,0,-1
EndSplineSet
EndChar

StartChar: afii10080
Encoding: 1086 1086 171
Width: 500
Flags: HMW
HStem: -10 40<212.5 287.5 212.5 320> 440 40<212.5 287.5>
VStem: 30 95<177.5 292.5 177.5 302.5> 375 95<177.5 292.5>
LayerCount: 2
Fore
SplineSet
375 235 m 128,-1,1
 375 323 375 323 340 381.5 c 128,-1,2
 305 440 305 440 250 440 c 128,-1,3
 195 440 195 440 160 381.5 c 128,-1,4
 125 323 125 323 125 235 c 128,-1,5
 125 147 125 147 160 88.5 c 128,-1,6
 195 30 195 30 250 30 c 128,-1,7
 305 30 305 30 340 88.5 c 128,-1,0
 375 147 375 147 375 235 c 128,-1,1
30 235 m 128,-1,9
 30 340 30 340 89 410 c 128,-1,10
 148 480 148 480 250 480 c 128,-1,11
 352 480 352 480 411 410 c 128,-1,12
 470 340 470 340 470 235 c 128,-1,13
 470 130 470 130 411 60 c 128,-1,14
 352 -10 352 -10 250 -10 c 128,-1,15
 148 -10 148 -10 89 60 c 128,-1,8
 30 130 30 130 30 235 c 128,-1,9
EndSplineSet
EndChar

StartChar: afii10081
Encoding: 1087 1087 172
Width: 520
Flags: HMW
HStem: 0 21G<80 170 80 80 370 460 370 370> 450 20<0 10 0 460>
VStem: 80 90<0 350 350 380> 370 90<0 430 430 430>
LayerCount: 2
Fore
SplineSet
460 470 m 1,0,-1
 460 0 l 1,1,-1
 370 0 l 1,2,-1
 370 430 l 1,3,-1
 170 430 l 1,4,-1
 170 0 l 1,5,-1
 80 0 l 1,6,-1
 80 350 l 2,7,8
 80 401 80 401 66 425.5 c 128,-1,9
 52 450 52 450 10 450 c 2,10,-1
 0 450 l 1,11,-1
 0 470 l 1,12,-1
 460 470 l 1,0,-1
EndSplineSet
EndChar

StartChar: afii10082
Encoding: 1088 1088 173
Width: 525
Flags: HMW
HStem: -190 21G<80 80 80 170> -10 40<267.5 310 250 360> 440 40<267.5 315>
VStem: 80 90<-190 20 60 350 350 380> 390 95<177.5 292.5>
LayerCount: 2
Fore
SplineSet
170 380 m 1,0,-1
 170 60 l 1,1,2
 230 30 230 30 265 30 c 0,3,4
 329 30 329 30 359.5 86 c 128,-1,5
 390 142 390 142 390 234.5 c 0,6,7
 390 327 390 327 361 383.5 c 128,-1,8
 332 440 332 440 271 440 c 0,9,10
 210 440 210 440 170 380 c 1,0,-1
80 -190 m 1,11,-1
 80 350 l 2,12,13
 80 401 80 401 66 425.5 c 128,-1,14
 52 450 52 450 10 450 c 2,15,-1
 -10 450 l 1,16,-1
 -10 470 l 1,17,-1
 80 470 l 2,18,19
 150 470 150 470 165 425 c 1,20,-1
 170 425 l 1,21,22
 214 480 214 480 302.5 480 c 0,23,24
 391 480 391 480 438 411 c 128,-1,25
 485 342 485 342 485 235 c 128,-1,26
 485 128 485 128 436.5 59 c 128,-1,27
 388 -10 388 -10 295 -10 c 0,28,29
 230 -10 230 -10 170 20 c 1,30,-1
 170 -190 l 1,31,-1
 80 -190 l 1,11,-1
EndSplineSet
EndChar

StartChar: afii10083
Encoding: 1089 1089 174
Width: 455
Flags: HMW
HStem: -10 40<220 290> 440 40<220 285 175 305>
VStem: 30 95<177.5 292.5 177.5 302.5> 400 20<315 352.5>
LayerCount: 2
Fore
SplineSet
86 411 m 128,-1,1
 142 480 142 480 251 480 c 128,-1,2
 360 480 360 480 395 445 c 0,3,4
 412 428 412 428 416 403.5 c 128,-1,5
 420 379 420 379 420 315 c 1,6,-1
 400 315 l 1,7,8
 396 376 396 376 360.5 408 c 128,-1,9
 325 440 325 440 270 440 c 0,10,11
 198 440 198 440 161.5 383 c 128,-1,12
 125 326 125 326 125 235 c 128,-1,13
 125 144 125 144 161.5 87 c 128,-1,14
 198 30 198 30 270 30 c 0,15,16
 320 30 320 30 353.5 50 c 128,-1,17
 387 70 387 70 415 110 c 1,18,-1
 435 95 l 1,19,20
 372 -10 372 -10 250 -10 c 0,21,22
 142 -10 142 -10 86 59 c 128,-1,23
 30 128 30 128 30 235 c 128,-1,0
 30 342 30 342 86 411 c 128,-1,1
EndSplineSet
EndChar

StartChar: afii10084
Encoding: 1090 1090 175
Width: 440
Flags: HMW
HStem: 0 21G<185 275 185 185> 430 40<105 135 135 185 275 275 275 440>
VStem: 10 20<330 362.5 330 390> 185 90<0 430 0 430>
LayerCount: 2
Fore
SplineSet
185 430 m 1,0,-1
 135 430 l 2,1,2
 88 430 88 430 59 403.5 c 128,-1,3
 30 377 30 377 30 330 c 1,4,-1
 10 330 l 1,5,-1
 10 390 l 2,6,7
 10 470 10 470 85 470 c 2,8,-1
 440 470 l 1,9,-1
 440 430 l 1,10,-1
 275 430 l 1,11,-1
 275 0 l 1,12,-1
 185 0 l 1,13,-1
 185 430 l 1,0,-1
EndSplineSet
EndChar

StartChar: afii10085
Encoding: 1091 1091 176
Width: 485
Flags: HMW
HStem: -200 30<80 110 80 110> 460 20G<-30 55>
LayerCount: 2
Fore
SplineSet
215 -65 m 2,0,-1
 235 -10 l 1,1,-1
 80 380 l 2,2,3
 51 452 51 452 -30 460 c 1,4,-1
 -30 480 l 1,5,-1
 55 480 l 2,6,7
 143 480 143 480 175 400 c 2,8,-1
 285 125 l 1,9,-1
 415 470 l 1,10,-1
 465 470 l 1,11,-1
 265 -65 l 2,12,13
 236 -144 236 -144 201 -172 c 128,-1,14
 166 -200 166 -200 110 -200 c 2,15,-1
 80 -200 l 1,16,-1
 80 -170 l 1,17,18
 129 -170 129 -170 161 -147.5 c 128,-1,19
 193 -125 193 -125 215 -65 c 2,0,-1
EndSplineSet
EndChar

StartChar: afii10086
Encoding: 1092 1092 177
Width: 630
Flags: HMW
HStem: -190 21G<270 360 270 270> 640 20<185 200 185 270>
VStem: 30 95<175 295 175 302.5> 271 88<25 445 25 445> 505 95<175 295>
CounterMasks: 1 38
LayerCount: 2
Fore
SplineSet
359 445 m 1,0,-1
 359 25 l 1,1,2
 433 32 433 32 469 87 c 128,-1,3
 505 142 505 142 505 235 c 128,-1,4
 505 328 505 328 469 383 c 128,-1,5
 433 438 433 438 359 445 c 1,0,-1
270 480 m 1,6,-1
 270 540 l 2,7,8
 270 591 270 591 256 615.5 c 128,-1,9
 242 640 242 640 200 640 c 2,10,-1
 185 640 l 1,11,-1
 185 660 l 1,12,-1
 270 660 l 2,13,14
 324 660 324 660 342 637 c 128,-1,15
 360 614 360 614 360 540 c 2,16,-1
 360 480 l 1,17,18
 476 476 476 476 538 408.5 c 128,-1,19
 600 341 600 341 600 235 c 128,-1,20
 600 129 600 129 538 61.5 c 128,-1,21
 476 -6 476 -6 360 -10 c 1,22,-1
 360 -190 l 1,23,-1
 270 -190 l 1,24,-1
 270 -10 l 1,25,26
 154 -6 154 -6 92 61.5 c 128,-1,27
 30 129 30 129 30 235 c 128,-1,28
 30 341 30 341 92 408.5 c 128,-1,29
 154 476 154 476 270 480 c 1,6,-1
271 25 m 1,30,-1
 271 445 l 1,31,32
 197 438 197 438 161 383 c 128,-1,33
 125 328 125 328 125 235 c 128,-1,34
 125 142 125 142 161 87 c 128,-1,35
 197 32 197 32 271 25 c 1,30,-1
EndSplineSet
EndChar

StartChar: afii10087
Encoding: 1093 1093 178
Width: 450
Flags: HMW
HStem: 0 21G<20 70 20 20 352.5 375 375 465> 450 20G<-10 75>
LayerCount: 2
Fore
SplineSet
262 80 m 2,0,-1
 200 185 l 1,1,-1
 70 0 l 1,2,-1
 20 0 l 1,3,-1
 180 225 l 1,4,-1
 93 370 l 1,5,6
 51 442 51 442 -10 450 c 1,7,-1
 -10 470 l 1,8,-1
 75 470 l 2,9,10
 141 470 141 470 188 390 c 2,11,-1
 250 285 l 1,12,-1
 380 470 l 1,13,-1
 430 470 l 1,14,-1
 270 245 l 1,15,-1
 357 100 l 1,16,17
 399 27 399 27 465 20 c 1,18,-1
 465 0 l 1,19,-1
 375 0 l 2,20,21
 309 0 309 0 262 80 c 2,0,-1
EndSplineSet
EndChar

StartChar: afii10088
Encoding: 1094 1094 179
Width: 540
Flags: HMW
HStem: -155 21G<495 535 495 495> 0 40<170 370 170 390> 450 20<-5 10 -5 80>
VStem: 80 90<40 350 40 350 40 380> 370 90<40 470 40 470>
LayerCount: 2
Fore
SplineSet
390 0 m 2,0,-1
 80 0 l 1,1,-1
 80 350 l 2,2,3
 80 401 80 401 66 425.5 c 128,-1,4
 52 450 52 450 10 450 c 2,5,-1
 -5 450 l 1,6,-1
 -5 470 l 1,7,-1
 80 470 l 2,8,9
 134 470 134 470 152 447 c 128,-1,10
 170 424 170 424 170 350 c 2,11,-1
 170 40 l 1,12,-1
 370 40 l 1,13,-1
 370 470 l 1,14,-1
 460 470 l 1,15,-1
 460 40 l 1,16,-1
 500 40 l 2,17,18
 515 40 515 40 525 30 c 128,-1,19
 535 20 535 20 535 5 c 2,20,-1
 535 -155 l 1,21,-1
 495 -155 l 1,22,23
 487 -72 487 -72 463 -36 c 128,-1,24
 439 0 439 0 390 0 c 2,0,-1
EndSplineSet
EndChar

StartChar: afii10089
Encoding: 1095 1095 180
Width: 510
Flags: HMW
HStem: 0 21G<340 430 340 340> 175 40<222.5 262.5> 450 20<-20 -10 -20 65>
VStem: 60 95<320 350 275 380> 340 90<0 193 193 193 233 470 0 470>
LayerCount: 2
Fore
SplineSet
181 238 m 128,-1,1
 207 215 207 215 251 215 c 128,-1,2
 295 215 295 215 340 233 c 1,3,-1
 340 470 l 1,4,-1
 430 470 l 1,5,-1
 430 0 l 1,6,-1
 340 0 l 1,7,-1
 340 193 l 1,8,9
 295 175 295 175 240 175 c 0,10,11
 60 175 60 175 60 320 c 2,12,-1
 60 350 l 2,13,14
 60 401 60 401 46 425.5 c 128,-1,15
 32 450 32 450 -10 450 c 2,16,-1
 -20 450 l 1,17,-1
 -20 470 l 1,18,-1
 65 470 l 2,19,20
 119 470 119 470 137 447 c 128,-1,21
 155 424 155 424 155 350 c 2,22,-1
 155 310 l 2,23,0
 155 261 155 261 181 238 c 128,-1,1
EndSplineSet
EndChar

StartChar: afii10090
Encoding: 1096 1096 181
Width: 740
Flags: HMW
HStem: 0 40<170 325 415 570> 450 20<-5 10 -5 80>
VStem: 80 90<40 350 40 350 40 380> 325 90<40 470 40 470> 570 90<40 470>
CounterMasks: 1 38
LayerCount: 2
Fore
SplineSet
660 0 m 1,0,-1
 80 0 l 1,1,-1
 80 350 l 2,2,3
 80 401 80 401 66 425.5 c 128,-1,4
 52 450 52 450 10 450 c 2,5,-1
 -5 450 l 1,6,-1
 -5 470 l 1,7,-1
 80 470 l 2,8,9
 134 470 134 470 152 447 c 128,-1,10
 170 424 170 424 170 350 c 2,11,-1
 170 40 l 1,12,-1
 325 40 l 1,13,-1
 325 470 l 1,14,-1
 415 470 l 1,15,-1
 415 40 l 1,16,-1
 570 40 l 1,17,-1
 570 470 l 1,18,-1
 660 470 l 1,19,-1
 660 0 l 1,0,-1
EndSplineSet
EndChar

StartChar: afii10091
Encoding: 1097 1097 182
Width: 740
Flags: HMW
HStem: -155 21G<695 735 695 695> 0 40<170 325 415 570> 450 20<-5 10 -5 80>
VStem: 80 90<40 350 40 350 40 380> 325 90<40 470 40 470> 570 90<40 470 40 470>
CounterMasks: 1 1c
LayerCount: 2
Fore
SplineSet
590 0 m 2,0,-1
 80 0 l 1,1,-1
 80 350 l 2,2,3
 80 401 80 401 66 425.5 c 128,-1,4
 52 450 52 450 10 450 c 2,5,-1
 -5 450 l 1,6,-1
 -5 470 l 1,7,-1
 80 470 l 2,8,9
 134 470 134 470 152 447 c 128,-1,10
 170 424 170 424 170 350 c 2,11,-1
 170 40 l 1,12,-1
 325 40 l 1,13,-1
 325 470 l 1,14,-1
 415 470 l 1,15,-1
 415 40 l 1,16,-1
 570 40 l 1,17,-1
 570 470 l 1,18,-1
 660 470 l 1,19,-1
 660 40 l 1,20,-1
 700 40 l 2,21,22
 715 40 715 40 725 30 c 128,-1,23
 735 20 735 20 735 5 c 2,24,-1
 735 -155 l 1,25,-1
 695 -155 l 1,26,27
 687 -72 687 -72 663 -36 c 128,-1,28
 639 0 639 0 590 0 c 2,0,-1
EndSplineSet
EndChar

StartChar: afii10092
Encoding: 1098 1098 183
Width: 540
Flags: HMW
HStem: 0 35<295 315> 245 35<295 315 315 342.5> 430 40<105 140 140 150>
VStem: 0 25<300 435> 150 90<45 235 45 280 280 430 430 430> 425 95<102.5 177.5>
LayerCount: 2
Fore
SplineSet
240 235 m 1,0,-1
 240 45 l 1,1,2
 270 35 270 35 305 35 c 0,3,4
 425 35 425 35 425 140 c 128,-1,5
 425 245 425 245 305 245 c 0,6,7
 270 245 270 245 240 235 c 1,0,-1
0 300 m 1,8,-1
 0 435 l 2,9,10
 0 450 0 450 10 460 c 128,-1,11
 20 470 20 470 35 470 c 2,12,-1
 240 470 l 1,13,-1
 240 280 l 1,14,-1
 315 280 l 2,15,16
 520 280 520 280 520 140 c 128,-1,17
 520 0 520 0 315 0 c 2,18,-1
 150 0 l 1,19,-1
 150 430 l 1,20,-1
 140 430 l 2,21,22
 32 430 32 430 25 300 c 1,23,-1
 0 300 l 1,8,-1
EndSplineSet
EndChar

StartChar: afii10093
Encoding: 1099 1099 184
Width: 675
Flags: HMW
HStem: 0 35<225 245> 245 35<225 245 245 267.5> 450 20<-5 10 -5 80>
VStem: 80 90<45 235 45 280 280 350> 345 95<102.5 177.5> 505 90<120 470>
LayerCount: 2
Fore
SplineSet
170 235 m 1,0,-1
 170 45 l 1,1,2
 200 35 200 35 235 35 c 0,3,4
 345 35 345 35 345 140 c 128,-1,5
 345 245 345 245 235 245 c 0,6,7
 200 245 200 245 170 235 c 1,0,-1
170 350 m 2,8,-1
 170 280 l 1,9,-1
 245 280 l 2,10,11
 440 280 440 280 440 140 c 128,-1,12
 440 0 440 0 245 0 c 2,13,-1
 80 0 l 1,14,-1
 80 350 l 2,15,16
 80 401 80 401 66 425.5 c 128,-1,17
 52 450 52 450 10 450 c 2,18,-1
 -5 450 l 1,19,-1
 -5 470 l 1,20,-1
 80 470 l 2,21,22
 134 470 134 470 152 447 c 128,-1,23
 170 424 170 424 170 350 c 2,8,-1
505 120 m 2,24,-1
 505 470 l 1,25,-1
 595 470 l 1,26,-1
 595 120 l 2,27,28
 595 69 595 69 609 44.5 c 128,-1,29
 623 20 623 20 665 20 c 2,30,-1
 680 20 l 1,31,-1
 680 0 l 1,32,-1
 595 0 l 2,33,34
 541 0 541 0 523 23 c 128,-1,35
 505 46 505 46 505 120 c 2,24,-1
EndSplineSet
EndChar

StartChar: afii10094
Encoding: 1100 1100 185
Width: 470
Flags: HMW
HStem: 0 35<225 245> 245 35<225 245 245 272.5> 450 20<-5 10 -5 80>
VStem: 80 90<45 235 45 280 280 350> 355 95<102.5 177.5>
LayerCount: 2
Fore
SplineSet
170 235 m 1,0,-1
 170 45 l 1,1,2
 200 35 200 35 235 35 c 0,3,4
 355 35 355 35 355 140 c 128,-1,5
 355 245 355 245 235 245 c 0,6,7
 200 245 200 245 170 235 c 1,0,-1
170 350 m 2,8,-1
 170 280 l 1,9,-1
 245 280 l 2,10,11
 450 280 450 280 450 140 c 128,-1,12
 450 0 450 0 245 0 c 2,13,-1
 80 0 l 1,14,-1
 80 350 l 2,15,16
 80 401 80 401 66 425.5 c 128,-1,17
 52 450 52 450 10 450 c 2,18,-1
 -5 450 l 1,19,-1
 -5 470 l 1,20,-1
 80 470 l 2,21,22
 134 470 134 470 152 447 c 128,-1,23
 170 424 170 424 170 350 c 2,8,-1
EndSplineSet
EndChar

StartChar: afii10095
Encoding: 1101 1101 186
Width: 455
Flags: HMW
HStem: -10 40<165 231 150 280> 210 40<120 330 120 330> 440 40<170 232.5>
VStem: 35 20<315 352.5> 330 95<210 210 250 250>
LayerCount: 2
Fore
SplineSet
60 445 m 0,0,1
 95 480 95 480 204 480 c 128,-1,2
 313 480 313 480 369 411 c 128,-1,3
 425 342 425 342 425 235 c 128,-1,4
 425 128 425 128 369 59 c 128,-1,5
 313 -10 313 -10 205 -10 c 0,6,7
 83 -10 83 -10 20 95 c 1,8,-1
 40 110 l 1,9,10
 68 70 68 70 101.5 50 c 128,-1,11
 135 30 135 30 185 30 c 0,12,13
 252 30 252 30 289 79 c 128,-1,14
 326 128 326 128 330 210 c 1,15,-1
 120 210 l 1,16,-1
 120 250 l 1,17,-1
 330 250 l 1,18,19
 326 334 326 334 289.5 387 c 128,-1,20
 253 440 253 440 191.5 440 c 128,-1,21
 130 440 130 440 94.5 408 c 128,-1,22
 59 376 59 376 55 315 c 1,23,-1
 35 315 l 1,24,25
 35 379 35 379 39 403.5 c 128,-1,26
 43 428 43 428 60 445 c 0,0,1
EndSplineSet
EndChar

StartChar: afii10096
Encoding: 1102 1102 187
Width: 670
Flags: HMW
HStem: 0 21G<80 170 80 80> 215 40<170 230 170 230> 450 30
VStem: 80 90<0 215 0 255 255 350> 230 95<215 215 255 255> 545 95<167.5 302.5>
LayerCount: 2
Fore
SplineSet
290 418 m 128,-1,1
 346 480 346 480 437 480 c 128,-1,2
 528 480 528 480 584 412.5 c 128,-1,3
 640 345 640 345 640 235 c 128,-1,4
 640 125 640 125 584 57.5 c 128,-1,5
 528 -10 528 -10 437 -10 c 128,-1,6
 346 -10 346 -10 290 52 c 128,-1,7
 234 114 234 114 230 215 c 1,8,-1
 170 215 l 1,9,-1
 170 0 l 1,10,-1
 80 0 l 1,11,-1
 80 350 l 2,12,13
 80 401 80 401 66 425.5 c 128,-1,14
 52 450 52 450 10 450 c 2,15,-1
 -5 450 l 1,16,-1
 -5 470 l 1,17,-1
 80 470 l 2,18,19
 134 470 134 470 152 447 c 128,-1,20
 170 424 170 424 170 350 c 2,21,-1
 170 255 l 1,22,-1
 230 255 l 1,23,0
 234 356 234 356 290 418 c 128,-1,1
435 440 m 128,-1,25
 385 440 385 440 355 387 c 128,-1,26
 325 334 325 334 325 235 c 128,-1,27
 325 136 325 136 355 83 c 128,-1,28
 385 30 385 30 435 30 c 128,-1,29
 485 30 485 30 515 83 c 128,-1,30
 545 136 545 136 545 235 c 128,-1,31
 545 334 545 334 515 387 c 128,-1,24
 485 440 485 440 435 440 c 128,-1,25
EndSplineSet
EndChar

StartChar: afii10019
Encoding: 1042 1042 188
Width: 605
Flags: HMW
HStem: 0 35<270 300> 315 40<190 285 190 285> 625 35<252.5 270 270 305> 640 20<10 30 10 270>
VStem: 100 90<49 315 355 540 540 570> 445 95<455 537.5> 475 100<130 220>
LayerCount: 2
Fore
SplineSet
285 315 m 2,0,-1
 190 315 l 1,1,-1
 190 49 l 1,2,3
 237 35 237 35 285 35 c 0,4,5
 375 35 375 35 425 71.5 c 128,-1,6
 475 108 475 108 475 175.5 c 0,7,8
 475 243 475 243 426.5 279 c 128,-1,9
 378 315 378 315 285 315 c 2,0,-1
190 355 m 1,10,-1
 285 355 l 2,11,12
 350 355 350 355 397.5 390.5 c 128,-1,13
 445 426 445 426 445 491 c 0,14,15
 445 556 445 556 389.5 590.5 c 128,-1,16
 334 625 334 625 265 625 c 0,17,18
 230 625 230 625 190 615 c 1,19,-1
 190 355 l 1,10,-1
10 660 m 1,20,-1
 270 660 l 2,21,22
 540 660 540 660 540 485 c 0,23,24
 540 438 540 438 507.5 400 c 128,-1,25
 475 362 475 362 410 340 c 1,26,27
 502 326 502 326 538.5 285.5 c 128,-1,28
 575 245 575 245 575 180 c 0,29,30
 575 0 575 0 300 0 c 2,31,-1
 100 0 l 1,32,-1
 100 540 l 2,33,34
 100 591 100 591 86 615.5 c 128,-1,35
 72 640 72 640 30 640 c 2,36,-1
 10 640 l 1,37,-1
 10 660 l 1,20,-1
EndSplineSet
EndChar

StartChar: afii10035
Encoding: 1057 1057 189
Width: 635
Flags: HMW
HStem: -20 40<285 400> 640 40<305 395 255 425>
VStem: 30 100<245 420>
LayerCount: 2
Fore
SplineSet
595 450 m 1,0,-1
 575 450 l 1,1,2
 538 640 538 640 370 640 c 0,3,4
 266.74 640 266.74 640 202 570.5 c 0,5,6
 130 493.206 130 493.206 130 320 c 0,7,8
 130 200 130 200 186 114 c 0,9,10
 214 71 214 71 261.5 45.5 c 128,-1,11
 309 20 309 20 370 20 c 0,12,13
 509 20 509 20 595 160 c 1,14,-1
 615 145 l 1,15,16
 568 55 568 55 501.5 17.5 c 128,-1,17
 435 -20 435 -20 340 -20 c 0,18,19
 200 -20 200 -20 115 77 c 128,-1,20
 30 174 30 174 30 322 c 128,-1,21
 30 470 30 470 121 575 c 128,-1,22
 212 680 212 680 340 680 c 0,23,24
 419 680 419 680 480.5 657.5 c 128,-1,25
 542 635 542 635 570 600 c 1,26,27
 590.924 575.588 590.924 575.588 594 511 c 0,28,29
 595 490 595 490 595 450 c 1,0,-1
EndSplineSet
EndChar

StartChar: afii10028
Encoding: 1050 1050 190
Width: 650
Flags: HMW
HStem: -10 21G<587.5 630.5> 0 21G<100 190 100 100 680 680> 640 20<10 30 10 100>
VStem: 100 90<0 330 345 540>
LayerCount: 2
Fore
SplineSet
10 660 m 1,0,-1
 100 660 l 2,1,2
 154 660 154 660 172 637 c 128,-1,3
 190 614 190 614 190 540 c 2,4,-1
 190 345 l 1,5,-1
 424 579.5 l 2,6,7
 475.366 632.293 475.366 632.293 502 644.5 c 0,8,9
 535.818 660 535.818 660 570 660 c 2,10,-1
 620 660 l 1,11,-1
 620 635 l 1,12,13
 578 635 578 635 547 620.5 c 128,-1,14
 516 606 516 606 475 565 c 2,15,-1
 280 370 l 1,16,-1
 510 130 l 2,17,18
 607 28 607 28 680 19 c 1,19,-1
 680 0 l 1,20,21
 650 -10 650 -10 615 -10 c 0,22,23
 514 -10 514 -10 400 110 c 2,24,-1
 190 330 l 1,25,-1
 190 0 l 1,26,-1
 100 0 l 1,27,-1
 100 540 l 2,28,29
 100 591 100 591 86 615.5 c 128,-1,30
 72 640 72 640 30 640 c 2,31,-1
 10 640 l 1,32,-1
 10 660 l 1,0,-1
EndSplineSet
EndChar

StartChar: afii10030
Encoding: 1052 1052 191
Width: 860
Flags: HMW
HStem: -45 20<822.5 855 822.5 855> 0 21G<100 140 100 100 400 420 400 400> 640 20G<100 195 195 195 670 760 760 760>
VStem: 100 40<0 565 0 660> 670 90<170 555 555 555>
LayerCount: 2
Fore
SplineSet
855 -25 m 1,0,-1
 855 -45 l 1,1,2
 749 -45 749 -45 709.5 4.5 c 128,-1,3
 670 54 670 54 670 170 c 2,4,-1
 670 555 l 1,5,-1
 420 0 l 1,6,-1
 400 0 l 1,7,-1
 140 565 l 1,8,-1
 140 0 l 1,9,-1
 100 0 l 1,10,-1
 100 660 l 1,11,-1
 195 660 l 1,12,-1
 435 140 l 1,13,-1
 670 660 l 1,14,-1
 760 660 l 1,15,-1
 760 170 l 2,16,17
 760 -25 760 -25 855 -25 c 1,0,-1
EndSplineSet
EndChar

StartChar: afii10032
Encoding: 1054 1054 192
Width: 680
Flags: HMW
HStem: -20 40<275 405 275 435> 640 40<275 405>
VStem: 30 100<235 425 235 428> 550 100<235 425>
LayerCount: 2
Fore
SplineSet
550 330 m 128,-1,1
 550 473 550 473 493.5 556.5 c 128,-1,2
 437 640 437 640 340 640 c 128,-1,3
 243 640 243 640 186.5 556.5 c 128,-1,4
 130 473 130 473 130 330 c 128,-1,5
 130 187 130 187 186.5 103.5 c 128,-1,6
 243 20 243 20 340 20 c 128,-1,7
 437 20 437 20 493.5 103.5 c 128,-1,0
 550 187 550 187 550 330 c 128,-1,1
30 330 m 128,-1,9
 30 480 30 480 115 580 c 128,-1,10
 200 680 200 680 340 680 c 128,-1,11
 480 680 480 680 565 580 c 128,-1,12
 650 480 650 480 650 330 c 128,-1,13
 650 180 650 180 565 80 c 128,-1,14
 480 -20 480 -20 340 -20 c 128,-1,15
 200 -20 200 -20 115 80 c 128,-1,8
 30 180 30 180 30 330 c 128,-1,9
EndSplineSet
EndChar

StartChar: afii10034
Encoding: 1056 1056 193
Width: 550
Flags: HMW
HStem: 0 21G<100 190 100 100> 270 35<252.5 292.5 252.5 300> 625 35<252.5 270 270 292.5>
VStem: 100 90<0 270 315 540 540 570> 420 100<405 525>
LayerCount: 2
Fore
SplineSet
265 305 m 0,0,1
 318 305 318 305 369 345 c 128,-1,2
 420 385 420 385 420 465 c 128,-1,3
 420 545 420 545 369 585 c 128,-1,4
 318 625 318 625 265 625 c 0,5,6
 230 625 230 625 190 615 c 1,7,-1
 190 315 l 1,8,9
 230 305 230 305 265 305 c 0,0,1
190 270 m 1,10,-1
 190 0 l 1,11,-1
 100 0 l 1,12,-1
 100 540 l 2,13,14
 100 591 100 591 86 615.5 c 128,-1,15
 72 640 72 640 30 640 c 2,16,-1
 10 640 l 1,17,-1
 10 660 l 1,18,-1
 270 660 l 2,19,20
 335.417 660 335.417 660 383.208 644.5 c 128,-1,21
 431 629 431 629 457 608.5 c 128,-1,22
 483 588 483 588 501.5 549.5 c 128,-1,23
 520 511 520 511 520 461.5 c 128,-1,24
 520 412 520 412 502 375.5 c 128,-1,25
 484 339 484 339 459 319.5 c 128,-1,26
 434 300 434 300 401 288 c 0,27,28
 351.5 270 351.5 270 300 270 c 2,29,-1
 190 270 l 1,10,-1
EndSplineSet
EndChar

StartChar: afii10036
Encoding: 1058 1058 194
Width: 540
Flags: HMW
HStem: 0 21G<235 325 235 235> 620 40<105 145 145 235 325 550 325 325>
VStem: 0 20<505 545 505 580> 235 90<0 620 0 620>
LayerCount: 2
Fore
SplineSet
85 660 m 2,0,-1
 550 660 l 1,1,-1
 550 620 l 1,2,-1
 325 620 l 1,3,-1
 325 0 l 1,4,-1
 235 0 l 1,5,-1
 235 620 l 1,6,-1
 145 620 l 2,7,8
 20 620 20 620 20 505 c 1,9,-1
 0 505 l 1,10,-1
 0 580 l 2,11,12
 0 660 0 660 85 660 c 2,0,-1
EndSplineSet
EndChar

StartChar: afii10039
Encoding: 1061 1061 195
Width: 640
Flags: HMW
HStem: 0 20<565 670> 640 20<-20 100>
LayerCount: 2
Fore
SplineSet
305 290 m 1,0,-1
 80 0 l 1,1,-1
 30 0 l 1,2,-1
 280 325 l 1,3,-1
 140 530 l 2,4,5
 116 565 116 565 102 582 c 128,-1,6
 88 599 88 599 55 618.5 c 128,-1,7
 22 638 22 638 -20 640 c 1,8,-1
 -20 660 l 1,9,-1
 100 660 l 2,10,11
 146.923 660 146.923 660 182.5 622.5 c 0,12,13
 211.45 591.985 211.45 591.985 240 550 c 2,14,-1
 340 400 l 1,15,-1
 540 660 l 1,16,-1
 590 660 l 1,17,-1
 365 365 l 1,18,-1
 525 130 l 2,19,20
 596 26 596 26 670 20 c 1,21,-1
 670 0 l 1,22,-1
 565 0 l 2,23,24
 535 0 535 0 506.5 19 c 128,-1,25
 478 38 478 38 462.5 57.5 c 128,-1,26
 447 77 447 77 425 110 c 2,27,-1
 305 290 l 1,0,-1
EndSplineSet
EndChar

StartChar: afii10020
Encoding: 1043 1043 196
Width: 510
Flags: HMW
HStem: 0 21G<100 100 100 190> 620 40<190 365 190 190>
VStem: 100 90<0 540 540 570> 490 20<505 545>
LayerCount: 2
Fore
SplineSet
100 0 m 1,0,-1
 100 540 l 2,1,2
 100 591 100 591 86 615.5 c 128,-1,3
 72 640 72 640 30 640 c 2,4,-1
 10 640 l 1,5,-1
 10 660 l 1,6,-1
 425 660 l 2,7,8
 510 660 510 660 510 580 c 2,9,-1
 510 505 l 1,10,-1
 490 505 l 1,11,12
 490 620 490 620 365 620 c 2,13,-1
 190 620 l 1,14,-1
 190 0 l 1,15,-1
 100 0 l 1,0,-1
EndSplineSet
EndChar

StartChar: afii10018
Encoding: 1041 1041 197
Width: 595
Flags: HMW
HStem: 0 35<270 300> 345 35<270 300 300 340> 640 20<10 30 10 431>
VStem: 100 90<49 331 49 380 380 540 540 570> 465 100<137.5 242.5>
LayerCount: 2
Fore
SplineSet
465 190 m 128,-1,1
 465 267 465 267 417.5 306 c 128,-1,2
 370 345 370 345 285 345 c 0,3,4
 237 345 237 345 190 331 c 1,5,-1
 190 49 l 1,6,7
 237 35 237 35 285 35 c 0,8,9
 370 35 370 35 417.5 74 c 128,-1,0
 465 113 465 113 465 190 c 128,-1,1
10 660 m 1,10,-1
 431 660 l 2,11,12
 516 660 516 660 516 580 c 2,13,-1
 516 505 l 1,14,-1
 496 505 l 1,15,16
 496 620 496 620 371 620 c 2,17,-1
 190 620 l 1,18,-1
 190 380 l 1,19,-1
 300 380 l 2,20,21
 401.077 380 401.077 380 474.5 345.5 c 0,22,23
 516 326 516 326 540.5 286.5 c 128,-1,24
 565 247 565 247 565 190 c 128,-1,25
 565 133 565 133 540.5 93.5 c 128,-1,26
 516 54 516 54 474.5 34.5 c 0,27,28
 401.077 5.51522e-06 401.077 5.51522e-06 300 0 c 2,29,-1
 100 0 l 1,30,-1
 100 540 l 2,31,32
 100 591 100 591 86 615.5 c 128,-1,33
 72 640 72 640 30 640 c 2,34,-1
 10 640 l 1,35,-1
 10 660 l 1,10,-1
EndSplineSet
EndChar

StartChar: afii10024
Encoding: 1046 1046 198
Width: 907
Flags: HMW
HStem: -10 21G<19.5 57.5 849.5 887.5> 0 21G<-30 -30 410 497 410 410 937 937> 635 25<30 52.5 854.5 877>
VStem: 410 87<0 330 0 330 345 660>
LayerCount: 2
Fore
SplineSet
130 130 m 2,0,-1
 320 370 l 1,1,-1
 165 565 l 2,2,3
 110 635 110 635 30 635 c 1,4,-1
 30 660 l 1,5,-1
 80 660 l 2,6,7
 127 660 127 660 163 633 c 128,-1,8
 199 606 199 606 240 555 c 2,9,-1
 410 345 l 1,10,-1
 410 660 l 1,11,-1
 497 660 l 1,12,-1
 497 345 l 1,13,-1
 667 555 l 2,14,15
 708 606 708 606 744 633 c 128,-1,16
 780 660 780 660 827 660 c 2,17,-1
 877 660 l 1,18,-1
 877 635 l 1,19,20
 797 635 797 635 742 565 c 2,21,-1
 587 370 l 1,22,-1
 777 130 l 2,23,24
 812 86 812 86 857.5 55 c 128,-1,25
 903 24 903 24 937 19 c 1,26,-1
 937 0 l 1,27,28
 907 -10 907 -10 872 -10 c 0,29,30
 760 -10 760 -10 667 110 c 2,31,-1
 497 330 l 1,32,-1
 497 0 l 1,33,-1
 410 0 l 1,34,-1
 410 330 l 1,35,-1
 240 110 l 2,36,37
 147 -10 147 -10 35 -10 c 0,38,39
 -0 -10 -0 -10 -30 0 c 1,40,-1
 -30 19 l 1,41,42
 4 24 4 24 49.5 55 c 128,-1,43
 95 86 95 86 130 130 c 2,0,-1
EndSplineSet
EndChar

StartChar: afii10025
Encoding: 1047 1047 199
Width: 550
Flags: HMW
HStem: -20 40<210 297.5 197.5 315> 315 40<135 230 135 230> 460 20G<40 60 40 40> 640 40<220 287.5>
VStem: 420 100<120 212.5>
LayerCount: 2
Fore
SplineSet
135 315 m 1,0,-1
 135 355 l 1,1,-1
 230 355 l 2,2,3
 301 355 301 355 350.5 393.5 c 128,-1,4
 400 432 400 432 400 499.5 c 128,-1,5
 400 567 400 567 355.5 603.5 c 128,-1,6
 311 640 311 640 245 640 c 128,-1,7
 179 640 179 640 129 597.5 c 128,-1,8
 79 555 79 555 60 480 c 1,9,-1
 40 480 l 1,10,11
 40 545.182 40 545.182 46.5 570.591 c 128,-1,12
 53 596 53 596 65 610 c 0,13,14
 91 642 91 642 145.5 661 c 128,-1,15
 200 680 200 680 255 680 c 0,16,17
 495 680 495 680 495 495 c 0,18,19
 495 444 495 444 459.5 403 c 128,-1,20
 424 362 424 362 355 340 c 1,21,22
 445 322 445 322 482.5 280 c 128,-1,23
 520 238 520 238 520 176.5 c 128,-1,24
 520 115 520 115 495.5 75.5 c 128,-1,25
 471 36 471 36 430.5 16.5 c 0,26,27
 354.692 -20 354.692 -20 267.346 -20 c 128,-1,28
 180 -20 180 -20 121.5 8.5 c 128,-1,29
 63 37 63 37 20 105 c 1,30,-1
 40 120 l 1,31,32
 115 20 115 20 245 20 c 0,33,34
 324 20 324 20 372 59 c 128,-1,35
 420 98 420 98 420 167.5 c 128,-1,36
 420 237 420 237 371.5 276 c 128,-1,37
 323 315 323 315 230 315 c 2,38,-1
 135 315 l 1,0,-1
EndSplineSet
EndChar

StartChar: afii10033
Encoding: 1055 1055 200
Width: 650
Flags: HMW
HStem: 0 21G<100 190 100 100 490 580 490 490> 640 20<10 30 10 580>
VStem: 100 90<0 540 540 570> 490 90<0 620 620 620>
LayerCount: 2
Fore
SplineSet
580 660 m 1,0,-1
 580 0 l 1,1,-1
 490 0 l 1,2,-1
 490 620 l 1,3,-1
 190 620 l 1,4,-1
 190 0 l 1,5,-1
 100 0 l 1,6,-1
 100 540 l 2,7,8
 100 591 100 591 86 615.5 c 128,-1,9
 72 640 72 640 30 640 c 2,10,-1
 10 640 l 1,11,-1
 10 660 l 1,12,-1
 580 660 l 1,0,-1
EndSplineSet
EndChar

StartChar: afii10046
Encoding: 1068 1068 201
Width: 595
Flags: HMW
HStem: 0 35<270 300> 345 35<270 300 300 340> 640 20<10 30 10 100>
VStem: 100 90<49 331 49 380 380 540> 465 100<137.5 242.5>
LayerCount: 2
Fore
SplineSet
465 190 m 128,-1,1
 465 267 465 267 417.5 306 c 128,-1,2
 370 345 370 345 285 345 c 0,3,4
 237 345 237 345 190 331 c 1,5,-1
 190 49 l 1,6,7
 237 35 237 35 285 35 c 0,8,9
 370 35 370 35 417.5 74 c 128,-1,0
 465 113 465 113 465 190 c 128,-1,1
190 540 m 2,10,-1
 190 380 l 1,11,-1
 300 380 l 2,12,13
 401.077 380 401.077 380 474.5 345.5 c 0,14,15
 516 326 516 326 540.5 286.5 c 128,-1,16
 565 247 565 247 565 190 c 128,-1,17
 565 133 565 133 540.5 93.5 c 128,-1,18
 516 54 516 54 474.5 34.5 c 0,19,20
 401.077 5.51522e-06 401.077 5.51522e-06 300 0 c 2,21,-1
 100 0 l 1,22,-1
 100 540 l 2,23,24
 100 591 100 591 86 615.5 c 128,-1,25
 72 640 72 640 30 640 c 2,26,-1
 10 640 l 1,27,-1
 10 660 l 1,28,-1
 100 660 l 2,29,30
 154 660 154 660 172 637 c 128,-1,31
 190 614 190 614 190 540 c 2,10,-1
EndSplineSet
EndChar

StartChar: afii10045
Encoding: 1067 1067 202
Width: 820
Flags: HMW
HStem: 0 20<790 810 790 810> 0 35<270 300> 345 35<270 300 300 332.5> 640 20<10 30 10 100>
VStem: 100 90<49 331 380 540> 450 100<137.5 242.5> 630 90<120 660>
LayerCount: 2
Fore
SplineSet
190 540 m 2,0,-1
 190 380 l 1,1,-1
 300 380 l 2,2,3
 480.057 380 480.057 380 533 271 c 0,4,5
 550 236 550 236 550 190 c 128,-1,6
 550 144 550 144 533 109 c 128,-1,7
 516 74 516 74 491 54 c 128,-1,8
 466 34 466 34 431 21 c 0,9,10
 374.462 3.48772e-06 374.462 3.48772e-06 300 0 c 2,11,-1
 100 0 l 1,12,-1
 100 540 l 2,13,14
 100 591 100 591 86 615.5 c 128,-1,15
 72 640 72 640 30 640 c 2,16,-1
 10 640 l 1,17,-1
 10 660 l 1,18,-1
 100 660 l 2,19,20
 154 660 154 660 172 637 c 128,-1,21
 190 614 190 614 190 540 c 2,0,-1
450 190 m 128,-1,23
 450 266 450 266 404.5 305.5 c 128,-1,24
 359 345 359 345 285 345 c 0,25,26
 237 345 237 345 190 331 c 1,27,-1
 190 49 l 1,28,29
 237 35 237 35 285 35 c 0,30,31
 359 35 359 35 404.5 74.5 c 128,-1,22
 450 114 450 114 450 190 c 128,-1,23
630 120 m 2,32,-1
 630 660 l 1,33,-1
 720 660 l 1,34,-1
 720 120 l 2,35,36
 720 69 720 69 734 44.5 c 128,-1,37
 748 20 748 20 790 20 c 2,38,-1
 810 20 l 1,39,-1
 810 0 l 1,40,-1
 720 0 l 2,41,42
 666 0 666 0 648 23 c 128,-1,43
 630 46 630 46 630 120 c 2,32,-1
EndSplineSet
EndChar

StartChar: afii10047
Encoding: 1069 1069 203
Width: 635
Flags: HMW
HStem: -20 40<235 348 215 390> 310 40<174 505 174 505> 640 40<240 327>
VStem: 505 100<310 310 350 350>
CounterMasks: 1 e0
LayerCount: 2
Fore
SplineSet
60 450 m 1,0,-1
 40 450 l 1,1,2
 40 570.833 40 570.833 65 600 c 1,3,4
 93 635 93 635 154.5 657.5 c 128,-1,5
 216 680 216 680 295 680 c 0,6,7
 423 680 423 680 514 575 c 128,-1,8
 605 470 605 470 605 322 c 128,-1,9
 605 174 605 174 520 77 c 128,-1,10
 435 -20 435 -20 295 -20 c 0,11,12
 200 -20 200 -20 133.5 17.5 c 128,-1,13
 67 55 67 55 20 145 c 1,14,-1
 40 160 l 1,15,16
 126 20 126 20 265 20 c 0,17,18
 325 20 325 20 371.5 44.5 c 128,-1,19
 418 69 418 69 446 111 c 0,20,21
 500.907 193.361 500.907 193.361 505 310 c 1,22,-1
 174 310 l 1,23,-1
 174 350 l 1,24,-1
 505 350 l 1,25,26
 498 502 498 502 432.5 571 c 128,-1,27
 367 640 367 640 265 640 c 0,28,29
 97 640 97 640 60 450 c 1,0,-1
EndSplineSet
EndChar

StartChar: afii10048
Encoding: 1070 1070 204
Width: 850
Flags: HMW
HStem: -20 40<490 590 490 620> 0 21G<100 190 100 100> 320 40<190 260 190 261> 640 20<10 30 10 100> 640 40<490 590>
VStem: 100 90<0 320 0 360 360 540> 260 100<320 320> 720 100<230 430>
LayerCount: 2
Fore
SplineSet
348 593 m 128,-1,1
 425 680 425 680 543 680 c 128,-1,2
 661 680 661 680 740.5 583 c 128,-1,3
 820 486 820 486 820 330 c 128,-1,4
 820 174 820 174 740.5 77 c 128,-1,5
 661 -20 661 -20 540.5 -20 c 128,-1,6
 420 -20 420 -20 342 74 c 128,-1,7
 264 168 264 168 260 320 c 1,8,-1
 190 320 l 1,9,-1
 190 0 l 1,10,-1
 100 0 l 1,11,-1
 100 540 l 2,12,13
 100 591 100 591 86 615.5 c 128,-1,14
 72 640 72 640 30 640 c 2,15,-1
 10 640 l 1,16,-1
 10 660 l 1,17,-1
 100 660 l 2,18,19
 154 660 154 660 172 637 c 128,-1,20
 190 614 190 614 190 540 c 2,21,-1
 190 360 l 1,22,-1
 261 360 l 1,23,0
 271 506 271 506 348 593 c 128,-1,1
540 640 m 128,-1,25
 462 640 462 640 411 557.5 c 128,-1,26
 360 475 360 475 360 330 c 128,-1,27
 360 185 360 185 411 102.5 c 128,-1,28
 462 20 462 20 540 20 c 128,-1,29
 618 20 618 20 669 102.5 c 128,-1,30
 720 185 720 185 720 330 c 128,-1,31
 720 475 720 475 669 557.5 c 128,-1,24
 618 640 618 640 540 640 c 128,-1,25
EndSplineSet
EndChar

StartChar: afii10049
Encoding: 1071 1071 205
Width: 570
Flags: HMW
HStem: -10 21G<40 79> 0 21G<390 390 390 480> 270 35<293 327.5 287.5 390 293 293> 625 35<310 327.5> 640 20<520 550 550 560>
VStem: 60 100<405 525 405 550> 390 90<0 270 270 270 315 540 0 615 0 615>
LayerCount: 2
Fore
SplineSet
390 0 m 1,0,-1
 390 270 l 1,1,-1
 293 270 l 1,2,-1
 188 80 l 2,3,4
 160 29 160 29 128 9.5 c 128,-1,5
 96 -10 96 -10 59.5 -10 c 128,-1,6
 23 -10 23 -10 -10 1 c 1,7,-1
 -10 20 l 1,8,9
 58 27 58 27 100 100 c 2,10,-1
 205 280 l 1,11,12
 145 294 145 294 102.5 336.5 c 128,-1,13
 60 379 60 379 60 460 c 0,14,15
 60 511 60 511 78.5 549.5 c 128,-1,16
 97 588 97 588 123 608.5 c 128,-1,17
 149 629 149 629 186 641 c 0,18,19
 244.583 660 244.583 660 310 660 c 2,20,-1
 560 660 l 1,21,-1
 560 640 l 1,22,-1
 550 640 l 2,23,24
 508 640 508 640 494 615.5 c 128,-1,25
 480 591 480 591 480 540 c 2,26,-1
 480 0 l 1,27,-1
 390 0 l 1,0,-1
315 305 m 0,28,29
 350 305 350 305 390 315 c 1,30,-1
 390 615 l 1,31,32
 350 625 350 625 315 625 c 0,33,34
 262 625 262 625 211 585 c 128,-1,35
 160 545 160 545 160 465 c 128,-1,36
 160 385 160 385 211 345 c 128,-1,37
 262 305 262 305 315 305 c 0,28,29
EndSplineSet
EndChar

StartChar: afii10041
Encoding: 1063 1063 206
Width: 610
Flags: HMW
HStem: 0 21G<450 540 450 450> 250 40<270 335> 640 20<-10 0 -10 80>
VStem: 70 100<460 540 385 570> 450 90<0 270 270 270 310 660 0 660>
LayerCount: 2
Fore
SplineSet
205 323.5 m 128,-1,1
 240 290 240 290 321.5 290 c 128,-1,2
 403 290 403 290 450 310 c 1,3,-1
 450 660 l 1,4,-1
 540 660 l 1,5,-1
 540 0 l 1,6,-1
 450 0 l 1,7,-1
 450 270 l 1,8,9
 403 250 403 250 331 250 c 128,-1,10
 259 250 259 250 219 258 c 128,-1,11
 179 266 179 266 143 287 c 0,12,13
 70 329.583 70 329.583 70 460 c 2,14,-1
 70 540 l 2,15,16
 70 591 70 591 56 615.5 c 128,-1,17
 42 640 42 640 0 640 c 2,18,-1
 -10 640 l 1,19,-1
 -10 660 l 1,20,-1
 80 660 l 2,21,22
 134 660 134 660 152 637 c 128,-1,23
 170 614 170 614 170 540 c 2,24,-1
 170 450 l 2,25,0
 170 357 170 357 205 323.5 c 128,-1,1
EndSplineSet
EndChar

StartChar: afii10031
Encoding: 1053 1053 207
Width: 680
Flags: HMW
HStem: 0 20<650 670 650 670> 320 40<190 490 190 490> 640 20<10 30 10 100>
VStem: 100 90<0 320 0 360 360 540> 490 90<120 320 320 320 360 660>
LayerCount: 2
Fore
SplineSet
580 660 m 1,0,-1
 580 120 l 2,1,2
 580 69 580 69 594 44.5 c 128,-1,3
 608 20 608 20 650 20 c 2,4,-1
 670 20 l 1,5,-1
 670 0 l 1,6,-1
 580 0 l 2,7,8
 526 0 526 0 508 23 c 128,-1,9
 490 46 490 46 490 120 c 2,10,-1
 490 320 l 1,11,-1
 190 320 l 1,12,-1
 190 0 l 1,13,-1
 100 0 l 1,14,-1
 100 540 l 2,15,16
 100 591 100 591 86 615.5 c 128,-1,17
 72 640 72 640 30 640 c 2,18,-1
 10 640 l 1,19,-1
 10 660 l 1,20,-1
 100 660 l 2,21,22
 154 660 154 660 172 637 c 128,-1,23
 190 614 190 614 190 540 c 2,24,-1
 190 360 l 1,25,-1
 490 360 l 1,26,-1
 490 660 l 1,27,-1
 580 660 l 1,0,-1
EndSplineSet
EndChar

StartChar: afii10026
Encoding: 1048 1048 208
Width: 670
Flags: HMW
HStem: 0 21G<100 190 100 100 510 600 510 510> 640 20<10 30 10 100>
VStem: 100 90<90 540> 510 90<0 570 570 570 0 660>
LayerCount: 2
Fore
SplineSet
510 0 m 1,0,-1
 510 570 l 1,1,-1
 190 0 l 1,2,-1
 100 0 l 1,3,-1
 100 540 l 2,4,5
 100 591 100 591 86 615.5 c 128,-1,6
 72 640 72 640 30 640 c 2,7,-1
 10 640 l 1,8,-1
 10 660 l 1,9,-1
 100 660 l 2,10,11
 154 660 154 660 172 637 c 128,-1,12
 190 614 190 614 190 540 c 2,13,-1
 190 90 l 1,14,-1
 510 660 l 1,15,-1
 600 660 l 1,16,-1
 600 0 l 1,17,-1
 510 0 l 1,0,-1
EndSplineSet
EndChar

StartChar: afii10027
Encoding: 1049 1049 209
Width: 670
Flags: HMW
HStem: 0 21G<100 190 100 100 510 600 510 510> 640 20<10 30 10 100> 700 60<322.5 377.5 322.5 382.5> 785 20G<240 240 460 460>
VStem: 100 90<90 540> 510 90<0 570 570 570 0 660>
LayerCount: 2
Fore
SplineSet
510 0 m 1,0,-1
 510 570 l 1,1,-1
 190 0 l 1,2,-1
 100 0 l 1,3,-1
 100 540 l 2,4,5
 100 591 100 591 86 615.5 c 128,-1,6
 72 640 72 640 30 640 c 2,7,-1
 10 640 l 1,8,-1
 10 660 l 1,9,-1
 100 660 l 2,10,11
 154 660 154 660 172 637 c 128,-1,12
 190 614 190 614 190 540 c 2,13,-1
 190 90 l 1,14,-1
 510 660 l 1,15,-1
 600 660 l 1,16,-1
 600 0 l 1,17,-1
 510 0 l 1,0,-1
350 760 m 128,-1,19
 424 760 424 760 460 805 c 1,20,-1
 480 790 l 1,21,22
 439 700 439 700 350 700 c 128,-1,23
 261 700 261 700 220 790 c 1,24,-1
 240 805 l 1,25,18
 276 760 276 760 350 760 c 128,-1,19
EndSplineSet
EndChar

StartChar: afii10029
Encoding: 1051 1051 210
Width: 630
Flags: HMW
HStem: -10 34 0 21G<470 560 470 470> 640 20<65 75 65 560>
VStem: 145 55 470 90<0 620 620 620>
LayerCount: 2
Fore
SplineSet
65 660 m 1,0,-1
 560 660 l 1,1,-1
 560 0 l 1,2,-1
 470 0 l 1,3,-1
 470 620 l 1,4,-1
 210 620 l 1,5,-1
 210 540 l 2,6,7
 210 213.8 210 213.8 164.5 95.5 c 0,8,9
 142 37 142 37 113.5 13.5 c 128,-1,10
 85 -10 85 -10 45 -10 c 0,11,12
 27 -10 27 -10 0 -1 c 1,13,-1
 0 24 l 1,14,15
 35 24 35 24 59 44 c 128,-1,16
 83 64 83 64 104 116.5 c 0,17,18
 145 219 145 219 145 540 c 0,19,20
 145 591 145 591 131 615.5 c 128,-1,21
 117 640 117 640 75 640 c 2,22,-1
 65 640 l 1,23,-1
 65 660 l 1,0,-1
EndSplineSet
EndChar

StartChar: afii10021
Encoding: 1044 1044 211
Width: 675
Flags: HMW
VStem: 160 55
LayerCount: 2
Fore
SplineSet
145 40 m 1,0,-1
 485 40 l 1,1,-1
 485 620 l 1,2,-1
 225 620 l 1,3,4
 225 412 225 412 207 275.5 c 128,-1,5
 189 139 189 139 145 40 c 1,0,-1
575 40 m 1,6,-1
 630 40 l 2,7,8
 645 40 645 40 655 30 c 128,-1,9
 665 20 665 20 665 5 c 2,10,-1
 665 -180 l 1,11,-1
 620 -180 l 1,12,13
 609 -82 609 -82 579 -41 c 128,-1,14
 549 0 549 0 495 0 c 2,15,-1
 170 0 l 2,16,17
 116 0 116 0 86 -41 c 128,-1,18
 56 -82 56 -82 45 -180 c 1,19,-1
 0 -180 l 1,20,-1
 0 5 l 2,21,22
 0 20 0 20 10 30 c 128,-1,23
 20 40 20 40 35 40 c 2,24,-1
 75 40 l 1,25,26
 160 223 160 223 160 540 c 0,27,28
 160 591 160 591 146 615.5 c 128,-1,29
 132 640 132 640 90 640 c 2,30,-1
 75 640 l 1,31,-1
 75 660 l 1,32,-1
 575 660 l 1,33,-1
 575 40 l 1,6,-1
EndSplineSet
EndChar

StartChar: afii10044
Encoding: 1066 1066 212
Width: 680
Flags: HMW
HStem: 0 35<355 385> 345 35<355 385 385 425> 620 40<112.5 155 155 185>
VStem: 0 30<470 625> 185 90<49 331 49 380 380 620 620 620> 550 100<137.5 242.5>
LayerCount: 2
Fore
SplineSet
550 190 m 128,-1,1
 550 267 550 267 502.5 306 c 128,-1,2
 455 345 455 345 370 345 c 0,3,4
 322 345 322 345 275 331 c 1,5,-1
 275 49 l 1,6,7
 322 35 322 35 370 35 c 0,8,9
 455 35 455 35 502.5 74 c 128,-1,0
 550 113 550 113 550 190 c 128,-1,1
0 470 m 1,10,-1
 0 625 l 2,11,12
 0 640 0 640 10 650 c 128,-1,13
 20 660 20 660 35 660 c 2,14,-1
 275 660 l 1,15,-1
 275 380 l 1,16,-1
 385 380 l 2,17,18
 486.077 380 486.077 380 559.5 345.5 c 0,19,20
 601 326 601 326 625.5 286.5 c 128,-1,21
 650 247 650 247 650 190 c 128,-1,22
 650 133 650 133 625.5 93.5 c 128,-1,23
 601 54 601 54 559.5 34.5 c 0,24,25
 486.077 5.51522e-06 486.077 5.51522e-06 385 0 c 2,26,-1
 185 0 l 1,27,-1
 185 620 l 1,28,-1
 155 620 l 2,29,30
 90 620 90 620 62 587.5 c 128,-1,31
 34 555 34 555 30 470 c 1,32,-1
 0 470 l 1,10,-1
EndSplineSet
EndChar

StartChar: afii10040
Encoding: 1062 1062 213
Width: 680
Flags: HMW
HStem: -180 21G<625 670 625 625> 0 40<190 490 190 500> 640 20<10 30 10 100>
VStem: 100 90<40 540 40 540 40 570> 490 90<40 660 40 660>
LayerCount: 2
Fore
SplineSet
500 0 m 2,0,-1
 100 0 l 1,1,-1
 100 540 l 2,2,3
 100 591 100 591 86 615.5 c 128,-1,4
 72 640 72 640 30 640 c 2,5,-1
 10 640 l 1,6,-1
 10 660 l 1,7,-1
 100 660 l 2,8,9
 154 660 154 660 172 637 c 128,-1,10
 190 614 190 614 190 540 c 2,11,-1
 190 40 l 1,12,-1
 490 40 l 1,13,-1
 490 660 l 1,14,-1
 580 660 l 1,15,-1
 580 40 l 1,16,-1
 635 40 l 2,17,18
 650 40 650 40 660 30 c 128,-1,19
 670 20 670 20 670 5 c 2,20,-1
 670 -180 l 1,21,-1
 625 -180 l 1,22,23
 614 -82 614 -82 584 -41 c 128,-1,24
 554 0 554 0 500 0 c 2,0,-1
EndSplineSet
EndChar

StartChar: afii10043
Encoding: 1065 1065 214
Width: 940
Flags: HMW
HStem: -180 21G<885 930 885 885> 0 40<190 425 515 750> 640 20<10 30 10 100>
VStem: 100 90<40 540 40 540 40 570> 425 90<40 660 40 660> 750 90<40 660 40 660>
CounterMasks: 1 1c
LayerCount: 2
Fore
SplineSet
760 0 m 2,0,-1
 100 0 l 1,1,-1
 100 540 l 2,2,3
 100 591 100 591 86 615.5 c 128,-1,4
 72 640 72 640 30 640 c 2,5,-1
 10 640 l 1,6,-1
 10 660 l 1,7,-1
 100 660 l 2,8,9
 154 660 154 660 172 637 c 128,-1,10
 190 614 190 614 190 540 c 2,11,-1
 190 40 l 1,12,-1
 425 40 l 1,13,-1
 425 660 l 1,14,-1
 515 660 l 1,15,-1
 515 40 l 1,16,-1
 750 40 l 1,17,-1
 750 660 l 1,18,-1
 840 660 l 1,19,-1
 840 40 l 1,20,-1
 895 40 l 2,21,22
 910 40 910 40 920 30 c 128,-1,23
 930 20 930 20 930 5 c 2,24,-1
 930 -180 l 1,25,-1
 885 -180 l 1,26,27
 874 -82 874 -82 844 -41 c 128,-1,28
 814 0 814 0 760 0 c 2,0,-1
EndSplineSet
EndChar

StartChar: afii10042
Encoding: 1064 1064 215
Width: 910
Flags: HMW
HStem: 0 40<190 425 515 750> 640 20<10 30 10 100>
VStem: 100 90<40 540 40 540 40 570> 425 90<40 660 40 660> 750 90<40 660>
CounterMasks: 1 38
LayerCount: 2
Fore
SplineSet
840 0 m 1,0,-1
 100 0 l 1,1,-1
 100 540 l 2,2,3
 100 591 100 591 86 615.5 c 128,-1,4
 72 640 72 640 30 640 c 2,5,-1
 10 640 l 1,6,-1
 10 660 l 1,7,-1
 100 660 l 2,8,9
 154 660 154 660 172 637 c 128,-1,10
 190 614 190 614 190 540 c 2,11,-1
 190 40 l 1,12,-1
 425 40 l 1,13,-1
 425 660 l 1,14,-1
 515 660 l 1,15,-1
 515 40 l 1,16,-1
 750 40 l 1,17,-1
 750 660 l 1,18,-1
 840 660 l 1,19,-1
 840 0 l 1,0,-1
EndSplineSet
EndChar

StartChar: afii10038
Encoding: 1060 1060 216
Width: 770
Flags: HMW
HStem: -30 21G<340 430 340 340> 35 40<260 340 260 340 430 510> 555 40<260 340 430 510> 670 20<250 270 250 340>
VStem: 30 100<250 380 250 400> 340 90<-30 35 -30 35 75 555 595 600> 640 100<250 380>
CounterMasks: 1 0e
LayerCount: 2
Fore
SplineSet
130 315 m 128,-1,1
 130 207 130 207 179 141 c 128,-1,2
 228 75 228 75 340 75 c 1,3,-1
 340 555 l 1,4,5
 228 555 228 555 179 489 c 128,-1,0
 130 423 130 423 130 315 c 128,-1,1
640 315 m 128,-1,7
 640 423 640 423 591 489 c 128,-1,8
 542 555 542 555 430 555 c 1,9,-1
 430 75 l 1,10,11
 542 75 542 75 591 141 c 128,-1,6
 640 207 640 207 640 315 c 128,-1,7
430 600 m 2,12,-1
 430 595 l 1,13,14
 584 595 584 595 662 520.5 c 128,-1,15
 740 446 740 446 740 315 c 128,-1,16
 740 184 740 184 662 109.5 c 128,-1,17
 584 35 584 35 430 35 c 1,18,-1
 430 -30 l 1,19,-1
 340 -30 l 1,20,-1
 340 35 l 1,21,22
 186 35 186 35 108 109.5 c 128,-1,23
 30 184 30 184 30 315 c 128,-1,24
 30 446 30 446 108 520.5 c 128,-1,25
 186 595 186 595 340 595 c 1,26,-1
 340 600 l 2,27,28
 340 638 340 638 324 654 c 128,-1,29
 308 670 308 670 270 670 c 2,30,-1
 250 670 l 1,31,-1
 250 690 l 1,32,-1
 340 690 l 2,33,34
 392 690 392 690 411 671 c 128,-1,35
 430 652 430 652 430 600 c 2,12,-1
EndSplineSet
EndChar

StartChar: afii10037
Encoding: 1059 1059 217
Width: 605
Flags: HMW
HStem: -10 30<130 160 130 180 130 160> 640 20<-30 90>
LayerCount: 2
Fore
SplineSet
280 95 m 2,0,-1
 290 120 l 1,1,-1
 105 530 l 2,2,3
 92 559 92 559 85 571 c 128,-1,4
 78 583 78 583 62.5 602.5 c 0,5,6
 35.9696 635.877 35.9696 635.877 -30 640 c 1,7,-1
 -30 660 l 1,8,-1
 90 660 l 2,9,10
 134 660 134 660 160 631 c 128,-1,11
 186 602 186 602 210 550 c 2,12,-1
 345 250 l 1,13,-1
 525 660 l 1,14,-1
 585 660 l 1,15,-1
 339 95 l 2,16,17
 294 -10 294 -10 180 -10 c 2,18,-1
 130 -10 l 1,19,-1
 130 20 l 1,20,21
 250 20 250 20 280 95 c 2,0,-1
EndSplineSet
EndChar

StartChar: afii10022
Encoding: 1045 1045 218
Width: 585
Flags: HMW
HStem: 0 40<190 365 365 410> 320 40<190 460 190 460> 640 20<10 30 10 436>
VStem: 100 90<40 320 360 540 540 570> 501 20<505 545>
LayerCount: 2
Fore
SplineSet
10 660 m 1,0,-1
 436 660 l 2,1,2
 521 660 521 660 521 580 c 2,3,-1
 521 505 l 1,4,-1
 501 505 l 1,5,6
 501 620 501 620 376 620 c 2,7,-1
 190 620 l 1,8,-1
 190 360 l 1,9,-1
 460 360 l 1,10,-1
 460 320 l 1,11,-1
 190 320 l 1,12,-1
 190 40 l 1,13,-1
 365 40 l 2,14,15
 433 40 433 40 473 65.5 c 128,-1,16
 513 91 513 91 535 150 c 1,17,-1
 555 145 l 1,18,-1
 520 50 l 2,19,20
 502 0 502 0 445 0 c 2,21,-1
 100 0 l 1,22,-1
 100 540 l 2,23,24
 100 591 100 591 86 615.5 c 128,-1,25
 72 640 72 640 30 640 c 2,26,-1
 10 640 l 1,27,-1
 10 660 l 1,0,-1
EndSplineSet
EndChar

StartChar: afii10023
Encoding: 1025 1025 219
Width: 585
Flags: HMW
HStem: 0 40<190 365 365 410> 320 40<190 460 190 460> 640 20<10 30 10 436> 730 100<180 210 360 390>
VStem: 145 100<765 795> 325 100<765 795> 501 20<505 545>
LayerCount: 2
Fore
SplineSet
245 780 m 128,-1,1
 245 758 245 758 231.5 744 c 128,-1,2
 218 730 218 730 195 730 c 128,-1,3
 172 730 172 730 158.5 744 c 128,-1,4
 145 758 145 758 145 780 c 128,-1,5
 145 802 145 802 158.5 816 c 128,-1,6
 172 830 172 830 195 830 c 128,-1,7
 218 830 218 830 231.5 816 c 128,-1,0
 245 802 245 802 245 780 c 128,-1,1
425 780 m 128,-1,9
 425 758 425 758 411.5 744 c 128,-1,10
 398 730 398 730 375 730 c 128,-1,11
 352 730 352 730 338.5 744 c 128,-1,12
 325 758 325 758 325 780 c 128,-1,13
 325 802 325 802 338.5 816 c 128,-1,14
 352 830 352 830 375 830 c 128,-1,15
 398 830 398 830 411.5 816 c 128,-1,8
 425 802 425 802 425 780 c 128,-1,9
10 660 m 1,16,-1
 436 660 l 2,17,18
 521 660 521 660 521 580 c 2,19,-1
 521 505 l 1,20,-1
 501 505 l 1,21,22
 501 620 501 620 376 620 c 2,23,-1
 190 620 l 1,24,-1
 190 360 l 1,25,-1
 460 360 l 1,26,-1
 460 320 l 1,27,-1
 190 320 l 1,28,-1
 190 40 l 1,29,-1
 365 40 l 2,30,31
 433 40 433 40 473 65.5 c 128,-1,32
 513 91 513 91 535 150 c 1,33,-1
 555 145 l 1,34,-1
 520 50 l 2,35,36
 502 0 502 0 445 0 c 2,37,-1
 100 0 l 1,38,-1
 100 540 l 2,39,40
 100 591 100 591 86 615.5 c 128,-1,41
 72 640 72 640 30 640 c 2,42,-1
 10 640 l 1,43,-1
 10 660 l 1,16,-1
EndSplineSet
EndChar

StartChar: afii61352
Encoding: 8470 8470 220
Width: 945
Flags: HMW
HStem: 0 21G<100 100 100 140> 340 40<660 900 660 900> 430 30<760 800 760 822.5> 640 30<760 800>
VStem: 100 40<0 525 0 540 0 570> 550 40<165 660 -10 660> 645 65<522.5 577.5 522.5 585> 850 65<522.5 577.5>
LayerCount: 2
Fore
SplineSet
915 550 m 128,-1,1
 915 496 915 496 879 463 c 128,-1,2
 843 430 843 430 780 430 c 128,-1,3
 717 430 717 430 681 463 c 128,-1,4
 645 496 645 496 645 550 c 128,-1,5
 645 604 645 604 681 637 c 128,-1,6
 717 670 717 670 780 670 c 128,-1,7
 843 670 843 670 879 637 c 128,-1,0
 915 604 915 604 915 550 c 128,-1,1
710 550 m 128,-1,9
 710 509 710 509 730 484.5 c 128,-1,10
 750 460 750 460 780 460 c 128,-1,11
 810 460 810 460 830 484.5 c 128,-1,12
 850 509 850 509 850 550 c 128,-1,13
 850 591 850 591 830 615.5 c 128,-1,14
 810 640 810 640 780 640 c 128,-1,15
 750 640 750 640 730 615.5 c 128,-1,8
 710 591 710 591 710 550 c 128,-1,9
900 380 m 1,16,-1
 900 340 l 1,17,-1
 660 340 l 1,18,-1
 660 380 l 1,19,-1
 900 380 l 1,16,-1
100 0 m 1,20,-1
 100 540 l 2,21,22
 100 589 100 589 80 614.5 c 128,-1,23
 60 640 60 640 10 640 c 2,24,-1
 0 640 l 1,25,-1
 0 660 l 1,26,-1
 65 660 l 2,27,28
 151 660 151 660 200 600 c 2,29,-1
 550 165 l 1,30,-1
 550 660 l 1,31,-1
 590 660 l 1,32,-1
 590 -10 l 1,33,-1
 570 -10 l 1,34,-1
 140 525 l 1,35,-1
 140 0 l 1,36,-1
 100 0 l 1,20,-1
EndSplineSet
EndChar

StartChar: Agrave
Encoding: 192 192 221
Width: 620
Flags: HMW
HStem: -5 21G<597.5 627.5> 0 21G<20 65 20 20 660 660> 190 40<160 405 160 425 145 405> 640 20G<300 330 330 330> 830 20G<200 300 300 300>
LayerCount: 2
Fore
SplineSet
660 20 m 1,0,-1
 660 0 l 1,1,2
 643 -5 643 -5 620 -5 c 0,3,4
 500 -5 500 -5 450 125 c 2,5,-1
 425 190 l 1,6,-1
 145 190 l 1,7,-1
 65 0 l 1,8,-1
 20 0 l 1,9,-1
 300 660 l 1,10,-1
 330 660 l 1,11,-1
 550 125 l 2,12,13
 574 68 574 68 596.5 46 c 128,-1,14
 619 24 619 24 660 20 c 1,0,-1
285 520 m 1,15,-1
 160 230 l 1,16,-1
 405 230 l 1,17,-1
 285 520 l 1,15,-1
305 700 m 1,18,-1
 200 850 l 1,19,-1
 300 850 l 1,20,-1
 345 700 l 1,21,-1
 305 700 l 1,18,-1
EndSplineSet
EndChar

StartChar: Aacute
Encoding: 193 193 222
Width: 620
Flags: HMW
HStem: -5 21G<597.5 627.5> 0 21G<20 65 20 20 660 660> 190 40<160 405 160 425 145 405> 640 20G<300 330 330 330> 800 20G<345 435 435 435>
LayerCount: 2
Fore
SplineSet
660 20 m 1,0,-1
 660 0 l 1,1,2
 643 -5 643 -5 620 -5 c 0,3,4
 500 -5 500 -5 450 125 c 2,5,-1
 425 190 l 1,6,-1
 145 190 l 1,7,-1
 65 0 l 1,8,-1
 20 0 l 1,9,-1
 300 660 l 1,10,-1
 330 660 l 1,11,-1
 550 125 l 2,12,13
 574 68 574 68 596.5 46 c 128,-1,14
 619 24 619 24 660 20 c 1,0,-1
285 520 m 1,15,-1
 160 230 l 1,16,-1
 405 230 l 1,17,-1
 285 520 l 1,15,-1
435 820 m 1,18,-1
 330 700 l 1,19,-1
 290 700 l 1,20,-1
 345 820 l 1,21,-1
 435 820 l 1,18,-1
EndSplineSet
EndChar

StartChar: Adieresis
Encoding: 196 196 223
Width: 620
Flags: HMW
HStem: -5 21G<597.5 627.5> 0 21G<20 65 20 20 660 660> 190 40<160 405 160 425 145 405> 640 20G<300 330 330 330> 690 100<215 245 385 415>
VStem: 180 100<725 755> 350 100<725 755>
LayerCount: 2
Fore
SplineSet
660 20 m 1,0,-1
 660 0 l 1,1,2
 643 -5 643 -5 620 -5 c 0,3,4
 500 -5 500 -5 450 125 c 2,5,-1
 425 190 l 1,6,-1
 145 190 l 1,7,-1
 65 0 l 1,8,-1
 20 0 l 1,9,-1
 300 660 l 1,10,-1
 330 660 l 1,11,-1
 550 125 l 2,12,13
 574 68 574 68 596.5 46 c 128,-1,14
 619 24 619 24 660 20 c 1,0,-1
285 520 m 1,15,-1
 160 230 l 1,16,-1
 405 230 l 1,17,-1
 285 520 l 1,15,-1
450 740 m 128,-1,19
 450 718 450 718 436 704 c 128,-1,20
 422 690 422 690 400 690 c 128,-1,21
 378 690 378 690 364 704 c 128,-1,22
 350 718 350 718 350 740 c 128,-1,23
 350 762 350 762 364 776 c 128,-1,24
 378 790 378 790 400 790 c 128,-1,25
 422 790 422 790 436 776 c 128,-1,18
 450 762 450 762 450 740 c 128,-1,19
280 740 m 128,-1,27
 280 718 280 718 266 704 c 128,-1,28
 252 690 252 690 230 690 c 128,-1,29
 208 690 208 690 194 704 c 128,-1,30
 180 718 180 718 180 740 c 128,-1,31
 180 762 180 762 194 776 c 128,-1,32
 208 790 208 790 230 790 c 128,-1,33
 252 790 252 790 266 776 c 128,-1,26
 280 762 280 762 280 740 c 128,-1,27
EndSplineSet
EndChar

StartChar: AE
Encoding: 198 198 224
Width: 880
Flags: HMW
HStem: 0 40<485 660 660 705> 190 40<180 395 180 395 155 395> 320 40<485 755 485 755> 620 40<485 671 485 485>
VStem: 395 90<40 190 190 190 230 320 360 615 615 615> 796 20<505 545>
LayerCount: 2
Fore
SplineSet
370 660 m 1,0,-1
 731 660 l 2,1,2
 816 660 816 660 816 580 c 2,3,-1
 816 505 l 1,4,-1
 796 505 l 1,5,6
 796 620 796 620 671 620 c 2,7,-1
 485 620 l 1,8,-1
 485 360 l 1,9,-1
 755 360 l 1,10,-1
 755 320 l 1,11,-1
 485 320 l 1,12,-1
 485 40 l 1,13,-1
 660 40 l 2,14,15
 728 40 728 40 768 65.5 c 128,-1,16
 808 91 808 91 830 150 c 1,17,-1
 850 145 l 1,18,-1
 815 50 l 2,19,20
 797 0 797 0 740 0 c 2,21,-1
 395 0 l 1,22,-1
 395 190 l 1,23,-1
 155 190 l 1,24,-1
 50 0 l 1,25,-1
 0 0 l 1,26,-1
 370 660 l 1,0,-1
395 615 m 1,27,-1
 180 230 l 1,28,-1
 395 230 l 1,29,-1
 395 615 l 1,27,-1
EndSplineSet
EndChar

StartChar: Atilde
Encoding: 195 195 225
Width: 620
Flags: HMW
HStem: -5 21G<597.5 627.5> 0 21G<20 65 20 20 660 660> 190 40<160 405 160 425 145 405> 640 20G<300 330 330 330> 726 30 726 60<260.5 288>
VStem: 208 215<696 786>
LayerCount: 2
Fore
SplineSet
660 20 m 1,0,-1
 660 0 l 1,1,2
 643 -5 643 -5 620 -5 c 0,3,4
 500 -5 500 -5 450 125 c 2,5,-1
 425 190 l 1,6,-1
 145 190 l 1,7,-1
 65 0 l 1,8,-1
 20 0 l 1,9,-1
 300 660 l 1,10,-1
 330 660 l 1,11,-1
 550 125 l 2,12,13
 574 68 574 68 596.5 46 c 128,-1,14
 619 24 619 24 660 20 c 1,0,-1
285 520 m 1,15,-1
 160 230 l 1,16,-1
 405 230 l 1,17,-1
 285 520 l 1,15,-1
238 696 m 1,18,-1
 208 696 l 1,19,20
 208 747 208 747 222.5 766.5 c 128,-1,21
 237 786 237 786 262.5 786 c 0,22,23
 288 786 288 786 315.5 771 c 128,-1,24
 343 756 343 756 358.5 756 c 0,25,26
 374 756 374 756 383.5 765.5 c 128,-1,27
 393 775 393 775 393 786 c 1,28,-1
 423 786 l 1,29,30
 423 735 423 735 408.5 715.5 c 128,-1,31
 394 696 394 696 368.5 696 c 0,32,33
 343 696 343 696 315.5 711 c 128,-1,34
 288 726 288 726 272.5 726 c 0,35,36
 257 726 257 726 247.5 716.5 c 128,-1,37
 238 707 238 707 238 696 c 1,18,-1
EndSplineSet
EndChar

StartChar: Acircumflex
Encoding: 194 194 226
Width: 620
Flags: HMW
HStem: -5 21G<597.5 627.5> 0 21G<20 65 20 20 660 660> 190 40<160 405 160 425 145 405> 640 20G<300 330 330 330> 760 20G<270 360 360 360>
LayerCount: 2
Fore
SplineSet
660 20 m 1,0,-1
 660 0 l 1,1,2
 643 -5 643 -5 620 -5 c 0,3,4
 500 -5 500 -5 450 125 c 2,5,-1
 425 190 l 1,6,-1
 145 190 l 1,7,-1
 65 0 l 1,8,-1
 20 0 l 1,9,-1
 300 660 l 1,10,-1
 330 660 l 1,11,-1
 550 125 l 2,12,13
 574 68 574 68 596.5 46 c 128,-1,14
 619 24 619 24 660 20 c 1,0,-1
285 520 m 1,15,-1
 160 230 l 1,16,-1
 405 230 l 1,17,-1
 285 520 l 1,15,-1
400 675 m 1,18,-1
 315 745 l 1,19,-1
 230 675 l 1,20,-1
 190 675 l 1,21,-1
 270 780 l 1,22,-1
 360 780 l 1,23,-1
 440 675 l 1,24,-1
 400 675 l 1,18,-1
EndSplineSet
EndChar

StartChar: Aring
Encoding: 197 197 227
Width: 620
Flags: HMW
HStem: -5 21G<597.5 627.5> 0 21G<20 65 20 20 660 660> 190 40<160 405 160 425 145 405> 640 20G<295 335 335 335> 755 35<302.5 327.5>
VStem: 230 40<695 720 695 727.5> 360 40<695 720>
LayerCount: 2
Fore
SplineSet
230 705 m 0,0,1
 230 739 230 739 255.5 764.5 c 128,-1,2
 281 790 281 790 315 790 c 128,-1,3
 349 790 349 790 374.5 764.5 c 128,-1,4
 400 739 400 739 400 705 c 0,5,6
 400 647 400 647 345 625 c 1,7,-1
 550 125 l 2,8,9
 574 68 574 68 596.5 46 c 128,-1,10
 619 24 619 24 660 20 c 1,11,-1
 660 0 l 1,12,13
 643 -5 643 -5 620 -5 c 0,14,15
 500 -5 500 -5 450 125 c 2,16,-1
 425 190 l 1,17,-1
 145 190 l 1,18,-1
 65 0 l 1,19,-1
 20 0 l 1,20,-1
 285 625 l 1,21,22
 230 647 230 647 230 705 c 0,0,1
285 520 m 1,23,-1
 160 230 l 1,24,-1
 405 230 l 1,25,-1
 285 520 l 1,23,-1
283 741 m 128,-1,27
 270 727 270 727 270 702 c 128,-1,28
 270 677 270 677 295 660 c 1,29,-1
 335 660 l 1,30,31
 360 677 360 677 360 702 c 128,-1,32
 360 727 360 727 347 741 c 128,-1,33
 334 755 334 755 315 755 c 128,-1,26
 296 755 296 755 283 741 c 128,-1,27
EndSplineSet
EndChar

StartChar: Igrave
Encoding: 204 204 228
Width: 290
Flags: HMW
HStem: 0 20<260 280 260 280> 640 20G<100 190 190 190> 830 20G<35 135 135 135>
VStem: 100 90<120 660>
LayerCount: 2
Fore
SplineSet
100 120 m 2,0,-1
 100 660 l 1,1,-1
 190 660 l 1,2,-1
 190 120 l 2,3,4
 190 69 190 69 204 44.5 c 128,-1,5
 218 20 218 20 260 20 c 2,6,-1
 280 20 l 1,7,-1
 280 0 l 1,8,-1
 190 0 l 2,9,10
 136 0 136 0 118 23 c 128,-1,11
 100 46 100 46 100 120 c 2,0,-1
140 700 m 1,12,-1
 35 850 l 1,13,-1
 135 850 l 1,14,-1
 180 700 l 1,15,-1
 140 700 l 1,12,-1
EndSplineSet
EndChar

StartChar: Iacute
Encoding: 205 205 229
Width: 290
Flags: HMW
HStem: 0 20<260 280 260 280> 640 20G<100 190 190 190> 800 20G<175 265 265 265>
VStem: 100 90<120 660>
LayerCount: 2
Fore
SplineSet
100 120 m 2,0,-1
 100 660 l 1,1,-1
 190 660 l 1,2,-1
 190 120 l 2,3,4
 190 69 190 69 204 44.5 c 128,-1,5
 218 20 218 20 260 20 c 2,6,-1
 280 20 l 1,7,-1
 280 0 l 1,8,-1
 190 0 l 2,9,10
 136 0 136 0 118 23 c 128,-1,11
 100 46 100 46 100 120 c 2,0,-1
265 820 m 1,12,-1
 160 700 l 1,13,-1
 120 700 l 1,14,-1
 175 820 l 1,15,-1
 265 820 l 1,12,-1
EndSplineSet
EndChar

StartChar: Icircumflex
Encoding: 206 206 230
Width: 290
Flags: HMW
HStem: 0 20<260 280 260 280> 640 20G<100 190 190 190> 770 20G<100 190 190 190>
VStem: 100 90<120 660>
LayerCount: 2
Fore
SplineSet
100 120 m 2,0,-1
 100 660 l 1,1,-1
 190 660 l 1,2,-1
 190 120 l 2,3,4
 190 69 190 69 204 44.5 c 128,-1,5
 218 20 218 20 260 20 c 2,6,-1
 280 20 l 1,7,-1
 280 0 l 1,8,-1
 190 0 l 2,9,10
 136 0 136 0 118 23 c 128,-1,11
 100 46 100 46 100 120 c 2,0,-1
230 685 m 1,12,-1
 145 755 l 1,13,-1
 60 685 l 1,14,-1
 20 685 l 1,15,-1
 100 790 l 1,16,-1
 190 790 l 1,17,-1
 270 685 l 1,18,-1
 230 685 l 1,12,-1
EndSplineSet
EndChar

StartChar: Idieresis
Encoding: 207 207 231
Width: 290
Flags: HMW
HStem: 0 20<260 280 260 280> 640 20G<100 190 190 190> 715 100<53 83 207 237>
VStem: 100 90<120 660>
LayerCount: 2
Fore
SplineSet
100 120 m 2,0,-1
 100 660 l 1,1,-1
 190 660 l 1,2,-1
 190 120 l 2,3,4
 190 69 190 69 204 44.5 c 128,-1,5
 218 20 218 20 260 20 c 2,6,-1
 280 20 l 1,7,-1
 280 0 l 1,8,-1
 190 0 l 2,9,10
 136 0 136 0 118 23 c 128,-1,11
 100 46 100 46 100 120 c 2,0,-1
272 765 m 128,-1,13
 272 742 272 742 258 728.5 c 128,-1,14
 244 715 244 715 222 715 c 128,-1,15
 200 715 200 715 186 728.5 c 128,-1,16
 172 742 172 742 172 765 c 128,-1,17
 172 788 172 788 186 801.5 c 128,-1,18
 200 815 200 815 222 815 c 128,-1,19
 244 815 244 815 258 801.5 c 128,-1,12
 272 788 272 788 272 765 c 128,-1,13
118 765 m 128,-1,21
 118 742 118 742 104 728.5 c 128,-1,22
 90 715 90 715 68 715 c 128,-1,23
 46 715 46 715 32 728.5 c 128,-1,24
 18 742 18 742 18 765 c 128,-1,25
 18 788 18 788 32 801.5 c 128,-1,26
 46 815 46 815 68 815 c 128,-1,27
 90 815 90 815 104 801.5 c 128,-1,20
 118 788 118 788 118 765 c 128,-1,21
EndSplineSet
EndChar

StartChar: Egrave
Encoding: 200 200 232
Width: 585
Flags: HMW
HStem: 0 40<190 365 365 410> 320 40<190 460 190 460> 640 20<10 30 10 436>
VStem: 100 90<40 320 360 540 540 570> 501 20<505 545>
LayerCount: 2
Fore
SplineSet
10 660 m 1,0,-1
 436 660 l 2,1,2
 521 660 521 660 521 580 c 2,3,-1
 521 505 l 1,4,-1
 501 505 l 1,5,6
 501 620 501 620 376 620 c 2,7,-1
 190 620 l 1,8,-1
 190 360 l 1,9,-1
 460 360 l 1,10,-1
 460 320 l 1,11,-1
 190 320 l 1,12,-1
 190 40 l 1,13,-1
 365 40 l 2,14,15
 433 40 433 40 473 65.5 c 128,-1,16
 513 91 513 91 535 150 c 1,17,-1
 555 145 l 1,18,-1
 520 50 l 2,19,20
 502 0 502 0 445 0 c 2,21,-1
 100 0 l 1,22,-1
 100 540 l 2,23,24
 100 591 100 591 86 615.5 c 128,-1,25
 72 640 72 640 30 640 c 2,26,-1
 10 640 l 1,27,-1
 10 660 l 1,0,-1
290 700 m 1,28,-1
 185 850 l 1,29,-1
 285 850 l 1,30,-1
 330 700 l 1,31,-1
 290 700 l 1,28,-1
EndSplineSet
EndChar

StartChar: Eacute
Encoding: 201 201 233
Width: 585
Flags: HMW
HStem: 0 40<190 365 365 410> 320 40<190 460 190 460> 640 20<10 30 10 436>
VStem: 100 90<40 320 360 540 540 570> 501 20<505 545>
LayerCount: 2
Fore
SplineSet
10 660 m 1,0,-1
 436 660 l 2,1,2
 521 660 521 660 521 580 c 2,3,-1
 521 505 l 1,4,-1
 501 505 l 1,5,6
 501 620 501 620 376 620 c 2,7,-1
 190 620 l 1,8,-1
 190 360 l 1,9,-1
 460 360 l 1,10,-1
 460 320 l 1,11,-1
 190 320 l 1,12,-1
 190 40 l 1,13,-1
 365 40 l 2,14,15
 433 40 433 40 473 65.5 c 128,-1,16
 513 91 513 91 535 150 c 1,17,-1
 555 145 l 1,18,-1
 520 50 l 2,19,20
 502 0 502 0 445 0 c 2,21,-1
 100 0 l 1,22,-1
 100 540 l 2,23,24
 100 591 100 591 86 615.5 c 128,-1,25
 72 640 72 640 30 640 c 2,26,-1
 10 640 l 1,27,-1
 10 660 l 1,0,-1
415 820 m 1,28,-1
 310 700 l 1,29,-1
 270 700 l 1,30,-1
 325 820 l 1,31,-1
 415 820 l 1,28,-1
EndSplineSet
EndChar

StartChar: Ecircumflex
Encoding: 202 202 234
Width: 585
Flags: HMW
HStem: 0 40<190 365 365 410> 320 40<190 460 190 460> 640 20<10 30 10 436>
VStem: 100 90<40 320 360 540 540 570> 501 20<505 545>
LayerCount: 2
Fore
SplineSet
10 660 m 1,0,-1
 436 660 l 2,1,2
 521 660 521 660 521 580 c 2,3,-1
 521 505 l 1,4,-1
 501 505 l 1,5,6
 501 620 501 620 376 620 c 2,7,-1
 190 620 l 1,8,-1
 190 360 l 1,9,-1
 460 360 l 1,10,-1
 460 320 l 1,11,-1
 190 320 l 1,12,-1
 190 40 l 1,13,-1
 365 40 l 2,14,15
 433 40 433 40 473 65.5 c 128,-1,16
 513 91 513 91 535 150 c 1,17,-1
 555 145 l 1,18,-1
 520 50 l 2,19,20
 502 0 502 0 445 0 c 2,21,-1
 100 0 l 1,22,-1
 100 540 l 2,23,24
 100 591 100 591 86 615.5 c 128,-1,25
 72 640 72 640 30 640 c 2,26,-1
 10 640 l 1,27,-1
 10 660 l 1,0,-1
370 710 m 1,28,-1
 285 780 l 1,29,-1
 200 710 l 1,30,-1
 160 710 l 1,31,-1
 240 815 l 1,32,-1
 330 815 l 1,33,-1
 410 710 l 1,34,-1
 370 710 l 1,28,-1
EndSplineSet
EndChar

StartChar: Edieresis
Encoding: 203 203 235
Width: 585
Flags: HMW
HStem: 0 40<190 365 365 410> 320 40<190 460 190 460> 640 20<10 30 10 436> 730 100<180 210 360 390>
VStem: 145 100<765 795> 325 100<765 795> 501 20<505 545>
LayerCount: 2
Fore
SplineSet
245 780 m 128,-1,1
 245 758 245 758 231.5 744 c 128,-1,2
 218 730 218 730 195 730 c 128,-1,3
 172 730 172 730 158.5 744 c 128,-1,4
 145 758 145 758 145 780 c 128,-1,5
 145 802 145 802 158.5 816 c 128,-1,6
 172 830 172 830 195 830 c 128,-1,7
 218 830 218 830 231.5 816 c 128,-1,0
 245 802 245 802 245 780 c 128,-1,1
425 780 m 128,-1,9
 425 758 425 758 411.5 744 c 128,-1,10
 398 730 398 730 375 730 c 128,-1,11
 352 730 352 730 338.5 744 c 128,-1,12
 325 758 325 758 325 780 c 128,-1,13
 325 802 325 802 338.5 816 c 128,-1,14
 352 830 352 830 375 830 c 128,-1,15
 398 830 398 830 411.5 816 c 128,-1,8
 425 802 425 802 425 780 c 128,-1,9
10 660 m 1,16,-1
 436 660 l 2,17,18
 521 660 521 660 521 580 c 2,19,-1
 521 505 l 1,20,-1
 501 505 l 1,21,22
 501 620 501 620 376 620 c 2,23,-1
 190 620 l 1,24,-1
 190 360 l 1,25,-1
 460 360 l 1,26,-1
 460 320 l 1,27,-1
 190 320 l 1,28,-1
 190 40 l 1,29,-1
 365 40 l 2,30,31
 433 40 433 40 473 65.5 c 128,-1,32
 513 91 513 91 535 150 c 1,33,-1
 555 145 l 1,34,-1
 520 50 l 2,35,36
 502 0 502 0 445 0 c 2,37,-1
 100 0 l 1,38,-1
 100 540 l 2,39,40
 100 591 100 591 86 615.5 c 128,-1,41
 72 640 72 640 30 640 c 2,42,-1
 10 640 l 1,43,-1
 10 660 l 1,16,-1
EndSplineSet
EndChar

StartChar: edieresis
Encoding: 235 235 236
Width: 475
Flags: HMW
HStem: -10 40<227.5 287.5> 220 40<135 345 135 433 135 345> 435 45<210 275> 535 90<137.5 162.5 307.5 332.5>
VStem: 40 95<167.5 220 260 302.5> 345 90<260 315>
LayerCount: 2
Fore
SplineSet
435 260 m 1,0,-1
 433 220 l 1,1,-1
 135 220 l 1,2,3
 135 136 135 136 171 83 c 128,-1,4
 207 30 207 30 270 30 c 0,5,6
 354 30 354 30 410 110 c 1,7,-1
 430 95 l 1,8,9
 367 -10 367 -10 250 -10 c 0,10,11
 149 -10 149 -10 94.5 59 c 128,-1,12
 40 128 40 128 40 234 c 0,13,14
 40 340 40 340 92 410 c 128,-1,15
 144 480 144 480 239.5 480 c 0,16,17
 335 480 335 480 385 423.5 c 128,-1,18
 435 367 435 367 435 260 c 1,0,-1
135 260 m 1,19,-1
 345 260 l 1,20,21
 345 344 345 344 318.5 389.5 c 128,-1,22
 292 435 292 435 243.5 435 c 0,23,24
 195 435 195 435 165 385 c 128,-1,25
 135 335 135 335 135 260 c 1,19,-1
365 580 m 128,-1,27
 365 561 365 561 352 548 c 128,-1,28
 339 535 339 535 320 535 c 128,-1,29
 301 535 301 535 288 548 c 128,-1,30
 275 561 275 561 275 580 c 128,-1,31
 275 599 275 599 288 612 c 128,-1,32
 301 625 301 625 320 625 c 128,-1,33
 339 625 339 625 352 612 c 128,-1,26
 365 599 365 599 365 580 c 128,-1,27
195 580 m 128,-1,35
 195 561 195 561 182 548 c 128,-1,36
 169 535 169 535 150 535 c 128,-1,37
 131 535 131 535 118 548 c 128,-1,38
 105 561 105 561 105 580 c 128,-1,39
 105 599 105 599 118 612 c 128,-1,40
 131 625 131 625 150 625 c 128,-1,41
 169 625 169 625 182 612 c 128,-1,34
 195 599 195 599 195 580 c 128,-1,35
EndSplineSet
EndChar

StartChar: idieresis
Encoding: 239 239 237
Width: 250
Flags: HMW
HStem: 0 21G<80 170 80 80> 450 20<-10 10 -10 80> 530 109<29.5 50.5 21 59 183.5 204.5>
VStem: 80 90<0 350 0 380>
LayerCount: 2
Fore
SplineSet
170 350 m 2,0,-1
 170 0 l 1,1,-1
 80 0 l 1,2,-1
 80 350 l 2,3,4
 80 401 80 401 66 425.5 c 128,-1,5
 52 450 52 450 10 450 c 2,6,-1
 -10 450 l 1,7,-1
 -10 470 l 1,8,-1
 80 470 l 2,9,10
 134 470 134 470 152 447 c 128,-1,11
 170 424 170 424 170 350 c 2,0,-1
74.5 620 m 128,-1,13
 91 601 91 601 91 577.5 c 128,-1,14
 91 554 91 554 78.5 542 c 128,-1,15
 66 530 66 530 44 530 c 128,-1,16
 22 530 22 530 5.5 549 c 128,-1,17
 -11 568 -11 568 -11 591.5 c 128,-1,18
 -11 615 -11 615 1.5 627 c 128,-1,19
 14 639 14 639 36 639 c 128,-1,12
 58 639 58 639 74.5 620 c 128,-1,13
228.5 620 m 128,-1,21
 245 601 245 601 245 577.5 c 128,-1,22
 245 554 245 554 232.5 542 c 128,-1,23
 220 530 220 530 198 530 c 128,-1,24
 176 530 176 530 159.5 549 c 128,-1,25
 143 568 143 568 143 591.5 c 128,-1,26
 143 615 143 615 155.5 627 c 128,-1,27
 168 639 168 639 190 639 c 128,-1,20
 212 639 212 639 228.5 620 c 128,-1,21
EndSplineSet
EndChar

StartChar: Eth
Encoding: 208 208 238
Width: 695
Flags: HMW
HStem: 0 35<281.5 298> 310 40<25 100 25 100 193 280> 625 35<278.5 369.5> 640 20<10 30 10 272>
VStem: 100 93<48 310 48 310 48 310 350 540 540 570> 556 109<239.5 418.5>
LayerCount: 2
Fore
SplineSet
25 310 m 1,0,-1
 25 350 l 1,1,-1
 100 350 l 1,2,-1
 100 540 l 2,3,4
 100 591 100 591 86 615.5 c 128,-1,5
 72 640 72 640 30 640 c 2,6,-1
 10 640 l 1,7,-1
 10 660 l 1,8,-1
 272 660 l 2,9,10
 466 660 466 660 565.5 574 c 128,-1,11
 665 488 665 488 665 335.5 c 0,12,13
 665 183 665 183 570 91.5 c 128,-1,14
 475 0 475 0 298 0 c 2,15,-1
 100 0 l 1,16,-1
 100 310 l 1,17,-1
 25 310 l 1,0,-1
193 609 m 1,18,-1
 193 350 l 1,19,-1
 280 350 l 1,20,-1
 280 310 l 1,21,-1
 193 310 l 1,22,-1
 193 48 l 1,23,24
 252 35 252 35 295 35 c 0,25,26
 408 35 408 35 482 116 c 128,-1,27
 556 197 556 197 556 329.5 c 0,28,29
 556 462 556 462 482.5 543.5 c 128,-1,30
 409 625 409 625 293 625 c 0,31,32
 245 625 245 625 193 609 c 1,18,-1
EndSplineSet
EndChar

StartChar: Ntilde
Encoding: 209 209 239
Width: 690
Flags: HMW
HStem: -10 21G<570 590 570 570> 0 21G<100 100 100 140> 640 20<0 10 0 65> 685 60<372 399.5 372 412> 715 60<289.5 317>
VStem: 100 40<0 525 0 540 0 570> 237 215<685 775> 550 40<165 660 -10 660>
LayerCount: 2
Fore
SplineSet
100 0 m 1,0,-1
 100 540 l 2,1,2
 100 589 100 589 80 614.5 c 128,-1,3
 60 640 60 640 10 640 c 2,4,-1
 0 640 l 1,5,-1
 0 660 l 1,6,-1
 65 660 l 2,7,8
 151 660 151 660 200 600 c 2,9,-1
 550 165 l 1,10,-1
 550 660 l 1,11,-1
 590 660 l 1,12,-1
 590 -10 l 1,13,-1
 570 -10 l 1,14,-1
 140 525 l 1,15,-1
 140 0 l 1,16,-1
 100 0 l 1,0,-1
267 685 m 1,17,-1
 237 685 l 1,18,19
 237 736 237 736 251.5 755.5 c 128,-1,20
 266 775 266 775 291.5 775 c 0,21,22
 317 775 317 775 344.5 760 c 128,-1,23
 372 745 372 745 387.5 745 c 0,24,25
 403 745 403 745 412.5 754.5 c 128,-1,26
 422 764 422 764 422 775 c 1,27,-1
 452 775 l 1,28,29
 452 724 452 724 437.5 704.5 c 128,-1,30
 423 685 423 685 397.5 685 c 0,31,32
 372 685 372 685 344.5 700 c 128,-1,33
 317 715 317 715 301.5 715 c 0,34,35
 286 715 286 715 276.5 705.5 c 128,-1,36
 267 696 267 696 267 685 c 1,17,-1
EndSplineSet
EndChar

StartChar: Ograve
Encoding: 210 210 240
Width: 680
Flags: HMW
HStem: -20 40<275 405 275 435> 640 40<275 405>
VStem: 30 100<235 425 235 428> 550 100<235 425>
LayerCount: 2
Fore
SplineSet
550 330 m 128,-1,1
 550 473 550 473 493.5 556.5 c 128,-1,2
 437 640 437 640 340 640 c 128,-1,3
 243 640 243 640 186.5 556.5 c 128,-1,4
 130 473 130 473 130 330 c 128,-1,5
 130 187 130 187 186.5 103.5 c 128,-1,6
 243 20 243 20 340 20 c 128,-1,7
 437 20 437 20 493.5 103.5 c 128,-1,0
 550 187 550 187 550 330 c 128,-1,1
30 330 m 128,-1,9
 30 480 30 480 115 580 c 128,-1,10
 200 680 200 680 340 680 c 128,-1,11
 480 680 480 680 565 580 c 128,-1,12
 650 480 650 480 650 330 c 128,-1,13
 650 180 650 180 565 80 c 128,-1,14
 480 -20 480 -20 340 -20 c 128,-1,15
 200 -20 200 -20 115 80 c 128,-1,8
 30 180 30 180 30 330 c 128,-1,9
320 720 m 1,16,-1
 215 870 l 1,17,-1
 315 870 l 1,18,-1
 360 720 l 1,19,-1
 320 720 l 1,16,-1
EndSplineSet
EndChar

StartChar: Oacute
Encoding: 211 211 241
Width: 680
Flags: HMW
HStem: -20 40<275 405 275 435> 640 40<275 405>
VStem: 30 100<235 425 235 428> 550 100<235 425>
LayerCount: 2
Fore
SplineSet
550 330 m 128,-1,1
 550 473 550 473 493.5 556.5 c 128,-1,2
 437 640 437 640 340 640 c 128,-1,3
 243 640 243 640 186.5 556.5 c 128,-1,4
 130 473 130 473 130 330 c 128,-1,5
 130 187 130 187 186.5 103.5 c 128,-1,6
 243 20 243 20 340 20 c 128,-1,7
 437 20 437 20 493.5 103.5 c 128,-1,0
 550 187 550 187 550 330 c 128,-1,1
30 330 m 128,-1,9
 30 480 30 480 115 580 c 128,-1,10
 200 680 200 680 340 680 c 128,-1,11
 480 680 480 680 565 580 c 128,-1,12
 650 480 650 480 650 330 c 128,-1,13
 650 180 650 180 565 80 c 128,-1,14
 480 -20 480 -20 340 -20 c 128,-1,15
 200 -20 200 -20 115 80 c 128,-1,8
 30 180 30 180 30 330 c 128,-1,9
445 840 m 1,16,-1
 340 720 l 1,17,-1
 300 720 l 1,18,-1
 355 840 l 1,19,-1
 445 840 l 1,16,-1
EndSplineSet
EndChar

StartChar: Ocircumflex
Encoding: 212 212 242
Width: 680
Flags: HMW
HStem: -20 40<275 405 275 435> 640 40<275 405>
VStem: 30 100<235 425 235 428> 550 100<235 425>
LayerCount: 2
Fore
SplineSet
550 330 m 128,-1,1
 550 473 550 473 493.5 556.5 c 128,-1,2
 437 640 437 640 340 640 c 128,-1,3
 243 640 243 640 186.5 556.5 c 128,-1,4
 130 473 130 473 130 330 c 128,-1,5
 130 187 130 187 186.5 103.5 c 128,-1,6
 243 20 243 20 340 20 c 128,-1,7
 437 20 437 20 493.5 103.5 c 128,-1,0
 550 187 550 187 550 330 c 128,-1,1
30 330 m 128,-1,9
 30 480 30 480 115 580 c 128,-1,10
 200 680 200 680 340 680 c 128,-1,11
 480 680 480 680 565 580 c 128,-1,12
 650 480 650 480 650 330 c 128,-1,13
 650 180 650 180 565 80 c 128,-1,14
 480 -20 480 -20 340 -20 c 128,-1,15
 200 -20 200 -20 115 80 c 128,-1,8
 30 180 30 180 30 330 c 128,-1,9
425 710 m 1,16,-1
 340 780 l 1,17,-1
 255 710 l 1,18,-1
 215 710 l 1,19,-1
 295 815 l 1,20,-1
 385 815 l 1,21,-1
 465 710 l 1,22,-1
 425 710 l 1,16,-1
EndSplineSet
EndChar

